<svg xmlns="http://www.w3.org/2000/svg" viewBox="0 0 121.54 80.59"><defs><style>.cls-1{fill:#fff;stroke:#9d9d9d;stroke-linecap:round;stroke-linejoin:round;stroke-width:0.99px;fill-rule:evenodd;}</style></defs><title>Alternative</title><g id="Слой_2" data-name="Слой 2"><g id="Слой_1-2" data-name="Слой 1"><path class="cls-1" d="M60.77,55.34C94.06,55.34,121,43.55,121,29S94.06,2.67,60.77,2.67.5,14.46.5,29s27,26.33,60.27,26.33Zm0-6.83c16.75,0,31.66-3.41,41.26-8.72-10.21-5.28-24.91-8.6-41.26-8.6s-31.05,3.32-41.26,8.6c9.6,5.31,24.51,8.72,41.26,8.72Z"/><path class="cls-1" d="M60.77,50.85c31.41,0,56.87-11.27,56.87-25.18S92.18.5,60.77.5,3.9,11.77,3.9,25.67,29.36,50.85,60.77,50.85Zm0-2.34c16.75,0,31.66-3.41,41.26-8.72-10.21-5.28-24.91-8.6-41.26-8.6s-31.05,3.32-41.26,8.6c9.6,5.31,24.51,8.72,41.26,8.72Z"/><path class="cls-1" d="M60.77,80.09c25.13,0,46.5-7.33,54.41-17.56-9.7,8.87-30.41,15-54.41,15s-44.72-6.13-54.41-15c7.91,10.23,29.28,17.56,54.41,17.56Z"/><path class="cls-1" d="M60.77,77.52C94.06,77.52,121,65.73,121,51.19V29.05c0,9.37-11.26,17.58-28.14,22.24l-.5.13-.78.21h0l-.46.12h0l-.75.19L90,52l-.9.22-.51.11-.65.15-.65.14-.71.15-.69.14-.63.12q-.39.09-.78.15l-.44.09-1,.17-.38.07-1,.15-.45.08-.94.14-.44.07-1,.14-.27,0-1.15.15-.32,0-1.17.14-.26,0-1.24.13H74.3l-1.25.12-.21,0-1.3.11h-.19l-1.3.1h-.23l-1.33.09h-.12L67,55.2h-.08l-1.42,0h-.09l-1.47,0h0l-1.51,0H59.21l-1.51,0h-.06l-1.47,0h-.09l-1.42,0h-.08l-1.41-.07h-.12L51.72,55h-.23l-1.3-.1H50l-1.3-.11-.21,0-1.25-.12H47.1l-1.24-.13-.26,0-1.17-.14-.32,0L43,54.17l-.26,0-1-.14-.44-.07-.93-.14-.48-.08-.94-.15-.39-.07-1-.17-.44-.09-.77-.14L35.66,53,35,52.81l-.7-.15-.66-.14L33,52.37l-.51-.11L31.54,52,31.22,52l-.78-.2h0L30,51.64h0l-.8-.21-.4-.11C11.77,46.65.5,38.41.5,29V51.16h0v0c0,14.54,27,26.33,60.27,26.33ZM.5,29h0v0Z"/><path class="cls-1" d="M101.91,39.86c7.06-3.88,11.28-8.78,11.28-14.1C113.19,13.19,89.72,3,60.77,3S8.35,13.19,8.35,25.76c0,5.32,4.22,10.22,11.28,14.1l-.12-.07c10.21-5.28,24.91-8.6,41.26-8.6s31,3.32,41.26,8.6l-.12.07Z"/></g></g></svg>