<svg xmlns="http://www.w3.org/2000/svg" viewBox="0 0 121.54 61.54"><defs><style>.cls-1,.cls-2{fill:#fff;stroke:#9d9d9d;fill-rule:evenodd;}.cls-1{stroke-linecap:round;stroke-linejoin:round;stroke-width:0.99px;}.cls-2{stroke-miterlimit:22.93;stroke-width:0.57px;}</style></defs><title>Channel</title><g id="Слой_2" data-name="Слой 2"><g id="Слой_1-2" data-name="Слой 1"><path class="cls-1" d="M117.89,28a11.51,11.51,0,0,1,2.18,6.54c0,13.38-26.55,24.23-59.3,24.23S1.47,47.94,1.47,34.56A11.51,11.51,0,0,1,3.65,28C10.36,37.39,33.39,44.3,60.77,44.3S111.18,37.39,117.89,28Z"/><polygon class="cls-2" points="60.77 45.26 63.57 46.42 66.37 47.58 67.52 50.37 68.68 53.17 67.52 55.97 66.37 58.77 63.57 59.92 60.77 61.08 57.97 59.92 55.17 58.77 54.02 55.97 52.86 53.17 54.02 50.37 55.17 47.58 57.97 46.42 60.77 45.26 60.77 45.26"/><polygon class="cls-2" points="45.32 45.17 47.84 46.41 50.36 47.65 51.4 50.25 52.45 52.85 51.4 55.29 50.36 57.73 47.84 58.58 45.32 59.43 42.8 58.19 40.27 56.95 39.23 54.35 38.19 51.75 39.23 49.31 40.27 46.87 42.8 46.02 45.32 45.17 45.32 45.17"/><polygon class="cls-2" points="75.72 45.08 73.19 46.26 70.67 47.44 69.63 50.02 68.59 52.6 69.63 55.06 70.67 57.52 73.19 58.43 75.72 59.34 78.23 58.16 80.76 56.98 81.8 54.4 82.84 51.83 81.8 49.36 80.76 46.9 78.23 45.99 75.72 45.08 75.72 45.08"/><polygon class="cls-2" points="5.69 30.03 7.14 31.12 8.59 32.22 9.2 34.53 9.8 36.83 9.2 39 8.59 41.16 7.14 41.92 5.69 42.67 4.23 41.57 2.78 40.47 2.18 38.17 1.57 35.86 2.18 33.7 2.78 31.53 4.23 30.78 5.69 30.03 5.69 30.03"/><polygon class="cls-2" points="114.53 31.48 113.03 32.62 111.52 33.76 110.9 36.2 110.28 38.65 110.9 40.97 111.52 43.29 113.03 44.13 114.53 44.97 116.03 43.83 117.53 42.7 118.15 40.25 118.77 37.8 118.15 35.48 117.53 33.16 116.03 32.32 114.53 31.48 114.53 31.48"/><polygon class="cls-2" points="12 35.71 13.91 36.88 15.81 38.05 16.6 40.52 17.39 42.98 16.6 45.28 15.81 47.59 13.91 48.4 12 49.2 10.1 48.03 8.19 46.86 7.4 44.4 6.61 41.94 7.4 39.63 8.19 37.32 10.1 36.52 12 35.71 12 35.71"/><polygon class="cls-2" points="108.34 36.68 106.44 37.81 104.53 38.94 103.74 41.38 102.95 43.82 103.74 46.15 104.53 48.47 106.44 49.32 108.34 50.17 110.25 49.04 112.16 47.91 112.94 45.47 113.73 43.03 112.94 40.7 112.16 38.38 110.25 37.53 108.34 36.68 108.34 36.68"/><polygon class="cls-2" points="19.84 39.43 21.96 40.6 24.08 41.77 24.96 44.23 25.84 46.69 24.96 49 24.08 51.31 21.96 52.11 19.84 52.91 17.72 51.74 15.6 50.57 14.72 48.11 13.84 45.65 14.72 43.34 15.6 41.03 17.72 40.23 19.84 39.43 19.84 39.43"/><polygon class="cls-2" points="100.51 40.22 98.39 41.34 96.27 42.46 95.39 44.9 94.51 47.34 95.39 49.67 96.27 52 98.39 52.85 100.51 53.7 102.63 52.58 104.75 51.46 105.63 49.02 106.51 46.58 105.63 44.25 104.75 41.92 102.63 41.07 100.51 40.22 100.51 40.22"/><polygon class="cls-2" points="31.9 42.88 34.28 44.05 36.66 45.23 37.65 47.69 38.64 50.15 37.65 52.45 36.66 54.76 34.28 55.57 31.9 56.37 29.51 55.2 27.13 54.03 26.14 51.57 25.15 49.11 26.14 46.8 27.13 44.49 29.51 43.69 31.9 42.88 31.9 42.88"/><polygon class="cls-2" points="89.23 43.32 86.85 44.43 84.47 45.55 83.48 47.99 82.49 50.42 83.48 52.76 84.47 55.09 86.85 55.95 89.23 56.8 91.62 55.69 94 54.57 94.99 52.13 95.98 49.7 94.99 47.37 94 45.03 91.62 44.18 89.23 43.32 89.23 43.32"/><path class="cls-1" d="M117.16,15.84c2.51,2.57,3.88,5.36,3.88,8.27,0,12.93-27,23.42-60.27,23.42S.5,37,.5,24.11c0-2.91,1.37-5.7,3.88-8.27a10.15,10.15,0,0,0-2.7,6.56c0,12.09,26.46,21.9,59.09,21.9s59.09-9.81,59.09-21.9a10.15,10.15,0,0,0-2.7-6.56Z"/><path class="cls-1" d="M60.77.5c32.64,0,59.09,9.8,59.09,21.9S93.41,44.3,60.77,44.3,1.68,34.49,1.68,22.4,28.14.5,60.77.5Zm40.75,28.89c-8.55,4.39-23.61,7.3-40.75,7.3S28.57,33.78,20,29.39c8-4.77,23.26-8,40.75-8s32.73,3.23,40.75,8Z"/><path class="cls-1" d="M60.77,5.28C87.41,5.28,109,12.31,109,21c0,3.09-2.74,6-7.48,8.4-8-4.77-23.26-8-40.75-8S28,24.62,20,29.39C15.28,27,12.54,24.08,12.54,21c0-8.68,21.59-15.71,48.23-15.71ZM101,29.66l-.61.28.61-.28Zm-1.31.6-.6.27.6-.27Zm-1.38.59-.61.24.61-.24Zm-1.45.56-.66.23.66-.23Zm-2.53.86-.59.18.59-.18Zm-1.69.51L92,33l.69-.19Zm-1.77.48-.61.16.61-.16Zm-59.59.16-.61-.16.61.16ZM29.59,33l-.69-.19.69.19Zm-1.79-.52-.59-.18.59.18Zm-2.46-.81-.66-.23.66.23Zm-1.5-.55-.61-.24.61.24Zm-1.39-.56-.6-.27.6.27Zm-1.3-.59-.6-.28.6.28Zm-.82-.39L20,29.4l.3.15Z"/><path class="cls-2" d="M16.52,27.25a11.14,11.14,0,0,1-3.34-3.7,2,2,0,0,1,2.07-1.13c1.16.32,1.81,2.16,1.45,4.11a4.21,4.21,0,0,1-.18.72Z"/><path class="cls-2" d="M105,27.25a11,11,0,0,0,3.34-3.7,2,2,0,0,0-2.06-1.13c-1.17.32-1.82,2.16-1.46,4.11q.08.38.18.72Z"/><path class="cls-2" d="M60.77,9a4.14,4.14,0,0,1,4,4.24,4,4,0,1,1-8.07,0,4.13,4.13,0,0,1,4-4.24Z"/><path class="cls-2" d="M49.61,9.7A3.62,3.62,0,0,1,53,13.88,4.38,4.38,0,0,1,49,18.06a3.62,3.62,0,0,1-3.4-4.18A4.38,4.38,0,0,1,49.61,9.7Z"/><path class="cls-2" d="M72.57,9.27c-2.07,0-3.61,1.93-3.46,4.31s2,4.32,4,4.32,3.61-1.93,3.46-4.32-2-4.31-4-4.31Z"/><path class="cls-2" d="M39.41,11.28c1.79.37,2.78,2.48,2.23,4.71s-2.44,3.74-4.22,3.37-2.78-2.47-2.23-4.7,2.44-3.74,4.22-3.38Z"/><path class="cls-2" d="M82.56,11.16c-1.72.38-2.69,2.56-2.15,4.87s2.35,3.86,4.08,3.48,2.68-2.56,2.15-4.86-2.36-3.87-4.08-3.49Z"/><path class="cls-2" d="M29.42,13.59c1.58.41,2.46,2.45,2,4.54s-2.16,3.47-3.73,3.05-2.46-2.44-2-4.54,2.15-3.46,3.73-3.05Z"/><path class="cls-2" d="M92.44,13.54c-1.58.36-2.46,2.46-2,4.69S92.62,22,94.2,21.59s2.45-2.47,2-4.69S94,13.17,92.44,13.54Z"/><path class="cls-2" d="M21.42,17.28c1.34.41,2.08,2.45,1.67,4.55s-1.83,3.49-3.16,3.09-2.09-2.44-1.68-4.55,1.83-3.49,3.17-3.09Z"/><path class="cls-2" d="M100.6,17.6c-1.33.37-2.08,2.48-1.67,4.71s1.83,3.74,3.17,3.37,2.08-2.47,1.67-4.71-1.83-3.74-3.17-3.37Z"/><path class="cls-1" d="M120,33.49a10.47,10.47,0,0,1,.56,3.32C120.57,50.19,93.8,61,60.77,61S1,50.19,1,36.81a10.47,10.47,0,0,1,.56-3.32,9.46,9.46,0,0,0-.06,1.07c0,13.38,26.55,24.23,59.3,24.23s59.3-10.85,59.3-24.23a9.46,9.46,0,0,0-.06-1.07Z"/></g></g></svg>