<svg xmlns="http://www.w3.org/2000/svg" viewBox="0 0 121.54 58.73"><defs><style>.cls-1{fill:#fff;fill-rule:evenodd;}.cls-1,.cls-2{stroke:#9d9d9d;stroke-linecap:round;stroke-linejoin:round;stroke-width:0.99px;}.cls-2{fill:none;}</style></defs><title>Classic</title><g id="Слой_2" data-name="Слой 2"><g id="Слой_1-2" data-name="Слой 1"><path class="cls-1" d="M15.62,27.18C36.26,15,85.28,15,105.92,27.18c-20.4,11.47-69.9,11.47-90.3,0ZM29.41,3.57C16.19,6.6-.63,13.78.56,30.26,1.61,45,17.3,51.76,29.64,54.8c18.66,4.58,43.6,4.58,62.26,0,12.34-3,28-9.85,29.09-24.54C122.17,13.78,105.35,6.6,92.13,3.57c-17.93-4.1-44.79-4.1-62.72,0Z"/><path class="cls-2" d="M15.62,27.18c-12-5.57-11.52-11.92,0-19m90.3,19c12-5.57,11.52-11.92,0-19"/></g></g></svg>