<svg xmlns="http://www.w3.org/2000/svg" viewBox="0 0 121.12 39.01"><defs><style>.cls-1,.cls-2,.cls-3,.cls-4,.cls-6,.cls-7{fill:#fff;fill-rule:evenodd;}.cls-1,.cls-2,.cls-3,.cls-4,.cls-5,.cls-6,.cls-7{stroke:#9d9d9d;}.cls-1,.cls-2,.cls-5{stroke-linecap:round;stroke-linejoin:round;}.cls-1,.cls-5{stroke-width:0.99px;}.cls-2{stroke-width:0.57px;}.cls-3,.cls-4,.cls-6,.cls-7{stroke-miterlimit:22.93;}.cls-3{stroke-width:0.57px;}.cls-4{stroke-width:0.57px;}.cls-5{fill:none;}.cls-6{stroke-width:0.57px;}.cls-7{stroke-width:0.57px;}</style></defs><title>Diamond</title><g id="Слой_2" data-name="Слой 2"><g id="Слой_1-2" data-name="Слой 1"><path class="cls-1" d="M74.24,31.08l4.49-2.38c2.94-.29,5.2-3.45,8.15-2.92C87,23.73,90.17,23,97.82,24.23c-.77-2.06,1.72-3,9.4-2-2.61-1.95-2.07-3.25,6.3-2.54-4.57-2.43-1.47-3,5.09-3-5.27-1.51-5.33-2.57,2-3C117.82-3.91,3.3-3.91.52,13.73c7.32.41,7.25,1.47,2,3,6.56,0,9.66.56,5.09,3,8.37-.71,8.91.59,6.3,2.54,7.68-1,10.17-.07,9.4,2C31,23,34.11,23.73,34.24,25.78c2.95-.53,5.21,1.44,8.15,1.74l4,2.09.09.56c.43.72.92.72,1.44.33,3.94-2.71,9.88-6.92,12.67-1.62,1,.64,2.31,4,2.83,3.57.27-.75.54-1.51.8-2.27a5.66,5.66,0,0,1,2.94-1.66,6.38,6.38,0,0,1,2.56,0A6.94,6.94,0,0,1,73.08,32l1.5-.64-.34-.25ZM31.35,21.13a59.8,59.8,0,0,1-15-4.08c19-8.16,69.48-8.16,88.46,0a56.58,56.58,0,0,1-13.54,3.83,187.5,187.5,0,0,1-59.9.25Z"/><path class="cls-1" d="M.52,13.73q0,4.31,0,8.6A1.64,1.64,0,0,0,2.12,24.1C2,27,3.33,27.32,5,27.22H6.8c-.07,2.24,1.06,3,2.83,2.91H12.4l1.06.07c0,2,1,2.7,2.76,2.55h6.45c.26,1.72,1.31,2.35,3,2.12l3.26-.56,4.68.7a1.51,1.51,0,0,0,1.35,1.08c3.79-.09,8.79,0,11.49,1.08,2.26.92.68,1.51,3.41.31l2.77-1.21,4.17-.07,3,1.38a4.55,4.55,0,0,0,4.4.16L66.36,37l6.49,1c2,.7,1.87.78,3.72-.28a18.11,18.11,0,0,1,5.3-1.63l2.55.35c1.5.32,2.6,0,3.12-1.42l4.68-.7,3.26.56c1.66.23,2.71-.4,3-2.12h6.45c1.72.15,2.74-.57,2.76-2.55l1.06-.07h2.77c1.77.08,2.9-.67,2.83-2.91h1.84c1.63.1,3-.22,2.83-3.12a1.64,1.64,0,0,0,1.63-1.77q0-4.29,0-8.6c-7.32.41-7.26,1.47-2,3-6.56,0-9.66.56-5.09,3-8.37-.71-8.91.59-6.3,2.54-7.68-1-10.17-.07-9.4,2C90.17,23,87,23.73,86.88,25.78c-5.95-1.84-10-1-12.6,1.77-4.75-2.94-8.84-2.44-12.48.36-4.73-3.52-9.12-2.95-13.29.19-5.38-3.15-5.89-3.47-14.27-2.32C34.11,23.73,31,23,23.3,24.23c.77-2.06-1.72-3-9.4-2C16.51,20.29,16,19,7.6,19.7c4.57-2.43,1.47-3-5.09-3,5.26-1.51,5.33-2.57-2-3Z"/><polygon class="cls-2" points="41.66 25.3 43.39 25.9 45.12 26.49 46.19 28.04 47.25 29.6 47.25 31.52 47.25 33.43 46.19 34.99 45.12 36.54 43.39 37.13 41.66 37.73 39.93 37.13 38.2 36.54 37.14 34.99 36.07 33.43 36.07 31.52 36.07 29.6 37.14 28.04 38.2 26.49 39.93 25.9 41.66 25.3 41.66 25.3"/><polygon class="cls-3" points="80.67 25.3 79.11 25.89 77.54 26.46 76.57 27.98 75.6 29.5 75.6 31.38 75.6 33.25 76.57 34.77 77.54 36.29 79.11 36.87 80.67 37.45 82.24 36.87 83.81 36.29 84.78 34.77 85.74 33.25 85.74 31.38 85.74 29.5 84.78 27.98 83.81 26.46 82.24 25.89 80.67 25.3 80.67 25.3"/><path class="cls-4" d="M19.3,22.09l1.36.58,1.35.57.84,1.52.06.1a9.19,9.19,0,0,0-.27,3.4l0,3.61L22,33.05l-1.35.58-1.36.58L18,33.63l-1.36-.58-.84-1.52L14.91,30V26.27l.84-1.51.84-1.52L18,22.67l1.35-.58Z"/><path class="cls-4" d="M101.82,22.09l-1.36.58-1.35.57-.84,1.52-.06.1a9.19,9.19,0,0,1,.27,3.4l0,3.61.65,1.18,1.35.58,1.36.58,1.35-.58,1.36-.58.84-1.52.84-1.51V26.27l-.84-1.51-.84-1.52-1.36-.57-1.35-.58Z"/><path class="cls-4" d="M11.92,20l1.25.54,1.25.53.38.69-.9.48c-.68.27-.53,2.08-.5,3.07l.06,4.89,0,.34-.31.13-1.25.54-1.26-.54-1.25-.53-.78-1.4-.77-1.4V23.87l.77-1.4.78-1.4,1.25-.53L11.92,20Z"/><path class="cls-4" d="M109.2,20l-1.25.54-1.25.53-.38.69.9.48c.67.27.53,2.08.5,3.07l-.06,4.89,0,.34.31.13,1.25.54,1.26-.54,1.25-.53.77-1.4.78-1.4V23.87l-.78-1.4-.77-1.4-1.25-.53L109.2,20Z"/><path class="cls-4" d="M6.73,17.4l1.2.51,1.2.51.35.63L7.6,19.7c-.75.66-.61,1.52-.67,2.68L6.8,27.22l.06.85-.13.06-1.2-.51-1.2-.51-.75-1.35-.74-1.34V21.11l.74-1.35.75-1.34,1.2-.51,1.2-.51Z"/><path class="cls-4" d="M114.39,17.4l-1.2.51-1.2.51-.35.63,1.88.65c.75.66.61,1.52.67,2.68l.13,4.84-.06.85.13.06,1.2-.51,1.2-.51.75-1.35.74-1.34V21.11l-.74-1.35-.75-1.34-1.2-.51-1.2-.51Z"/><path class="cls-4" d="M2.92,14.27l.82.52.81.51.36,1-2.25.4-.15,0a1.69,1.69,0,0,0-.37,1.37l0,6v.4h0L1.29,24l-.5-1.34L.29,21.3V18l.5-1.34.5-1.34.82-.51.81-.52Z"/><path class="cls-4" d="M118.2,14.27l-.82.52-.81.51-.36,1,2.25.4.15,0a1.69,1.69,0,0,1,.37,1.37V24.5h0l.82-.51.5-1.34.5-1.34V18l-.5-1.34-.5-1.34-.82-.51-.81-.52Z"/><path class="cls-4" d="M29.79,23.84l1.55.56,1.55.57.92,1.4c-.32.5-.35.89-.33,2.12l.07,5-.66,1-1.55.57-1.55.56-1.56-.56-1.55-.57-1-1.47-1-1.48V27.92l1-1.48,1-1.47,1.55-.57,1.56-.56Z"/><path class="cls-4" d="M91.33,23.84l-1.55.56L88.22,25l-.91,1.4c.32.5.35.89.33,2.12l-.08,5,.66,1,1.56.57,1.55.56,1.55-.56,1.56-.57,1-1.47,1-1.48V27.92l-1-1.48-1-1.47-1.56-.57-1.55-.56Z"/><path class="cls-5" d="M16.33,17.05c-3.43-1.69-5-3.33-4.89-4.93.86-8.33,42.46-10,49.12-9.79,6.66-.2,48.26,1.46,49.12,9.79.16,1.6-1.46,3.24-4.89,4.93"/><polygon class="cls-6" points="55.02 25.91 56.98 26.65 58.93 27.39 59.97 29.27 61.01 31.15 60.65 33.29 60.29 35.42 58.7 36.82 57.1 38.21 55.02 38.21 52.94 38.21 51.35 36.82 49.75 35.42 49.39 33.29 49.03 31.15 50.07 29.27 51.11 27.39 53.07 26.65 55.02 25.91 55.02 25.91"/><polygon class="cls-7" points="68.41 25.98 70.26 26.71 72.11 27.44 73.09 29.29 74.08 31.13 73.73 33.23 73.39 35.33 71.89 36.7 70.38 38.07 68.41 38.07 66.44 38.07 64.94 36.7 63.43 35.33 63.09 33.23 62.75 31.13 63.73 29.29 64.72 27.44 66.56 26.71 68.41 25.98 68.41 25.98"/><path class="cls-5" d="M2.51,16.71a1.69,1.69,0,0,0-.37,1.37l0,6M7.6,19.7c-.75.66-.61,1.52-.67,2.68L6.8,27.22m6.66,3-.06-4.89c0-1-.18-2.8.5-3.07m8.77,10.51,0-4.49c0-2.06-.11-3.1.66-4M33.58,35c0-2.17-.07-4.35-.1-6.52,0-1.64,0-1.78.76-2.71M87.54,35c0-2.17.07-4.35.1-6.52,0-1.64,0-1.78-.76-2.71m11.57,7,0-4.49c0-2.06.11-3.1-.66-4m9.84,6,.06-4.89c0-1,.17-2.8-.5-3.07m6.3-2.54c.75.66.61,1.52.67,2.68l.13,4.84m4.29-10.51a1.69,1.69,0,0,1,.37,1.37v6"/></g></g></svg>