<svg xmlns="http://www.w3.org/2000/svg" viewBox="0 0 121.33 80.57"><defs><style>.cls-1,.cls-10,.cls-11,.cls-12,.cls-13,.cls-14,.cls-15,.cls-16,.cls-17,.cls-18,.cls-19,.cls-20,.cls-21,.cls-22,.cls-23,.cls-24,.cls-5,.cls-6,.cls-7,.cls-8,.cls-9{fill:#fff;fill-rule:evenodd;}.cls-1,.cls-10,.cls-11,.cls-12,.cls-13,.cls-14,.cls-15,.cls-16,.cls-17,.cls-18,.cls-19,.cls-2,.cls-20,.cls-21,.cls-22,.cls-23,.cls-24,.cls-3,.cls-4,.cls-5,.cls-6,.cls-7,.cls-8,.cls-9{stroke:#9d9d9d;}.cls-1,.cls-2,.cls-4{stroke-linecap:round;stroke-linejoin:round;}.cls-1,.cls-2{stroke-width:0.99px;}.cls-2,.cls-3,.cls-4{fill:none;}.cls-10,.cls-11,.cls-12,.cls-13,.cls-14,.cls-15,.cls-16,.cls-17,.cls-18,.cls-19,.cls-20,.cls-21,.cls-22,.cls-23,.cls-24,.cls-3,.cls-5,.cls-6,.cls-7,.cls-8,.cls-9{stroke-miterlimit:22.93;}.cls-3,.cls-4{stroke-width:0.57px;}.cls-5{stroke-width:0.58px;}.cls-6{stroke-width:0.57px;}.cls-7{stroke-width:0.57px;}.cls-8{stroke-width:0.57px;}.cls-9{stroke-width:0.57px;}.cls-10{stroke-width:0.57px;}.cls-11{stroke-width:0.57px;}.cls-12{stroke-width:0.57px;}.cls-13{stroke-width:0.57px;}.cls-14{stroke-width:0.57px;}.cls-15{stroke-width:0.57px;}.cls-16{stroke-width:0.57px;}.cls-17{stroke-width:0.57px;}.cls-18{stroke-width:0.57px;}.cls-19{stroke-width:0.57px;}.cls-20{stroke-width:0.57px;}.cls-21{stroke-width:0.57px;}.cls-22{stroke-width:0.57px;}.cls-23{stroke-width:0.57px;}.cls-24{stroke-width:0.57px;}</style></defs><title>Fashion</title><g id="Слой_2" data-name="Слой 2"><g id="Слой_1-2" data-name="Слой 1"><path class="cls-1" d="M120.06,23.46c2.19-5.83-.54-9.5-4.87-13.61C103.26-1.46,9-4.75,3.73,12.76-.43,18.5.58,27.76,2.6,38.87,1.33,43,2.2,49.63,3.74,54.27c1,23.21,27.62,25.78,42.19,17.66,25.48,9.66,48.51,13.46,68.48-4.24,5.12-10.27,6.72-20.54,4.52-30.8,1.9-4.48,2.48-8.95,1.13-13.43ZM63.58,36.61c-6,3-7.77,4.47-8.64,5.57L41.05,33.74c13.32-6.05,26.28-8,38.77-4.89L63.58,36.61Z"/><path class="cls-2" d="M41.05,33.74c-4.36-2.81-8.69-5.65-12.93-8.61-3-2.11-6-4.28-8.89-6.54-3.62-3.15-5-5.67-4.64-7.68,1.92-12.51,90.67-9.49,93.82.15.6,1.85-1,4-4.88,6.6A183.88,183.88,0,0,1,79.82,28.85M54.94,42.18c.36,1.76.71,3.53,1.07,5.29.27.71,1,1.39,3.38,2l4.92.87C63,52,64.35,53.16,67,54c15.09,6.36,38.56,5,50.35-7.53a19.52,19.52,0,0,0,1.54-9.6M64.31,50.31c14.25,1.21,49.87-14.85,55.75-26.85"/><path class="cls-3" d="M118.93,36.89C110.1,51,85.22,54.49,64,52.25"/><path class="cls-2" d="M2.6,38.87C6.68,53.74,25.07,63.3,45.93,71.93"/><path class="cls-3" d="M3.74,54.27C8.71,66,20.87,67.81,34.86,67.1"/><path class="cls-4" d="M56.53,48.23c-.48-.59.17-1.29,1.84-2.07C71.9,40.77,85.6,35.22,100.62,28.58c6-2.63,24.77-10.87,13.79-19.37"/><path class="cls-2" d="M3.73,12.76C20.2,42,78.48,71.65,109.24,52.61"/><path class="cls-5" d="M47.83,50.42c2.44,0,4.42,2.37,4.42,5.3s-2,5.3-4.42,5.3-4.42-2.37-4.42-5.3,2-5.3,4.42-5.3Z"/><path class="cls-5" d="M56.23,53.85c2.44,0,4.42,2.37,4.42,5.3s-2,5.3-4.42,5.3-4.41-2.37-4.41-5.3,2-5.3,4.41-5.3Z"/><path class="cls-6" d="M64.82,55.75c2.44,0,4.42,2.35,4.42,5.25s-2,5.26-4.42,5.26S60.4,63.9,60.4,61s2-5.25,4.42-5.25Z"/><path class="cls-7" d="M73.59,57.6C76,57.6,78,59.93,78,62.81S76,68,73.59,68s-4.41-2.33-4.41-5.21,2-5.21,4.41-5.21Z"/><path class="cls-8" d="M82,58.53c2.22,0,4,2.38,4,5.32s-1.8,5.32-4,5.32-4-2.38-4-5.32,1.8-5.32,4-5.32Z"/><path class="cls-9" d="M89.83,58.46c2.09,0,3.78,2.33,3.78,5.2s-1.69,5.19-3.78,5.19S86,66.52,86,63.66s1.69-5.2,3.79-5.2Z"/><path class="cls-10" d="M97,57.5c1.85,0,3.35,2.22,3.35,5s-1.5,5-3.35,5-3.35-2.23-3.35-5,1.5-5,3.35-5Z"/><path class="cls-11" d="M103.35,55.71c1.72,0,3.11,2.14,3.11,4.78s-1.39,4.78-3.11,4.78-3.11-2.14-3.11-4.78,1.39-4.78,3.11-4.78Z"/><path class="cls-12" d="M108.78,53.14c1.46,0,2.64,2,2.64,4.49s-1.18,4.49-2.64,4.49-2.63-2-2.63-4.49,1.18-4.49,2.63-4.49Z"/><path class="cls-13" d="M113.45,50.17c1.16,0,2.07,2,2,4.41s-1,4.41-2.17,4.41-2.07-2-2-4.41,1-4.41,2.17-4.41Z"/><path class="cls-14" d="M117,47.5c.91,0,1.62,2,1.59,4.41s-.79,4.41-1.7,4.41-1.62-2-1.59-4.41.79-4.41,1.7-4.41Z"/><path class="cls-15" d="M40,46.42c2.17,0,3.93,2.45,3.93,5.47S42.17,57.35,40,57.35s-3.93-2.44-3.93-5.46,1.76-5.47,3.93-5.47Z"/><path class="cls-16" d="M18.9,31.73c2.17,0,3.89,2.74,3.84,6.12S20.89,44,18.72,44s-3.89-2.74-3.84-6.12,1.85-6.12,4-6.12Z"/><path class="cls-15" d="M25.7,37.37c2.17,0,3.93,2.63,3.93,5.86s-1.76,5.86-3.93,5.86-3.93-2.62-3.93-5.86,1.76-5.86,3.93-5.86Z"/><path class="cls-15" d="M32.76,42.12c2.17,0,3.93,2.53,3.93,5.66s-1.76,5.67-3.93,5.67-3.93-2.54-3.93-5.67,1.76-5.66,3.93-5.66Z"/><path class="cls-17" d="M12.59,25.49c1.95,0,3.49,2.8,3.45,6.25S14.37,38,12.42,38,8.92,35.19,9,31.74s1.66-6.25,3.62-6.25Z"/><path class="cls-18" d="M2.54,24.5c1.21-.52,2.18,1.68,2.15,4.93s-1,6.32-2.26,6.85S.26,34.6.28,31.35s1-6.32,2.26-6.85Z"/><path class="cls-19" d="M2.88,13c1.21-.51,2.18,1.63,2.15,4.78s-1,6.13-2.26,6.64S.6,22.74.62,19.59s1-6.13,2.26-6.64Z"/><path class="cls-20" d="M6.91,18.91C8.63,18.91,10,21.64,10,25s-1.47,6.09-3.2,6.09-3.09-2.73-3-6.09,1.47-6.09,3.2-6.09Z"/><path class="cls-5" d="M47.35,61.05c2.44,0,4.42,2.38,4.42,5.31s-2,5.3-4.42,5.3-4.41-2.37-4.41-5.3,2-5.31,4.41-5.31Z"/><path class="cls-5" d="M55.76,64.48c2.43,0,4.41,2.38,4.41,5.31s-2,5.3-4.41,5.3-4.42-2.38-4.42-5.3,2-5.31,4.42-5.31Z"/><path class="cls-21" d="M64.34,66.29c2.44,0,4.42,2.49,4.42,5.56s-2,5.56-4.42,5.56-4.41-2.49-4.41-5.56,2-5.56,4.41-5.56Z"/><path class="cls-21" d="M73.12,68.05c2.44,0,4.41,2.46,4.41,5.49S75.56,79,73.12,79s-4.42-2.45-4.42-5.49,2-5.49,4.42-5.49Z"/><path class="cls-8" d="M81.56,69.2c2.22,0,4,2.39,4,5.33s-1.8,5.32-4,5.32-4-2.39-4-5.32,1.8-5.33,4-5.33Z"/><path class="cls-9" d="M89.42,68.88c2.09,0,3.78,2.32,3.78,5.19s-1.69,5.19-3.78,5.19-3.79-2.32-3.79-5.19,1.69-5.19,3.79-5.19Z"/><path class="cls-10" d="M96.64,67.47c1.85,0,3.34,2.22,3.34,5s-1.49,5-3.34,5-3.35-2.23-3.35-5,1.5-5,3.35-5Z"/><path class="cls-11" d="M103,65.3c1.72,0,3.12,2.14,3.12,4.78s-1.4,4.78-3.12,4.78-3.11-2.14-3.11-4.78,1.39-4.78,3.11-4.78Z"/><path class="cls-12" d="M108.5,62.14c1.45,0,2.63,2,2.63,4.49s-1.18,4.49-2.63,4.49-2.63-2-2.63-4.49,1.18-4.49,2.63-4.49Z"/><path class="cls-22" d="M117.44,56.42c.9.16,1.26,2.22.82,4.62s-1.54,4.2-2.44,4.05-1.26-2.22-.81-4.62,1.54-4.21,2.43-4Z"/><path class="cls-13" d="M113.08,59c1.16,0,2.07,2,2,4.41s-1,4.41-2.17,4.41-2.07-2-2-4.41,1-4.41,2.17-4.41Z"/><path class="cls-15" d="M39.58,57.38c2.17,0,3.93,2.45,3.93,5.47s-1.76,5.46-3.93,5.46-3.93-2.44-3.93-5.46,1.76-5.47,3.93-5.47Z"/><path class="cls-23" d="M12,38c2,0,3.5,2.92,3.45,6.51S13.83,51,11.88,51s-3.5-2.91-3.46-6.5S10.09,38,12,38Z"/><path class="cls-24" d="M18.3,44.25c2.17,0,3.89,2.85,3.83,6.37S20.28,57,18.11,57s-3.89-2.85-3.84-6.36,1.86-6.37,4-6.37Z"/><path class="cls-15" d="M25.27,49.13c2.17,0,3.93,2.77,3.93,6.19s-1.76,6.19-3.93,6.19-3.93-2.77-3.93-6.19,1.76-6.19,3.93-6.19Z"/><path class="cls-15" d="M32.33,53.48c2.17,0,3.93,2.54,3.93,5.66s-1.76,5.67-3.93,5.67-3.93-2.54-3.93-5.67,1.76-5.66,3.93-5.66Z"/><path class="cls-20" d="M6.42,31.12c1.73,0,3.1,2.73,3.06,6.09S8,43.3,6.28,43.3s-3.1-2.72-3.06-6.09,1.47-6.09,3.2-6.09Z"/></g></g></svg>