<svg xmlns="http://www.w3.org/2000/svg" viewBox="0 0 121.54 43.5"><defs><style>.cls-1,.cls-2,.cls-3,.cls-4,.cls-5{fill:#fff;stroke:#9d9d9d;fill-rule:evenodd;}.cls-1,.cls-5{stroke-linecap:round;stroke-linejoin:round;}.cls-1{stroke-width:0.99px;}.cls-2,.cls-3,.cls-4{stroke-miterlimit:22.93;}.cls-2{stroke-width:0.57px;}.cls-3,.cls-5{stroke-width:0.57px;}.cls-4{stroke-width:0.57px;}</style></defs><title>Five stone</title><g id="Слой_2" data-name="Слой 2"><g id="Слой_1-2" data-name="Слой 1"><path class="cls-1" d="M60.77.5C94.06.5,121,6.18,121,13.19s-27,12.7-60.27,12.7S.5,20.2.5,13.19,27.48.5,60.77.5Zm0,1.63c29.33,0,53.12,4.43,53.12,9.9,0,3.13-7.77,5.91-19.91,7.73a10.56,10.56,0,0,0-8.15,1.17c-1.87.19-3.86.8-5.88.93-2.51-1.87-7.3-.25-8.82.22C67.62,21,67.68,21.9,66,21.92a26.11,26.11,0,0,0-12.12,0c-1.7,0-3.43,0-5.07-.08-3-1.12-5.82-1.52-8.43-.67-2.19-.17-4.5-.39-6.52-.61-1.64-1.39-4.1-1.71-8-1-1.8-.29-3.59-.65-5.16-1-8.14-1.74-13.06-4-13.06-6.5,0-5.47,23.78-9.9,53.11-9.9Z"/><path class="cls-1" d="M60.77,2.13c29.33,0,53.12,4.43,53.12,9.9,0,1.72-2.37,3.34-6.53,4.76-6.58-3.91-25-6.72-46.59-6.72s-40,2.81-46.59,6.72C10,15.37,7.66,13.75,7.66,12c0-5.47,23.78-9.9,53.11-9.9Z"/><path class="cls-1" d="M121,13.24h0v8.94h0v.05h0c-.1,9.22-27.05,16.68-60.27,16.68S.6,31.47.5,22.25h0v-9h0c.12,7,27.06,12.65,60.27,12.65S120.92,20.23,121,13.24Z"/><polygon class="cls-2" points="60.77 23.73 64 24.91 67.23 26.08 68.95 29.06 70.66 32.03 70.07 35.42 69.47 38.8 66.84 41.01 64.21 43.22 60.77 43.22 57.33 43.22 54.7 41.01 52.07 38.8 51.47 35.42 50.88 32.03 52.59 29.06 54.31 26.08 57.54 24.91 60.77 23.73 60.77 23.73"/><path class="cls-1" d="M106.72,31l1.69-.41c2.1.06,4,1.21,4,3.46s-1.35,3-3.42,3.36a8.25,8.25,0,0,1-3.54-.28c.41-2,.83-4.09,1.24-6.13Z"/><path class="cls-1" d="M13.12,31l-1.69-.41c-2.1.06-3.95,1.21-4,3.46s1.35,3,3.42,3.36a8.25,8.25,0,0,0,3.54-.28c-.41-2-.83-4.09-1.24-6.13Z"/><path class="cls-1" d="M108.69,30,94,19.77a4.55,4.55,0,0,1,5.34-1.16l10.76,5c3.63,2.19,2.76,6.26-1.37,6.38Z"/><path class="cls-1" d="M11.15,30c4.91-3.4,9.82-7,14.73-10.45-1.4-1.59-3.4-1.69-5.34-.91l-10.76,5C6.15,25.78,7,29.85,11.15,30Z"/><polygon class="cls-3" points="19.84 19.95 22.9 21.37 25.96 22.79 27.59 25.89 29.22 29 28.65 32.34 28.09 35.68 25.59 37.69 23.1 39.7 19.84 39.44 16.59 39.17 14.09 36.77 11.6 34.36 11.03 30.93 10.46 27.5 12.09 24.66 13.72 21.81 16.78 20.88 19.84 19.95 19.84 19.95"/><path class="cls-1" d="M39.88,22.63l.54-1.42A4.67,4.67,0,0,0,37.83,20a6.63,6.63,0,0,0-4,.6c-2.11,1.22-4.74,3.09-6.85,4.31s-4.55,2.53-2.82,5.5c1.28,2.17,3.57,2,5.78,1.38,2.8-1.84,6.13-4.33,8.94-6.17l1-3Z"/><polygon class="cls-4" points="38.92 23.37 41.98 24.55 45.04 25.72 46.67 28.7 48.3 31.68 47.73 35.06 47.17 38.44 44.67 40.65 42.18 42.86 38.92 42.86 35.67 42.86 33.17 40.65 30.68 38.44 30.11 35.06 29.55 31.68 31.17 28.7 32.8 25.72 35.86 24.55 38.92 23.37 38.92 23.37"/><path class="cls-1" d="M31.89,38.68c-.45-1.13-.89-2.26-1.34-3.4a3.35,3.35,0,0,0-6,0c-.16.73-.33,1.45-.5,2.18a1.38,1.38,0,0,0,1.12,1.67l4.74.78a2.17,2.17,0,0,0,2-1.23Z"/><polygon class="cls-5" points="99.58 20.67 96.53 22.09 93.47 23.51 91.84 26.61 90.21 29.72 90.78 33.06 91.34 36.4 93.83 38.41 96.33 40.42 99.58 40.16 102.84 39.9 105.34 37.49 107.83 35.08 108.4 31.65 108.96 28.22 107.33 25.38 105.71 22.53 102.64 21.6 99.58 20.67 99.58 20.67"/><path class="cls-1" d="M80.49,23.28,80,21.86a4.67,4.67,0,0,1,2.59-1.24,6.64,6.64,0,0,1,4,.6l6.32,3.66c2.24,1.3,4.56,2.53,2.82,5.5-1.28,2.17-3.57,2-5.77,1.38L81.5,26.24c-.34-1-.68-2-1-3Z"/><polygon class="cls-4" points="80.5 23.37 77.44 24.55 74.38 25.72 72.76 28.7 71.13 31.68 71.69 35.06 72.26 38.44 74.75 40.65 77.25 42.86 80.5 42.86 83.76 42.86 86.26 40.65 88.75 38.44 89.31 35.06 89.88 31.68 88.25 28.7 86.62 25.72 83.56 24.55 80.5 23.37 80.5 23.37"/><path class="cls-1" d="M88,38.68c.45-1.13.89-2.26,1.34-3.4a3.35,3.35,0,0,1,6,0c.16.73.33,1.45.5,2.18a1.38,1.38,0,0,1-1.12,1.67L90,39.91a2.17,2.17,0,0,1-2-1.23Z"/><path class="cls-1" d="M66.08,25.66c0-1.24-.07-2.49-.1-3.74a3.5,3.5,0,0,1,2.35-.85,6.09,6.09,0,0,1,2.8,1c1,1.92,1.93,3.57,3,5.49a4.3,4.3,0,0,1,.61,1.9,2.23,2.23,0,0,1-1,2.14,6.46,6.46,0,0,1-4.39.75,1.23,1.23,0,0,1-.88-.92l-1.17-5.36-1.15-.42Z"/><path class="cls-1" d="M53.77,25.66l.09-3.74a3.5,3.5,0,0,0-2.35-.85,5.6,5.6,0,0,0-2.72.77l-3,5.73a4.3,4.3,0,0,0-.61,1.9,2.23,2.23,0,0,0,1,2.14,6.27,6.27,0,0,0,3.43.85c2.15-.08,2-.86,2.81-2.38a10.36,10.36,0,0,0,1.36-4.42Z"/><path class="cls-1" d="M70.83,37.53c-2.4.07-3.89.83-3.91,3.45.32,1.06,1.8,1.26,3.75,1.13s3.45-.59,4-1.5c-.13-2.6-1.32-3.15-3.82-3.08Z"/><path class="cls-1" d="M49,37.53c2.4.07,3.89.83,3.91,3.45-.32,1.06-1.79,1.26-3.75,1.13s-3.45-.59-4-1.5c.12-2.6,1.31-3.15,3.81-3.08Z"/></g></g></svg>