<svg xmlns="http://www.w3.org/2000/svg" viewBox="0 0 121.56 39.07"><defs><style>.cls-1,.cls-2,.cls-3,.cls-5{fill:#fff;}.cls-1{stroke:#201600;}.cls-1,.cls-3{stroke-miterlimit:22.93;}.cls-1,.cls-3,.cls-5{stroke-width:0.57px;}.cls-1,.cls-2,.cls-3,.cls-4,.cls-5{fill-rule:evenodd;}.cls-2,.cls-3,.cls-5{stroke:#9d9d9d;}.cls-2,.cls-5{stroke-linecap:round;stroke-linejoin:round;}.cls-2{stroke-width:0.99px;}.cls-4{fill:#d44d60;}</style></defs><title>Gemstone</title><g id="Слой_2" data-name="Слой 2"><g id="Слой_1-2" data-name="Слой 1"><path class="cls-1" d="M3.44,16.08c-.25-.74-.86-1.24-1.11-2a4.13,4.13,0,0,1,1.74-.9,12.27,12.27,0,0,1,5.59,0,6.42,6.42,0,0,1,3.15,2.09L5.4,21.06l-2-5Z"/><path class="cls-1" d="M97,30.69l3.41,3.69a12,12,0,0,1-4.74.17,12.42,12.42,0,0,1-5-2L93,29.45l4,1.24Z"/><path class="cls-2" d="M68.7,3.35C75,.23,78.91,2.5,82.13,6.38c7.47-3.23,13.78-2.7,19,1.47,6.18-2.76,10-1.91,11.88,2,3.1-.91,5.41-.11,6.06,4.26l-18,5.57a2.83,2.83,0,0,1-2.41-3.12c-4.8,2.28-12.27.84-17.47-1.58-5.64,3-10,1.78-13.63-1.47a12.45,12.45,0,0,1-6.84,2.3,12.51,12.51,0,0,1-6.85-2.3c-3.67,3.25-8,4.48-13.62,1.47-5.2,2.42-12.67,3.86-17.47,1.58a2.83,2.83,0,0,1-2.41,3.12l-18-5.57c.65-4.37,3-5.17,6.06-4.26,1.85-3.9,5.69-4.75,11.87-2,5.21-4.17,11.52-4.7,19-1.47,3.23-3.88,7.16-6.15,13.44-3a13.7,13.7,0,0,1,8-2.85,13.72,13.72,0,0,1,8,2.85Z"/><path class="cls-2" d="M68.7,3.35C75,.23,78.91,2.5,82.13,6.38c7.47-3.23,13.78-2.7,19,1.47,6.18-2.76,10-1.91,11.88,2,3.1-.91,5.41-.11,6.06,4.26l-7,2.17L108.82,15c.21-1.93,0-3.18-1-3.25-1.12-3.27-4.12-2.89-7.82-1.17-5.52-4-11.61-4.37-18.31-.94-4.49-4.57-9-5.35-13.6-3a11.51,11.51,0,0,0-7.41-3.09,11.49,11.49,0,0,0-7.41,3.09c-4.57-2.32-9.11-1.54-13.6,3-6.71-3.43-12.8-3-18.31.94-3.7-1.72-6.71-2.1-7.82,1.17-1,.07-1.2,1.32-1,3.25L9.35,16.27l-7-2.17c.65-4.37,3-5.17,6.06-4.26,1.85-3.9,5.69-4.75,11.87-2,5.21-4.17,11.52-4.7,19-1.47,3.23-3.88,7.16-6.15,13.44-3a13.7,13.7,0,0,1,8-2.85,13.72,13.72,0,0,1,8,2.85Z"/><path class="cls-3" d="M60.69,12.92a8.29,8.29,0,0,0,5.72-2.56.86.86,0,0,0,.08-1.15,8,8,0,0,0-5.8-3.06,8,8,0,0,0-5.8,3.06A.86.86,0,0,0,55,10.36a8.29,8.29,0,0,0,5.72,2.56Z"/><path class="cls-3" d="M73.8,8.28c-1.94-.17-3.5,1-3.5,2.71a3.66,3.66,0,0,0,3.5,3.32c1.93.17,3.5-1.05,3.5-2.71a3.66,3.66,0,0,0-3.5-3.32Z"/><path class="cls-3" d="M81.75,12.79c-.27-.15-.27-.47,0-.69,4.6-3.34,14-4.45,17.46,1.18.13.31.19.46-.08.72-5.06,2.67-12.44,1.14-17.42-1.21Z"/><path class="cls-3" d="M103.6,11.81c-1.4,0-2.61,1.66-2.7,3.72A4.2,4.2,0,0,0,102,18.7a13.45,13.45,0,0,1,4-2.66,4.2,4.2,0,0,0,0-.51c.09-2.06-1-3.72-2.38-3.72Z"/><path class="cls-1" d="M101.52,21.84,101,19.67c3.72-4.22,9.52-6.24,14.09-2.3l-10.3,8.28-3.31-3.81Z"/><path class="cls-1" d="M118.37,13.82c-1.32,0-2.39,3.15-2.39,7s1.07,7,2.39,7,2.4-3.15,2.4-7-1.07-7-2.4-7Z"/><path class="cls-2" d="M118.37,13.82c-1.32,0-2.39,3.15-2.39,7s1.07,7,2.39,7,2.4-3.15,2.4-7-1.08-7-2.4-7Z"/><polygon class="cls-4" points="119.69 15.88 119.08 16.48 118.47 17.08 118.15 18.6 117.83 20.12 117.94 21.85 118.05 23.59 118.55 24.71 119.04 25.84 119.69 25.84 120.34 25.84 120.84 24.71 121.33 23.59 121.44 21.85 121.56 20.12 121.23 18.6 120.91 17.08 120.3 16.48 119.69 15.88 119.69 15.88"/><path class="cls-1" d="M106.41,26.11l6,4.58a34.14,34.14,0,0,1-7.42.28c-.23-.73-.47-1.46-.7-2.18.72-.89,1.45-1.78,2.17-2.68Z"/><path class="cls-1" d="M117.94,16.08c.25-.74.86-1.24,1.11-2a4.13,4.13,0,0,0-1.74-.9,12.27,12.27,0,0,0-5.59,0,6.5,6.5,0,0,0-3.16,2.09L116,21.06l2-5Z"/><path class="cls-2" d="M117.94,16.08c.25-.74.86-1.24,1.11-2a4.13,4.13,0,0,0-1.74-.9,12.27,12.27,0,0,0-5.59,0,6.5,6.5,0,0,0-3.16,2.09L116,21.06l2-5Z"/><path class="cls-2" d="M100.46,21.84,100,19.67c3.72-4.22,10.54-6.26,15.11-2.32-3.43,2.76-7.88,5.54-11.32,8.3l-3.31-3.81Z"/><path class="cls-2" d="M106.41,26.11l6,4.58a34.14,34.14,0,0,1-7.42.28c-.23-.73-.47-1.46-.7-2.18.72-.89,1.45-1.78,2.17-2.68Z"/><path class="cls-1" d="M117.09,24.38c.42,1.18.85,2.35,1.28,3.52a9.22,9.22,0,0,1-2.28.75l-2-3.13,3-1.14Z"/><path class="cls-2" d="M117.09,24.38c.42,1.18.85,2.35,1.28,3.52a9.22,9.22,0,0,1-2.28.75l-2-3.13,3-1.14Z"/><path class="cls-1" d="M113.68,28.64c-2.62.18-5.3-.44-7-2.94a11.59,11.59,0,0,1,6.59-6.77c1.38.06,2.51.74,3.53,2.54.16.62.4,1.48.57,2.1-.31,1-.54,1.74-.84,2.77a5.24,5.24,0,0,1-2.88,2.3Z"/><path class="cls-2" d="M19.86,21.84l.48-2.17c-3.72-4.22-9.52-6.24-14.09-2.3l10.3,8.28,3.31-3.81Z"/><path class="cls-2" d="M65.86,25.19h0c.31.44.67.64,1.12.39,6.06-4.16,15.92-6,22.64-2.66,2.31-5,10.74-5.21,14-1.12-2.56,2.34-5,4.38-7.54,6.71L70.66,31.12l-3.62.1a6.45,6.45,0,0,1-12.7,0l-3.62-.1L25.3,28.51c-2.55-2.33-5-4.37-7.53-6.71,3.25-4.09,11.67-3.83,14,1.12,6.72-3.31,16.58-1.5,22.64,2.66.45.25.81.05,1.12-.39h0a6.27,6.27,0,0,1,10.34,0Z"/><path class="cls-1" d="M60.69,31.53l6.08-2.44c6.61-5,21.11-8.71,27.87-2.34L105.46,24c2.4-5.47,9.69-10.61,12.23-3.36,0,.93,0,1.85.08,2.77-.21,4.45-2.36,6.85-5,7.25-2.17.32-4.65-.81-7-2.06L95,30c-7,8.18-19.25,7.45-27.95,3.35l-6.39-1.84Z"/><path class="cls-2" d="M97,30.69l3.41,3.69a12,12,0,0,1-4.74.17,12.42,12.42,0,0,1-5-2L93,29.45l4,1.24Z"/><path class="cls-2" d="M60.69,31.53l6.08-2.44c6.61-5,21.11-8.71,27.87-2.34,3.61-.92,6.9-1.6,10.51-2.52,2.4-5.46,10-10.85,12.54-3.6,0,.93,0,1.85.08,2.77-.21,4.45-2.36,6.85-5,7.25-2.17.32-4.65-.81-7-2.06L95,30c-7,8.18-19.25,7.45-27.95,3.35l-6.39-1.84Z"/><path class="cls-3" d="M113.68,28.64c-2.62.18-5.3-.44-7-2.94a11.59,11.59,0,0,1,6.59-6.77c1.38.06,2.51.74,3.53,2.54.16.62.4,1.48.57,2.1-.31,1-.54,1.74-.84,2.77a5.24,5.24,0,0,1-2.88,2.3Z"/><path class="cls-1" d="M68.38,31.17c5.54-6,20.07-8,25.69-2.45-6.42,6.11-17.6,7.09-25.69,2.45Z"/><path class="cls-3" d="M68.38,31.17c5.54-6,20.07-8,25.69-2.45-6.42,6.11-17.6,7.09-25.69,2.45Z"/><path class="cls-1" d="M100.17,20.3c-3.07,0-5.56,3.16-5.56,7s2.49,7.05,5.56,7.05,5.57-3.16,5.57-7-2.49-7-5.57-7Z"/><polygon class="cls-1" points="100.58 22.07 99.28 22.67 97.97 23.27 97.28 24.79 96.58 26.31 96.82 28.04 97.06 29.77 98.13 30.9 99.19 32.03 100.58 32.03 101.97 32.03 103.04 30.9 104.1 29.77 104.34 28.04 104.58 26.31 103.89 24.79 103.19 23.27 101.89 22.67 100.58 22.07 100.58 22.07"/><path class="cls-2" d="M100.17,20.3c-3.07,0-5.56,3.16-5.56,7s2.49,7.05,5.56,7.05,5.57-3.16,5.57-7-2.49-7-5.57-7Z"/><polygon class="cls-4" points="100.58 22.07 99.28 22.67 97.97 23.27 97.28 24.79 96.58 26.31 96.82 28.04 97.06 29.77 98.13 30.9 99.19 32.03 100.58 32.03 101.97 32.03 103.04 30.9 104.1 29.77 104.34 28.04 104.58 26.31 103.89 24.79 103.19 23.27 101.89 22.67 100.58 22.07 100.58 22.07"/><path class="cls-1" d="M24.37,30.69,21,34.38a12,12,0,0,0,4.74.17,12.42,12.42,0,0,0,5-2L28.4,29.45l-4,1.24Z"/><path class="cls-5" d="M47.58,8.28c1.94-.17,3.5,1,3.5,2.71a3.66,3.66,0,0,1-3.5,3.32c-1.93.17-3.5-1.05-3.5-2.71a3.66,3.66,0,0,1,3.5-3.32Z"/><path class="cls-3" d="M39.63,12.79c.27-.15.26-.47,0-.69-4.61-3.34-14-4.45-17.47,1.18-.13.31-.18.46.09.72,5.05,2.67,12.44,1.14,17.42-1.21Z"/><path class="cls-2" d="M3.44,16.08c-.25-.74-.86-1.24-1.11-2a4.13,4.13,0,0,1,1.74-.9,12.27,12.27,0,0,1,5.59,0,6.42,6.42,0,0,1,3.15,2.09h0a8.22,8.22,0,0,0-6.56,2.05l1.92,1.55L5.4,21.06l-2-5Z"/><path class="cls-3" d="M17.78,11.81c1.4,0,2.61,1.66,2.69,3.72a4.16,4.16,0,0,1-1.06,3.17,13.45,13.45,0,0,0-4-2.66,4.2,4.2,0,0,1,0-.51c-.09-2.06,1-3.72,2.38-3.72Z"/><path class="cls-1" d="M3,13.82c1.32,0,2.39,3.15,2.39,7s-1.07,7-2.39,7-2.4-3.15-2.4-7,1.07-7,2.4-7Z"/><path class="cls-2" d="M3,13.82c1.32,0,2.39,3.15,2.39,7s-1.07,7-2.39,7-2.4-3.15-2.4-7,1.07-7,2.4-7Z"/><polygon class="cls-4" points="1.78 15.88 2.35 16.48 2.94 17.08 3.24 18.6 3.55 20.12 3.44 21.85 3.34 23.59 2.87 24.71 2.39 25.84 1.78 25.84 1.16 25.84 0.69 24.71 0.21 23.59 0.11 21.85 0 20.12 0.31 18.6 0.62 17.08 1.2 16.48 1.78 15.88 1.78 15.88"/><path class="cls-1" d="M15,26.11,9,30.69a34.07,34.07,0,0,0,7.41.28c.24-.73.47-1.46.71-2.18C16.42,27.9,15.69,27,15,26.11Z"/><path class="cls-2" d="M15,26.11,9,30.69a34.07,34.07,0,0,0,7.41.28c.24-.73.47-1.46.71-2.18C16.42,27.9,15.69,27,15,26.11Z"/><path class="cls-1" d="M4.29,24.38C3.86,25.56,3.44,26.73,3,27.9a9.22,9.22,0,0,0,2.28.75l2-3.13-3-1.14Z"/><path class="cls-2" d="M4.29,24.38C3.86,25.56,3.44,26.73,3,27.9a9.22,9.22,0,0,0,2.28.75l2-3.13-3-1.14Z"/><path class="cls-1" d="M7.7,28.64c2.62.18,5.3-.44,7-2.94a11.59,11.59,0,0,0-6.59-6.77c-1.38.06-2.51.74-3.53,2.54-.16.62-.4,1.48-.57,2.1.31,1,.54,1.74.84,2.77a5.24,5.24,0,0,0,2.88,2.3Z"/><path class="cls-1" d="M60.69,31.53l-6.08-2.44c-6.61-5-21.11-8.71-27.87-2.34L15.92,24c-2.4-5.47-9.69-10.61-12.23-3.36,0,.93,0,1.85-.08,2.77.21,4.45,2.36,6.85,5,7.25,2.17.32,4.65-.81,7-2.06L26.35,30C33.3,38.2,45.6,37.47,54.3,33.37l6.39-1.84Z"/><path class="cls-2" d="M24.37,30.69,21,34.38a12,12,0,0,0,4.74.17,12.42,12.42,0,0,0,5-2L28.4,29.45l-4,1.24Z"/><path class="cls-2" d="M60.69,31.53l-6.08-2.44c-6.61-5-21.11-8.71-27.87-2.34-3.61-.92-6.9-1.6-10.51-2.52-2.4-5.46-10-10.85-12.54-3.6,0,.93,0,1.85-.08,2.77.21,4.45,2.36,6.85,5,7.25,2.17.32,4.65-.81,7-2.06L26.35,30C33.3,38.2,45.6,37.47,54.3,33.37l6.39-1.84Z"/><path class="cls-3" d="M7.7,28.64c2.62.18,5.3-.44,7-2.94a11.59,11.59,0,0,0-6.59-6.77c-1.38.06-2.51.74-3.53,2.54-.16.62-.4,1.48-.57,2.1.31,1,.54,1.74.84,2.77a5.24,5.24,0,0,0,2.88,2.3Z"/><path class="cls-1" d="M53,31.17c-5.55-6-20.08-8-25.69-2.45,6.42,6.11,17.6,7.09,25.69,2.45Z"/><path class="cls-3" d="M53,31.17c-5.55-6-20.08-8-25.69-2.45,6.42,6.11,17.6,7.09,25.69,2.45Z"/><path class="cls-1" d="M21.21,20.3c3.07,0,5.56,3.16,5.56,7s-2.49,7.05-5.56,7.05-5.57-3.16-5.57-7,2.49-7,5.57-7Z"/><polygon class="cls-1" points="20.8 22.07 22.1 22.67 23.41 23.27 24.1 24.79 24.8 26.31 24.56 28.04 24.31 29.77 23.25 30.9 22.19 32.03 20.8 32.03 19.41 32.03 18.34 30.9 17.28 29.77 17.04 28.04 16.8 26.31 17.49 24.79 18.18 23.27 19.49 22.67 20.8 22.07 20.8 22.07"/><path class="cls-2" d="M21.21,20.3c3.07,0,5.56,3.16,5.56,7s-2.49,7.05-5.56,7.05-5.57-3.16-5.57-7,2.49-7,5.57-7Z"/><polygon class="cls-4" points="20.8 22.07 22.1 22.67 23.41 23.27 24.1 24.79 24.8 26.31 24.56 28.04 24.31 29.77 23.25 30.9 22.19 32.03 20.8 32.03 19.41 32.03 18.34 30.9 17.28 29.77 17.04 28.04 16.8 26.31 17.49 24.79 18.18 23.27 19.49 22.67 20.8 22.07 20.8 22.07"/><path class="cls-2" d="M60.69,38.57a6.8,6.8,0,0,0,6.54-7,6.56,6.56,0,1,0-13.09,0,6.81,6.81,0,0,0,6.55,7Z"/><polygon class="cls-4" points="60.69 36.52 62.32 36.52 63.58 35.39 64.83 34.26 65.11 32.53 65.39 30.8 64.58 29.27 63.76 27.75 62.23 27.15 60.69 26.55 59.15 27.15 57.62 27.75 56.8 29.27 55.98 30.8 56.27 32.53 56.55 34.26 57.8 35.39 59.05 36.52 60.69 36.52 60.69 36.52"/></g></g></svg>