<svg xmlns="http://www.w3.org/2000/svg" xmlns:xlink="http://www.w3.org/1999/xlink" viewBox="0 0 121.54 66.88"><defs><style>.cls-1,.cls-8{fill:none;}.cls-1{clip-rule:evenodd;}.cls-2,.cls-3,.cls-4,.cls-6,.cls-7{fill:#fff;fill-rule:evenodd;}.cls-2,.cls-3,.cls-6,.cls-7,.cls-8{stroke:#9d9d9d;}.cls-2,.cls-3,.cls-8{stroke-linecap:round;stroke-linejoin:round;}.cls-2,.cls-8{stroke-width:0.99px;}.cls-3{stroke-width:0.57px;}.cls-5{clip-path:url(#clip-path);}.cls-6,.cls-7{stroke-miterlimit:22.93;}.cls-6{stroke-width:0.57px;}.cls-7{stroke-width:0.57px;}</style><clipPath id="clip-path"><path class="cls-1" d="M60.77,39.65a214.81,214.81,0,0,1-43.88-4.8C10,33,6.73,34.74,6.88,39.93c.27,6.69,4.06,9.62,9.2,11.18a175.59,175.59,0,0,0,44.69,5.41,175.48,175.48,0,0,0,44.69-5.41c5.14-1.56,8.93-4.49,9.2-11.18.15-5.19-3.12-6.94-10-5.08a214.81,214.81,0,0,1-43.88,4.8Z"/></clipPath></defs><title>Men Wedding Bands</title><g id="Слой_2" data-name="Слой 2"><g id="Слой_1-2" data-name="Слой 1"><path class="cls-2" d="M60.88,3.07c31.79,0,57.56,7,57.56,15.75S92.67,34.58,60.88,34.58,3.33,27.52,3.33,18.82,29.1,3.07,60.88,3.07Z"/><path class="cls-2" d="M60.88.5c30.16,0,54.6,6.3,54.6,14.08S91,28.66,60.88,28.66,6.29,22.36,6.29,14.58,30.73.5,60.88.5Z"/><path class="cls-3" d="M115.37,15.44a4.86,4.86,0,0,1,.11,1c0,9-24.44,16.34-54.6,16.34S6.29,25.46,6.29,16.44a5.65,5.65,0,0,1,.1-1c1.73,7.38,25.47,13.22,54.49,13.22s52.76-5.84,54.49-13.22Z"/><path class="cls-2" d="M60.88,2.17c27.88,0,50.48,5.27,50.48,11.77S88.76,25.7,60.88,25.7,10.4,20.43,10.4,13.94,33,2.17,60.88,2.17Z"/><path class="cls-3" d="M110.25,16.4c-4.87,5.32-25.12,9.3-49.37,9.3s-44.49-4-49.36-9.3c4.87-5.31,25.12-9.3,49.36-9.3s44.5,4,49.37,9.3Z"/><path class="cls-2" d="M115.5,50.17c-2.59,9.1-26,16.22-54.62,16.22s-52-7.12-54.61-16.22c7.61,7.15,29.18,12.32,54.61,12.32s47-5.17,54.62-12.32Z"/><path class="cls-2" d="M118.37,18h0c3.76,8.3,3.62,21.57-.81,29.59h0c-4.77,8.44-28.33,14.86-56.68,14.86-30.35,0-55.21-7.36-57.39-16.68h0C-1,36.89,0,27.09,3.41,18h0a4.56,4.56,0,0,0-.08.82c.1,13.27,51,16.4,57.55,15.76,31.79,0,57.56-7.06,57.56-15.76a5.14,5.14,0,0,0-.07-.78Z"/><path class="cls-4" d="M60.77,39.65a214.81,214.81,0,0,1-43.88-4.8C10,33,6.73,34.74,6.88,39.93c.27,6.69,4.06,9.62,9.2,11.18a175.59,175.59,0,0,0,44.69,5.41,175.48,175.48,0,0,0,44.69-5.41c5.14-1.56,8.93-4.49,9.2-11.18.15-5.19-3.12-6.94-10-5.08a214.81,214.81,0,0,1-43.88,4.8Z"/><g class="cls-5"><polygon class="cls-6" points="91.86 36.63 89.29 38.07 86.72 39.52 85.67 42.35 84.61 45.18 85.57 48.08 86.52 50.98 89.03 52.59 91.54 54.19 94.44 53.76 97.33 53.32 99.26 51.04 101.19 48.77 101.24 45.72 101.3 42.67 99.45 40.27 97.61 37.87 94.73 37.25 91.86 36.63 91.86 36.63"/><polygon class="cls-7" points="77.36 38.59 74.61 39.63 71.85 40.68 70.39 43.32 68.92 45.97 69.43 48.98 69.94 51.98 72.19 53.95 74.43 55.91 77.36 55.91 80.29 55.91 82.53 53.95 84.78 51.98 85.28 48.98 85.79 45.97 84.33 43.32 82.86 40.68 80.11 39.63 77.36 38.59 77.36 38.59"/><polygon class="cls-7" points="60.77 39.1 63.52 40.15 66.28 41.19 67.74 43.84 69.21 46.48 68.7 49.49 68.19 52.5 65.94 54.46 63.7 56.42 60.77 56.42 57.84 56.42 55.6 54.46 53.35 52.5 52.84 49.49 52.34 46.48 53.8 43.84 55.27 41.19 58.02 40.15 60.77 39.1 60.77 39.1"/><polygon class="cls-7" points="43.95 38.59 46.71 39.63 49.46 40.68 50.92 43.32 52.39 45.97 51.88 48.98 51.37 51.98 49.13 53.95 46.88 55.91 43.95 55.91 41.02 55.91 38.78 53.95 36.54 51.98 36.03 48.98 35.52 45.97 36.98 43.32 38.45 40.68 41.2 39.63 43.95 38.59 43.95 38.59"/><polygon class="cls-6" points="29.46 36.63 32.02 38.07 34.59 39.52 35.64 42.35 36.7 45.18 35.75 48.08 34.79 50.98 32.28 52.59 29.77 54.19 26.87 53.76 23.98 53.32 22.05 51.04 20.12 48.77 20.07 45.72 20.02 42.67 21.86 40.27 23.7 37.87 26.58 37.25 29.46 36.63 29.46 36.63"/></g><path class="cls-8" d="M60.77,39.65a214.81,214.81,0,0,1-43.88-4.8C10,33,6.73,34.74,6.88,39.93c.27,6.69,4.06,9.62,9.2,11.18a175.59,175.59,0,0,0,44.69,5.41,175.48,175.48,0,0,0,44.69-5.41c5.14-1.56,8.93-4.49,9.2-11.18.15-5.19-3.12-6.94-10-5.08a214.81,214.81,0,0,1-43.88,4.8Z"/></g></g></svg>