<svg xmlns="http://www.w3.org/2000/svg" viewBox="0 0 121.54 55"><defs><style>.cls-1,.cls-2,.cls-4,.cls-5,.cls-6,.cls-7,.cls-8,.cls-9{fill:#fff;fill-rule:evenodd;}.cls-2,.cls-3,.cls-4,.cls-5,.cls-6,.cls-7,.cls-8,.cls-9{stroke:#9d9d9d;}.cls-2,.cls-3,.cls-4{stroke-linecap:round;stroke-linejoin:round;}.cls-2,.cls-3{stroke-width:0.99px;}.cls-3{fill:none;}.cls-4,.cls-5{stroke-width:0.57px;}.cls-5,.cls-6,.cls-7,.cls-8,.cls-9{stroke-miterlimit:22.93;}.cls-6{stroke-width:0.57px;}.cls-7{stroke-width:0.57px;}.cls-8{stroke-width:0.57px;}.cls-9{stroke-width:0.57px;}</style></defs><title>Eternity</title><g id="Слой_2" data-name="Слой 2"><g id="Слой_1-2" data-name="Слой 1"><polygon class="cls-1" points="31.07 34.28 10.86 24.07 5.62 28.46 10 38.38 21.35 44.1 32.22 50.77 41.75 49.44 52.91 53.25 62.25 49.15 70.26 52.68 80.56 48.2 90.47 50.58 98.67 46 115.36 35.13 116.31 27.51 108.97 24.27 94.57 32.85 57.77 40.09 31.07 34.28 31.07 34.28"/><polygon class="cls-2" points="41.65 35.52 44.8 37 47.95 38.49 49.25 41.78 50.55 45.06 49.25 48.22 47.95 51.38 44.8 52.56 41.65 53.74 38.51 52.25 35.36 50.77 34.05 47.48 32.75 44.2 34.05 41.04 35.36 37.88 38.51 36.7 41.65 35.52 41.65 35.52"/><polygon class="cls-2" points="79.89 35.52 76.74 37 73.6 38.49 72.29 41.78 70.99 45.06 72.29 48.22 73.6 51.38 76.74 52.56 79.89 53.74 83.04 52.25 86.18 50.77 87.49 47.48 88.79 44.2 87.49 41.04 86.18 37.88 83.04 36.7 79.89 35.52 79.89 35.52"/><polygon class="cls-2" points="23.87 32.66 26.89 34.13 29.91 35.61 31.28 38.86 32.65 42.12 31.56 45.26 30.48 48.39 27.57 49.56 24.67 50.73 21.65 49.26 18.63 47.78 17.26 44.52 15.89 41.27 16.98 38.13 18.06 35 20.97 33.83 23.87 32.66 23.87 32.66"/><polygon class="cls-2" points="97.67 32.47 94.65 33.96 91.63 35.45 90.26 38.74 88.89 42.03 89.98 45.2 91.06 48.36 93.97 49.55 96.87 50.73 99.89 49.24 102.92 47.75 104.28 44.46 105.65 41.16 104.56 38 103.48 34.83 100.57 33.65 97.67 32.47 97.67 32.47"/><path class="cls-2" d="M18,36.48,17,39.28l-1.09,2.85,1.37,3-.74-1.6a3.86,3.86,0,0,0-.49-.06,2.94,2.94,0,0,0-3.2,1.77l-.76-.34L8.93,43.42,7.44,40.25,6,37.09,7,34l1-2.91.2-.19L11,29.86,13.38,29l.2.11a10.23,10.23,0,0,1,.95,3,4.26,4.26,0,0,0-2.47,2.27,4.13,4.13,0,0,0,.79,2.83,3.64,3.64,0,0,0,2.44,1.18,2.94,2.94,0,0,0,2.65-1.89l.1.06Z"/><path class="cls-2" d="M103.5,36.48l1.06,2.8,1.09,2.85-1.37,3,.74-1.6a4.1,4.1,0,0,1,.49-.06,2.93,2.93,0,0,1,3.2,1.77l.76-.34,3.14-1.44,1.49-3.17,1.48-3.16-1-3.05-1-2.91a1.7,1.7,0,0,1-.19-.19l-2.82-1.08L108.16,29l-.2.11a10.23,10.23,0,0,0-.95,3,4.26,4.26,0,0,1,2.47,2.27,4.13,4.13,0,0,1-.79,2.83,3.64,3.64,0,0,1-2.44,1.18,2.94,2.94,0,0,1-2.65-1.89l-.1.06Z"/><path class="cls-2" d="M3,20.93,1.83,24.08,1,30.5l1.35,4.72L5.07,36.8l1.16-.52L8,31.13a3.14,3.14,0,0,1-5-1.25c-1.3-3.8,2.73-4.49,5.45-5.1V23.73l0-.05V22.55l0-.05V22l0,0,0,0,0,0,0,0,0,0,0,0,0,0,0,0,0,0,0,0,0,0,0,0,0,0,0,0,0,0,0,0,0,0,0,0,0,0,0,0,0,0,0,0,0,0,0,0,0,0,0,0,0,0,0,0,0,0,0,0,0,0,0,0,0,0,0,0,0,0,0,0,0,0,0,0,0,0,0,0,0,0,0,0,0,0,0,0,0,0,0,0,0,0,0,0,0,0,0,0,0,0,0,0,0,0,0,0,0,0,0,0,0,0,0,0,0,0,0,0,0,0,0,0,0,0,0,0H6l0,0H5.43l0,0H4.91l0,0H4.39l0,0H3.92l0,0H3.39l0,0H3Z"/><path class="cls-2" d="M118.57,20.93l1.14,3.15.83,6.42-1.36,4.72-2.71,1.58-1.16-.52-1.77-5.15a3.14,3.14,0,0,0,5-1.25c1.3-3.8-2.73-4.49-5.45-5.1v-1l0,0V22.64l0-.05V22l0,0,0,0,0,0,0,0,0,0,0,0,0,0,0,0,0,0,0,0,0,0,0,0,0,0,0,0,0,0,0,0,0,0,0,0,0,0,0,0,0,0,0,0,0,0,0,0,0,0,0,0,0,0,0,0,0,0,0,0,0,0,0,0,0,0,0,0,0,0,0,0,0,0,0,0,0,0,0,0,0,0,0,0,0,0,0,0,0,0,0,0,0,0,0,0,0,0,0,0,0,0,0,0,0,0,0,0,0,0,0,0,0,0,0,0,0,0,0,0,0,0,0,0,0,0,0,0h0l0,0h.48l0,0h.47l.05,0h.47l0,0h.42l0,0h.48l0,0h.38Z"/><polygon class="cls-2" points="60.77 35.99 63.88 37.32 67 38.65 68.29 41.86 69.58 45.07 68.29 48.28 67 51.5 63.88 52.83 60.77 54.16 57.66 52.83 54.54 51.5 53.25 48.28 51.97 45.07 53.25 41.86 54.54 38.65 57.66 37.32 60.77 35.99 60.77 35.99"/><path class="cls-2" d="M60.77,19.68C46.56,19.35,34,21.59,23.35,26.79a2.72,2.72,0,0,1,1,1.57,6.5,6.5,0,0,1,4.25,1.46,8.63,8.63,0,0,1,6.81,2.12c1.82-.65,3.5,0,5.16.9A34.91,34.91,0,0,1,51.29,33.9a7,7,0,0,1,4.8.23,10.21,10.21,0,0,1,4.68-1,10.21,10.21,0,0,1,4.68,1,7,7,0,0,1,4.8-.23,34.91,34.91,0,0,1,10.69-1.06c1.66-.89,3.34-1.55,5.16-.9a8.63,8.63,0,0,1,6.81-2.12,6.5,6.5,0,0,1,4.25-1.46,2.72,2.72,0,0,1,1-1.57C87.54,21.59,75,19.35,60.77,19.68Zm0,17a30,30,0,0,0-6.54,2.89,9.55,9.55,0,0,1,.28,3.32A3,3,0,0,1,51,45.18a3.55,3.55,0,0,1-2.33-1.59c-1.2-1.68-.45-2.37.18-4.23a19.76,19.76,0,0,0-6.63-2.71,20.16,20.16,0,0,0-6.92,1.4c.07,2.24-.91,5.15-4.29,4.66-4.06-.59-3.58-2.9-2.25-5.27V36.31a11.52,11.52,0,0,0-5.3-3,12.79,12.79,0,0,0-5.31,1.31l.09.69a3.09,3.09,0,0,1-2.93,3,3.64,3.64,0,0,1-2.44-1.18,4.13,4.13,0,0,1-.79-2.83A4.26,4.26,0,0,1,14.53,32a10.23,10.23,0,0,0-.95-3,7,7,0,0,0-4.17-1A6.32,6.32,0,0,1,8.84,30,3.14,3.14,0,0,1,3,29.88c-1.3-3.8,2.73-4.49,5.45-5.1L7.8,22,6,20.23l-3,.7L1.83,24.08A2,2,0,0,1,.6,22.5a3.53,3.53,0,0,1,.09-2c1.89-1.88,4.48-2.64,7.68-2.45.47-1.11,1-2.21,1.42-3.32L6.1,14.64c.81-2.06,2.81-3,5.87-2.88A9.45,9.45,0,0,1,17.28,8.7c1.39-3.21,3.93-3.46,7-2.35,1.77-1.86,3.91-3.35,9-2,1.72-2.63,4.2-2.82,7.3-1C44,.73,47.94.49,52.43,2.33c2.47-2.31,5.22-2.58,8.34,0,3.12-2.58,5.87-2.31,8.34,0C73.6.49,77.57.73,81,3.29c3.1-1.77,5.58-1.58,7.3,1,5.09-1.34,7.24.15,9,2,3.08-1.11,5.62-.86,7,2.35a9.45,9.45,0,0,1,5.31,3.06c3.06-.09,5.06.82,5.88,2.88l-3.7.09c.47,1.11,1,2.21,1.42,3.32,3.2-.19,5.79.57,7.68,2.45a3.53,3.53,0,0,1,.09,2,2,2,0,0,1-1.23,1.58l-1.14-3.15-3-.7L113.74,22l-.66,2.8c2.72.61,6.75,1.3,5.45,5.1a3.14,3.14,0,0,1-5.83.1,6.32,6.32,0,0,1-.57-1.89,7,7,0,0,0-4.17,1,10.23,10.23,0,0,0-.95,3,4.26,4.26,0,0,1,2.47,2.27,4.13,4.13,0,0,1-.79,2.83,3.64,3.64,0,0,1-2.44,1.18,3.09,3.09,0,0,1-2.93-3l.09-.69a12.79,12.79,0,0,0-5.31-1.31,11.57,11.57,0,0,0-5.3,3v1.13c1.33,2.37,1.81,4.68-2.25,5.27-3.37.49-4.36-2.42-4.29-4.66a20.16,20.16,0,0,0-6.92-1.4,19.76,19.76,0,0,0-6.63,2.71c.63,1.86,1.38,2.55.18,4.23a3.55,3.55,0,0,1-2.33,1.59A3,3,0,0,1,67,42.86a9.55,9.55,0,0,1,.28-3.32,30,30,0,0,0-6.54-2.89Z"/><path class="cls-2" d="M31.29,52.53a5.75,5.75,0,0,0,4.62-1.27l-.64-.19c.49-1.89-1.85-3.12-3.06-3.43s-3.75-.32-4.28,1.5c-.33,2.12,1.05,3.07,3.36,3.39Z"/><path class="cls-2" d="M90.25,52.53a5.75,5.75,0,0,1-4.62-1.27l.64-.19c-.49-1.89,1.85-3.12,3.06-3.43s3.75-.32,4.28,1.5c.33,2.12-1,3.07-3.36,3.39Z"/><path class="cls-2" d="M16,43.43a3.86,3.86,0,0,1,.49.06l.74,1.6,1.22,2.64a3.59,3.59,0,0,1-2.45.69c-1.81-.13-3.27-1.34-3.27-2.72s1.46-2.39,3.27-2.27Z"/><path class="cls-2" d="M105.51,43.43a4.1,4.1,0,0,0-.49.06l-.74,1.6-1.22,2.64a3.59,3.59,0,0,0,2.45.69c1.81-.13,3.27-1.34,3.27-2.72s-1.46-2.39-3.27-2.27Z"/><path class="cls-2" d="M8.11,41.69A3.36,3.36,0,0,1,7,41.87,3,3,0,0,1,3.87,39a2.91,2.91,0,0,1,2.36-2.75L6,37.09l1.48,3.16.67,1.44Z"/><path class="cls-2" d="M113.43,41.69a3.36,3.36,0,0,0,1.11.18A3,3,0,0,0,117.67,39a2.91,2.91,0,0,0-2.36-2.75l.27.81-1.48,3.16-.67,1.44Z"/><path class="cls-2" d="M9.79,14.73,6.1,14.64,4.21,18.45a13.46,13.46,0,0,1,4.16-.4l1.42-3.32Z"/><path class="cls-2" d="M111.75,14.73l3.7-.09,1.88,3.81a13.46,13.46,0,0,0-4.16-.4l-1.42-3.32Z"/><path class="cls-3" d="M98.19,26.79A11.11,11.11,0,0,1,102,25.05c.12-1,.54-1.59,1.41-1.62A6.89,6.89,0,0,1,105,19.86a2.9,2.9,0,0,1-.92-2,6.91,6.91,0,0,1-2.74-2.73,3.82,3.82,0,0,1-2.19-1.88c-1.88-.94-3.92-1.72-5.7-2.72L89.33,8.83c-2.18-1.69-4.84-2.06-7.88-1.36a4.49,4.49,0,0,0-4.3-1A20.91,20.91,0,0,0,65,5.59c-1.41,0-2.69-.46-4.21-.48s-2.8.45-4.2.48a20.94,20.94,0,0,0-12.18.84,4.49,4.49,0,0,0-4.3,1c-3-.7-5.7-.33-7.88,1.36l-4.08,1.69c-1.78,1-3.82,1.78-5.7,2.72a3.83,3.83,0,0,1-2.18,1.88,7,7,0,0,1-2.75,2.73,2.9,2.9,0,0,1-.92,2,6.89,6.89,0,0,1,1.55,3.57c.87,0,1.29.63,1.41,1.62a11.11,11.11,0,0,1,3.81,1.74"/><path class="cls-2" d="M51.83,49.3c1.92.23,3.31,1.58,3.11,3S53,54.7,51.1,54.47s-3.31-1.57-3.11-3,1.92-2.4,3.84-2.17Z"/><path class="cls-2" d="M69.71,49.3c-1.92.23-3.31,1.58-3.11,3s1.92,2.4,3.84,2.17,3.32-1.57,3.11-3-1.92-2.4-3.84-2.17Z"/><path class="cls-4" d="M26.73,13.06c2.12,0,3.61,2.53,3.33,5.66s-2.24,5.65-4.36,5.65-3.62-2.53-3.33-5.65,2.24-5.66,4.36-5.66Z"/><path class="cls-5" d="M94.13,12.9c-2.13,0-3.62,2.53-3.33,5.65s2.23,5.66,4.36,5.66,3.61-2.54,3.33-5.66-2.24-5.65-4.36-5.65Z"/><path class="cls-6" d="M37.53,9.58c2.75,0,4.67,2.48,4.28,5.53s-2.94,5.52-5.7,5.52-4.67-2.47-4.27-5.52,2.94-5.53,5.69-5.53Z"/><path class="cls-7" d="M82.88,9.34c-2.75,0-4.67,2.47-4.27,5.52s2.94,5.53,5.69,5.53,4.67-2.48,4.28-5.53-2.94-5.52-5.7-5.52Z"/><path class="cls-8" d="M52,7.28c3.51-.15,6.35,2.2,6.35,5.25S55.53,18.15,52,18.29,45.68,16.08,45.68,13,48.52,7.42,52,7.28Z"/><path class="cls-8" d="M68.48,7.44C65,7.3,62.13,9.65,62.13,12.69s2.84,5.62,6.35,5.76,6.34-2.21,6.34-5.25S72,7.58,68.48,7.44Z"/><path class="cls-9" d="M19.41,19.16c1,0,1.77,1.75,1.77,3.9a7.34,7.34,0,0,1-.37,2.38,9.32,9.32,0,0,0-1.27-.39c-.11-1-.54-1.59-1.41-1.62a10.44,10.44,0,0,0-.4-1.58c.23-1.56.9-2.69,1.68-2.69Z"/><path class="cls-9" d="M102.06,19.16c-1,0-1.77,1.75-1.77,3.9a7.15,7.15,0,0,0,.38,2.4,8.88,8.88,0,0,1,1.33-.41c.12-1,.54-1.59,1.41-1.62a11.63,11.63,0,0,1,.35-1.44c-.21-1.63-.89-2.83-1.7-2.83Z"/></g></g></svg>