<svg xmlns="http://www.w3.org/2000/svg" viewBox="0 0 121.54 73.99"><defs><style>.cls-1{fill:#fff;stroke-width:0.99px;fill-rule:evenodd;}.cls-1,.cls-2,.cls-3,.cls-4,.cls-5,.cls-6{stroke:#9d9d9d;stroke-linejoin:round;}.cls-1,.cls-2,.cls-3,.cls-4,.cls-6{stroke-linecap:round;}.cls-2,.cls-3,.cls-4,.cls-5,.cls-6{fill:none;}.cls-2{stroke-width:0.57px;}.cls-3{stroke-width:0.57px;}.cls-4{stroke-width:0.79px;}.cls-5,.cls-6{stroke-width:0.57px;}</style></defs><title>Anniversary</title><g id="Слой_2" data-name="Слой 2"><g id="Слой_1-2" data-name="Слой 1"><path class="cls-1" d="M60.76.5c32.4,0,58.67,9.49,58.67,21,0,5.61-6.3,10.74-16.54,14.51-1.39,9.27-22.32,31.55-23.47,5.32a157.76,157.76,0,0,1-18.66,1.13c-4.23,0-8.36-.16-12.33-.46-6.65,3.74-24,6.24-21.18-3.29C12,34.89,2.08,28.59,2.08,21.47,2.08,9.88,28.35.5,60.76.5Zm9.15,31.28c-5.84-1-10.56-.77-14.13.72l-1.15,2.83c-.17,0-7.15-.42-9.84-.71a19.48,19.48,0,0,0-11.23-1.79C20.19,30,11.36,25.09,11.36,19.54c0-8.79,22.12-15.93,49.4-15.93s49.39,7.14,49.39,15.93c0,5-7.12,9.45-18.27,12.36A9.15,9.15,0,0,0,81.68,34c-1.86.28-3.77.52-5.75.73l-2.82-2.07-3.2-.85Z"/><path class="cls-1" d="M118.28,25.62c.07-.13.14-.25.2-.38l.06-.12.19-.4,0-.11c.06-.15.11-.29.16-.43l0-.08c.06-.16.1-.31.15-.46l0-.06c0-.16.08-.32.11-.48v0a4.37,4.37,0,0,0,.09-.5v0c0-.17,0-.34,0-.52h0c0-.18,0-.36,0-.53s0-.36,0-.53v0c0-.16,0-.32,0-.49v-.07c0-.15,0-.29-.08-.44l0-.12-.09-.39-.05-.16c3,5,2.23,11.57-.44,16.58C113,46.54,89.39,54.61,60.76,54.61,31.6,54.61,7.38,46.27,2.47,35.3c-2.23-5-3-11.21-.06-16.06l0,.16c0,.13-.07.26-.1.39l0,.12c0,.15-.05.29-.07.44v.07c0,.17,0,.33-.06.49v0c0,.17,0,.35,0,.53s0,.35,0,.53h0c0,.18,0,.35.06.52v0l.09.5v0a4.21,4.21,0,0,0,.12.48l0,.06c0,.15.09.3.14.46l0,.08c.05.14.11.28.17.43l0,.11c0,.13.12.26.18.4l.06.12.21.38c3.06,5.45,12,10.18,24.41,13.16-2.94,11.1,15.13,8,18.2,2.92,4.75.45,9.74.7,14.91.73a153.85,153.85,0,0,0,17.8-.9c2.86,24.57,23.69,6.72,25.19-5.74C111,33,116.1,29.48,118.28,25.62Z"/><path class="cls-1" d="M99.64,55.67c.28.68.55,1.35.83,2,1,.29,1.53.4,2.59.7,2.7.85,4.81-2.74,2.84-3.75-1.32-.59-2.07-1-3.39-1.59l-2.87,2.62Z"/><path class="cls-1" d="M95.41,36.9c5.82,0,10.24,5.14,9.88,11.47S99.92,59.84,94.11,59.84s-10.24-5.13-9.88-11.47S89.59,36.9,95.41,36.9Z"/><polyline class="cls-2" points="91.36 37.76 92.18 40.24 90.92 43.87 88.91 48.37 87.53 44.98 85.3 43.94"/><polyline class="cls-3" points="90.15 58.98 91.26 56.5 90.41 52.88 88.91 48.37 87.15 51.76 84.79 52.81"/><polyline class="cls-3" points="99.37 37.76 98.26 40.24 99.11 43.87 100.61 48.37 102.37 44.98 104.72 43.94"/><polyline class="cls-2" points="98.16 58.98 97.34 56.5 98.6 52.88 100.61 48.37 101.99 51.76 104.22 52.81"/><polyline class="cls-2" points="87.53 44.98 90.92 43.87 95.16 41.95 92.18 40.24"/><polyline class="cls-3" points="87.15 51.76 90.41 52.88 94.44 54.79 91.26 56.5"/><polyline class="cls-3" points="102.37 44.98 99.11 43.87 95.08 41.95 98.26 40.24"/><polyline class="cls-2" points="101.99 51.76 98.6 52.88 94.35 54.79 97.34 56.5"/><path class="cls-1" d="M30,58.45a14.06,14.06,0,0,1-3.34-6.54,14.68,14.68,0,0,0-2.56,4.45c-.62,1.66-1,4,.89,5.07,1.41.8,2.89,0,3.83-1.13A7.32,7.32,0,0,0,30,58.45Z"/><path class="cls-1" d="M35.45,39.8c-5.81,0-10.24,5.13-9.88,11.47s5.37,11.46,11.19,11.46S47,57.6,46.64,51.27,41.27,39.8,35.45,39.8Z"/><polyline class="cls-4" points="39.51 40.66 38.68 43.13 39.94 46.76 41.95 51.27 43.33 47.88 45.56 46.83"/><polyline class="cls-3" points="40.71 61.88 39.6 59.4 40.45 55.77 41.95 51.27 43.72 54.66 46.07 55.7"/><polyline class="cls-3" points="31.5 40.66 32.6 43.13 31.75 46.76 30.25 51.27 28.49 47.88 26.14 46.83"/><polyline class="cls-2" points="32.7 61.88 33.52 59.4 32.27 55.77 30.25 51.27 28.88 54.66 26.64 55.7"/><polyline class="cls-2" points="43.33 47.88 39.94 46.76 35.7 44.85 38.68 43.13"/><polyline class="cls-4" points="43.72 54.65 40.45 55.77 36.43 57.68 39.6 59.4"/><polyline class="cls-3" points="28.49 47.88 31.75 46.76 35.78 44.85 32.6 43.13"/><polyline class="cls-2" points="28.88 54.66 32.27 55.77 36.51 57.68 33.52 59.4"/><path class="cls-1" d="M60.76,3.61c27.28,0,49.39,7.14,49.39,15.93a6.93,6.93,0,0,1-2.25,4.77c-4.77-7.14-24.07-12.48-47.14-12.48S18.39,17.17,13.62,24.31a6.94,6.94,0,0,1-2.26-4.77c0-8.79,22.12-15.93,49.4-15.93Z"/><path class="cls-1" d="M48.91,52.33H47.05c-1.66,3.25-2.81,5.64-4.48,8.89-1.94,3.92,3.25,5.24,5.24,2.36.82-1.44,1.12-2,1.93-3.47-.28-2.59-.55-5.19-.83-7.78Z"/><path class="cls-1" d="M80.41,55.76l.18,2.47c1,.69,4,3.15,5,3.85C88.26,64,91.81,60.8,90,59l-5.59-5.09-4,1.84Z"/><path class="cls-1" d="M65.65,36.6A18.45,18.45,0,1,1,47.2,55.05,18.45,18.45,0,0,1,65.65,36.6Z"/><polyline class="cls-5" points="47.2 55.05 52.66 49.6 52.66 41.97 60.33 41.97 65.67 36.62"/><polyline class="cls-6" points="47.2 55.05 52.66 60.5 52.66 68.13 60.33 68.13 65.67 73.48"/><polyline class="cls-6" points="84.1 55.05 78.65 49.6 78.65 41.97 70.98 41.97 65.63 36.62"/><polyline class="cls-6" points="84.1 55.05 78.65 60.5 78.65 68.13 70.98 68.13 65.63 73.48"/><polyline class="cls-5" points="58.63 37.98 60.33 41.97 58.48 47.8 55.4 55.05 52.66 49.6 48.64 47.91"/><polyline class="cls-6" points="58.63 72.12 60.33 68.13 58.48 62.3 55.4 55.05 52.66 60.5 48.64 62.19"/><polyline class="cls-6" points="72.67 37.98 70.98 41.97 72.83 47.8 75.91 55.05 78.65 49.6 82.67 47.91"/><polyline class="cls-6" points="72.67 72.12 70.98 68.13 72.83 62.3 75.91 55.05 78.65 60.5 82.67 62.19"/><polyline class="cls-6" points="52.66 49.6 58.48 47.8 65.73 44.73 60.33 41.97"/><polyline class="cls-6" points="52.66 60.5 58.48 62.3 65.73 65.37 60.33 68.13"/><polyline class="cls-6" points="78.65 49.6 72.83 47.8 65.58 44.73 70.98 41.97"/><polyline class="cls-6" points="78.65 60.5 72.83 62.3 65.58 65.37 70.98 68.13"/><path class="cls-1" d="M50.94,66.18a16.27,16.27,0,0,1-2.65-4.87,30.54,30.54,0,0,0-1.36,6.49c0,2.63,1.51,3.68,3.75,3.83A5.72,5.72,0,0,0,54.48,70c1.16-1.52-.42-5.38-3.54-3.84Z"/><path class="cls-1" d="M81.25,64.9a17.37,17.37,0,0,0,2-4.29,22.43,22.43,0,0,1,2.09,4.51c.64,2.49.48,4.8-1.75,5.56a5.51,5.51,0,0,1-5.8-1.45,2.64,2.64,0,0,1-.42-3.08,3.24,3.24,0,0,1,3.88-1.25Z"/><path class="cls-1" d="M49.71,34.79l-1-1.4c-1.86-.21-3.22.06-3.83,1.09,0,.06,0,.12-.05.17L42,45.25c-.53,2.58.57,3.46,2.17,3.83,2.74.53,3.23-.85,3.61-3,.24-1.39.49-2.78.73-4.18q.63-3.54,1.25-7.09Z"/><path class="cls-1" d="M53.7,39.5c.64-3,1.29-5.77,2.07-6.94-1.29-1.13-2.67-1.83-4.24-1.45A3.17,3.17,0,0,0,48.42,34a33.84,33.84,0,0,0-1.24,8.7c.74,3,3.26,4.22,6,2.76s2.81-4.09.54-5.92Z"/><path class="cls-1" d="M32.09,33.5a1.53,1.53,0,0,1,1.45-.73c-.07-.66-.48-1.16-1.45-1.4a2.06,2.06,0,0,0-2,.72q-2.52,4.06-5.05,8.13c-1,1.61-1.71,2.22-1.26,4.28A2.25,2.25,0,0,0,26.59,46c1.3-.21,3.68-2.33,1.38-4.28Q30,37.62,32.09,33.5Z"/><path class="cls-1" d="M73.09,32.67A14.46,14.46,0,0,0,70,31.83c-.27-.8.24-1.46,1.86-1.9a10.67,10.67,0,0,1,3.5.26c4.36,1.9,7.65,4.25,9.76,7.09,1,1.73,1.11,3.12.4,4.26a8.8,8.8,0,0,1-2.84,2.7,3.8,3.8,0,0,1-4.48-.66A4.33,4.33,0,0,1,77,40.08a5.12,5.12,0,0,1,1.73-2.71,22.9,22.9,0,0,0-5.63-4.7Z"/><path class="cls-1" d="M88.81,31.15a13.87,13.87,0,0,1,3,.73l8.57,3.94c0,.76.08,1.52.11,2.28a2.51,2.51,0,0,0,2.27,2.4,3.65,3.65,0,0,0,2.8-.78c1.83-1.5.93-3.43-.45-4.7a24.8,24.8,0,0,0-5-3.07,59.93,59.93,0,0,0-5.61-2.64c-1.81-.57-5.44-.74-5.7,1.84Z"/></g></g></svg>