<svg xmlns="http://www.w3.org/2000/svg" viewBox="0 0 119.48 85.13"><defs><style>.cls-1,.cls-2,.cls-4{fill:#fff;fill-rule:evenodd;}.cls-1,.cls-2,.cls-3,.cls-4{stroke:#9d9d9d;}.cls-1,.cls-3,.cls-4{stroke-linecap:round;stroke-linejoin:round;}.cls-1,.cls-3{stroke-width:0.99px;}.cls-2{stroke-miterlimit:22.93;}.cls-2,.cls-4{stroke-width:0.57px;}.cls-3{fill:none;}</style></defs><title>Stackable</title><g id="Слой_2" data-name="Слой 2"><g id="Слой_1-2" data-name="Слой 1"><path class="cls-1" d="M7.22,62.57c-1.09-2.68-2.19-5.35-3.28-8L5.4,52.69c3.69,5.65,11.17,10.47,21.08,13.79h0a9.07,9.07,0,0,1,3.17,3,6.63,6.63,0,0,1,3.13-1.15l.17,0q3.13.77,6.5,1.35h.06a10.09,10.09,0,0,1,3.3,3.53c3.31-1.57,7.45-1.9,11.86-1.82a30.69,30.69,0,0,1,11.21,3.07,17.73,17.73,0,0,1,8.75-4.26A12,12,0,0,1,81,72.4l7.68-5.05q2.64-.73,5.1-1.61h0l4.2.08,2.89-3c9.25-4.48,15.47-10.39,16.93-16.95h0a6.76,6.76,0,0,1,.47,4.27q-2,5.6-4,11.2l-9.82,8.37L83.52,77.47,66.07,79.65l-27-1.49-13-3.78L13.68,69.1,7.22,62.57Z"/><path class="cls-1" d="M83.57,75.5C79,71.66,70.15,73,67.06,78.21c-9.36-4.06-17-4.24-26.93-.75-2.65-5.62-9.76-9.24-15.47-4.76-3.12-3.87-9.13-10.77-14.95-10,.43-2.86-1-7-3.87-8.11-1.1-.45-2.39-.4-3.18,1.44C.24,61.66,5.15,67.58,8.92,65c2.4,8.66,7,11.32,15.94,10.46.56,7.08,9.25,8.52,15.13,4.2,7.31,6.74,18,6.22,26.89,1.3C70.64,87.18,80.94,84.8,84,78.39c8.29,3.28,15-1,20.81-7.18,5.28,2.68,9.17-4,10-8.5a3.65,3.65,0,0,0,3.08-2.8c.11-3.27.23-6.53.35-9.8-3.26,1.21-4.8,5.64-4.68,8.77-5.12-.57-8.47,4.64-9.64,9.06C96.24,65.37,89,69.71,83.57,75.5Z"/><path class="cls-2" d="M31.82,73.88a3.38,3.38,0,0,1,3.1,3.29,2.87,2.87,0,0,1-3.47,2.43,3.37,3.37,0,0,1-3.09-3.3,2.87,2.87,0,0,1,3.46-2.42Z"/><path class="cls-2" d="M96,70.33c-2.1.58-3.89,2.32-4,3.9s1.52,2.39,3.62,1.82,3.89-2.32,4-3.9-1.52-2.4-3.62-1.82Z"/><path class="cls-2" d="M4.14,57.57A2.35,2.35,0,0,1,6.75,59.8,2.71,2.71,0,0,1,5,63a2.36,2.36,0,0,1-2.61-2.23,2.71,2.71,0,0,1,1.78-3.17Z"/><path class="cls-2" d="M14.43,65.67a3.15,3.15,0,0,1,2.86,3.12,2.7,2.7,0,0,1-2.47,3.11A3.15,3.15,0,0,1,12,68.79a2.7,2.7,0,0,1,2.47-3.12Z"/><path class="cls-2" d="M53.64,76.79A3.12,3.12,0,0,1,57,80a3.65,3.65,0,0,1-3.74,3.18A3.13,3.13,0,0,1,49.9,80a3.65,3.65,0,0,1,3.74-3.18Z"/><path class="cls-2" d="M75.61,75.87c1.91-.13,3.37,1.12,3.26,2.79a3.83,3.83,0,0,1-3.65,3.25c-1.91.12-3.36-1.12-3.26-2.79a3.83,3.83,0,0,1,3.65-3.25Z"/><path class="cls-2" d="M110.52,61.83a2.25,2.25,0,0,1,2.73,2.4,3.71,3.71,0,0,1-3.1,3.24,2.25,2.25,0,0,1-2.73-2.4,3.7,3.7,0,0,1,3.1-3.24Z"/><path class="cls-2" d="M118,53.34c.84,0,1.36,1.2,1.18,2.68s-1,2.68-1.84,2.68S116,57.5,116.14,56s1-2.68,1.84-2.68Z"/><path class="cls-1" d="M116.16,27.09A14.29,14.29,0,0,1,118,34.86C117,50.08,90.7,62.41,59.27,62.41S3.17,50.08,4.15,34.86a15.71,15.71,0,0,1,2.79-7.77,14.35,14.35,0,0,0-.65,3.47c-1,15.22,22.86,27.56,53.26,27.56s55.83-12.34,56.82-27.56a14.37,14.37,0,0,0-.21-3.47Z"/><path class="cls-1" d="M117.3,38.25a13.45,13.45,0,0,1,.79,5.48C117.11,59,90.52,71.29,58.7,71.29S1.88,59,2.86,43.73a14.44,14.44,0,0,1,1.5-5.48C6.93,51.87,30.21,62.41,59.27,62.41s53.7-10.54,58-24.16Z"/><path class="cls-2" d="M4.65,42.57a1.8,1.8,0,0,1,1.63,2,1.93,1.93,0,0,1-1.74,2,1.81,1.81,0,0,1-1.63-2,1.92,1.92,0,0,1,1.74-2Z"/><path class="cls-2" d="M115.07,44.86a1.71,1.71,0,0,1,1.48,2,2,2,0,0,1-1.74,2,1.72,1.72,0,0,1-1.49-2,2,2,0,0,1,1.75-2Z"/><path class="cls-1" d="M51.4,54.39c3.88,6.66,12.81,6,17.44-.16C74,60,80.27,59.43,85.47,53.16c4.8,5,10.92,2.67,14.4-3.12,4.17,3.1,9.37,1.33,10.58-4,7.35,1,9.7-7.62,7-12.45,1.52-2.09,2-6.68-.16-8.2.27-3.18-.59-6.16-4-6.76-1.12-4.94-4.3-6.68-9.31-6C101.8,6.72,97.32,4.94,91.41,7.7,87.69,2.76,82,.87,76.18,4.69,72.31,0,66.18-.94,61.07,3.42,55.37-.1,50.13-1.28,45,4.69,40.24,1.6,35.16,1.47,31,6.42a3.18,3.18,0,0,1-1.57,1.15c-4.71-2.64-9.45-1.37-12,3.92-4.44-.83-8.77,1.44-9.4,6.34a5.59,5.59,0,0,0-3.77,1.26,7.88,7.88,0,0,0-1.8,6.46c-2,2.89-2.19,7.57,1,9.33-1.42,5.74.48,9.81,6.82,8.65,1.24,5.79,5.58,7.34,11.07,5.18,2.27,7.69,7.76,7.15,14.13,4.27,3.87,6.24,10.36,7.27,15.89,1.41Zm-9-21.85c-5.81,5.1-11.82,7.25-18,6.59A9.28,9.28,0,0,1,27.53,42c4.57-1.41,7.82-.31,10.15,2.53a3.07,3.07,0,0,0,3.48,1.1c4.88-2.3,8.12-1.16,10.55,1.69a3.16,3.16,0,0,0,3.63.09c3.06-1.41,5.85-3.4,11.39.34a2.44,2.44,0,0,0,3.14-.17c3.91-2.62,8-3.41,12.33-1,3.68-2.09,6.56-5.64,12.64-3.38a10.68,10.68,0,0,1,3-2.79c-3.13-.58-5.15-2.77-6.93-5.33C86,37.53,81.55,36.64,77.5,31.52a26.57,26.57,0,0,1-21-.68c-4.63,4.35-9.32,5.08-14.06,1.7Z"/><path class="cls-3" d="M6.06,18.12c.63,2.4-.6,5.17-2.93,7.16,2,1.58,2.22,4.5,1.77,7.92,4.23-2.49,6.21,3.43,5.79,7,5.11-3.21,9,.86,11.07,5.16,6.08-2.32,10.81,0,14.07,5,5.52-4.34,12.09-3.73,15.84,1.8,5.43-4.57,12.16-5.68,17,0,3.8-3.4,11.71-7.21,16.88-1.32,2.64-4.21,10.6-8.86,14-3.48,1.55-4,6.33-9.49,10.59-6.12a9.93,9.93,0,0,1,6.85-7.68c-1.31-1.94-1.52-6.14.29-8a19.83,19.83,0,0,1-4-6.87M24.41,39.13a9.15,9.15,0,0,0-6.27-1.94,6.8,6.8,0,0,0-4.45-5.89,9.37,9.37,0,0,0-.95-5.3c.58-3.26,1.58-5.59,3.55-5.77.59-4.19,3.31-6.44,7.41-5.3,2-4.6,6.62-6.19,10.73-3.89,2.59-5.36,8.82-5,13-2.46,4.39-5.31,10.42-3.46,14-1.07C66,4.18,70.94,5.14,74.5,8.81c5.25-2.29,9.3-1.23,12.64,3.06,4.11-2.67,8.2.23,9.88,3.89,4.29-1.56,6.44,2,6.57,5.77,3.77-1.14,3.84,4,3.12,6.47l1.21-.59A7.82,7.82,0,0,0,107,32.6c-1.78,1.17-3.54,3.06-3.17,5.3l-6,2.5M13.6,28.56c1.27-.57,2.27-2.34,3-5.34,1.43,1.3,3.59-.37,7.12-5.34,3.27,1.67,7,.35,10.8-4.39,3.47,2.27,7.84,2.22,12.63-2.16,4.55,2.6,8.76,2.3,13.48-.63,4.47,3.21,8.9,3.41,13.28.72,2.88,3.41,6.62,5.15,12.11,3.51,3.26,4.05,6.63,5.19,10.08,4.24C98.54,24,100.78,25,103,24.84c.1,2.06,1.52,3.82,3.76,3.16m-93,3.3c18.17-23,79.88-22,93.31,1.3M18.14,37.19c10.63-21.47,78.27-21.14,85.69.71m-80.13.75c3.21-7.77,11.16-11.69,18.56-8,3.34-5.93,9.94-6.42,14.17-1.93,6.27-4.53,15.14-5.5,21.1,1.16,5-4.62,11.22-1.76,13.93,3.27,5.59-2.23,10.07,1.25,12.37,4.72"/><path class="cls-2" d="M60.29,51a3,3,0,0,1,3.18,3.09,3.51,3.51,0,0,1-3.58,3.1,3,3,0,0,1-3.18-3.1A3.51,3.51,0,0,1,60.29,51Z"/><path class="cls-2" d="M78.57,50.1A2.7,2.7,0,0,1,81.43,53a3.51,3.51,0,0,1-3.5,3,2.7,2.7,0,0,1-2.85-3,3.5,3.5,0,0,1,3.49-2.94Z"/><path class="cls-2" d="M94.28,47.44c1.68-.32,2.9.65,2.73,2.17a4.2,4.2,0,0,1-3.33,3.33c-1.67.32-2.89-.65-2.73-2.17a4.23,4.23,0,0,1,3.33-3.33Z"/><path class="cls-2" d="M107.5,42.89a1.9,1.9,0,0,1,2.29,2.27,3.8,3.8,0,0,1-2.85,3.22,1.9,1.9,0,0,1-2.3-2.27,3.81,3.81,0,0,1,2.86-3.22Z"/><path class="cls-2" d="M116.27,37.09a1.81,1.81,0,0,1,2.17,2.15,3.61,3.61,0,0,1-2.7,3,1.8,1.8,0,0,1-2.17-2.14,3.62,3.62,0,0,1,2.7-3Z"/><path class="cls-2" d="M43.45,50.3a3.05,3.05,0,0,1,3,3,3,3,0,0,1-3.38,2.55,3.05,3.05,0,0,1-3-3,3,3,0,0,1,3.38-2.55Z"/><path class="cls-2" d="M27.78,47.25a2.8,2.8,0,0,1,2.73,2.81,2.73,2.73,0,0,1-3.07,2.38,2.8,2.8,0,0,1-2.73-2.81,2.74,2.74,0,0,1,3.07-2.38Z"/><path class="cls-2" d="M14.89,42.11a2.72,2.72,0,0,1,2.55,2.81,2.61,2.61,0,0,1-2.88,2.38A2.7,2.7,0,0,1,12,44.49a2.61,2.61,0,0,1,2.87-2.38Z"/><path class="cls-4" d="M6.9,35.56a2.59,2.59,0,0,1,2.25,2.81,2.44,2.44,0,0,1-2.58,2.38,2.6,2.6,0,0,1-2.25-2.81A2.44,2.44,0,0,1,6.9,35.56Z"/><path class="cls-2" d="M1.81,28c.8,0,1.42,1,1.38,2.31s-.72,2.32-1.52,2.32-1.42-1-1.38-2.32S1,28,1.81,28Z"/><path class="cls-2" d="M57.79,64a2.87,2.87,0,0,1,3,3,3.36,3.36,0,0,1-3.38,3,2.87,2.87,0,0,1-3-3,3.36,3.36,0,0,1,3.38-3Z"/><path class="cls-2" d="M66.62,63.74a2.87,2.87,0,0,1,3,3,3.37,3.37,0,0,1-3.38,3,2.88,2.88,0,0,1-3-3,3.36,3.36,0,0,1,3.38-3Z"/><path class="cls-2" d="M48.94,63.6a2.89,2.89,0,0,1,3,3,3.37,3.37,0,0,1-3.39,3,2.87,2.87,0,0,1-3-3,3.37,3.37,0,0,1,3.38-3Z"/><path class="cls-2" d="M75.83,62.93a2.87,2.87,0,0,1,3,3,3.36,3.36,0,0,1-3.38,3,2.87,2.87,0,0,1-3-3,3.35,3.35,0,0,1,3.38-3Z"/><path class="cls-2" d="M40.49,62.38a2.87,2.87,0,0,1,3,3,3.37,3.37,0,0,1-3.38,3,2.88,2.88,0,0,1-3-3,3.36,3.36,0,0,1,3.38-3Z"/><path class="cls-2" d="M84.68,61.23a2.87,2.87,0,0,1,3,3,3.36,3.36,0,0,1-3.38,3,2.87,2.87,0,0,1-3-3,3.36,3.36,0,0,1,3.38-3Z"/><path class="cls-2" d="M32.33,60.89a2.88,2.88,0,0,1,3,3,3.37,3.37,0,0,1-3.38,3,2.89,2.89,0,0,1-3-3,3.37,3.37,0,0,1,3.39-3Z"/><path class="cls-2" d="M93.12,58.72a2.79,2.79,0,0,1,2.79,3,3.26,3.26,0,0,1-3.18,3,2.78,2.78,0,0,1-2.79-3,3.25,3.25,0,0,1,3.18-3Z"/><path class="cls-2" d="M24.72,58.31a2.93,2.93,0,0,1,2.92,3,3.07,3.07,0,0,1-3,3,2.92,2.92,0,0,1-2.92-3,3.07,3.07,0,0,1,3-3Z"/><path class="cls-2" d="M17.82,55.13a2.84,2.84,0,0,1,2.79,2.95,3,3,0,0,1-2.91,3,2.83,2.83,0,0,1-2.78-3,3,3,0,0,1,2.9-2.95Z"/><path class="cls-2" d="M11.68,51.63a2.48,2.48,0,0,1,2.38,2.63,2.62,2.62,0,0,1-2.5,2.63,2.47,2.47,0,0,1-2.38-2.63,2.61,2.61,0,0,1,2.5-2.63Z"/><path class="cls-2" d="M7.32,47.4a2.11,2.11,0,0,1,1.9,2.33,2.24,2.24,0,0,1-2,2.33,2.09,2.09,0,0,1-1.9-2.33,2.23,2.23,0,0,1,2-2.33Z"/><path class="cls-2" d="M99.94,56a2.63,2.63,0,0,1,2.67,2.84,3.09,3.09,0,0,1-3,2.85,2.63,2.63,0,0,1-2.66-2.85,3.08,3.08,0,0,1,3-2.84Z"/><path class="cls-2" d="M106.27,52.61a2.4,2.4,0,0,1,2.31,2.68A2.8,2.8,0,0,1,105.93,58a2.4,2.4,0,0,1-2.31-2.67,2.81,2.81,0,0,1,2.65-2.68Z"/><path class="cls-2" d="M111.51,48.85a2.18,2.18,0,0,1,2,2.49,2.53,2.53,0,0,1-2.32,2.49,2.17,2.17,0,0,1-2-2.49,2.54,2.54,0,0,1,2.33-2.49Z"/></g></g></svg>