<svg id="Слой_1" data-name="Слой 1" xmlns="http://www.w3.org/2000/svg" viewBox="0 0 52.16 52.16"><defs><style>.cls-1{fill:none;stroke:#201600;stroke-linecap:round;stroke-linejoin:round;stroke-width:1.42px;}</style></defs><title>diamond size_2</title><path class="cls-1" d="M297.08,396.6A25.37,25.37,0,1,1,271.71,422a25.37,25.37,0,0,1,25.37-25.37ZM271.71,422l7.49-7.5V404h10.55l7.36-7.35M271.71,422l7.49,7.49V440h10.55l7.36,7.35M322.45,422l-7.5-7.5V404H304.4l-7.35-7.35M322.45,422l-7.5,7.49V440H304.4l-7.35,7.35m-9.62-48.81,2.32,5.48-2.53,8L283,422l-3.78-7.49-5.52-2.32m13.75,33.29,2.32-5.48-2.53-8L283,422l-3.78,7.49-5.52,2.32m33.05-33.28L304.4,404l2.54,8,4.23,10,3.78-7.49,5.53-2.32m-13.75,33.29L304.4,440l2.54-8,4.23-10,3.78,7.49,5.53,2.32M279.2,414.47l8-2.47,10-4.23L289.75,404M279.2,429.46l8,2.47,10,4.24L289.75,440M315,414.47l-8-2.47-10-4.23L304.4,404M315,429.46l-8,2.47-10,4.24L304.4,440" transform="translate(-271 -395.89)"/></svg>