<svg xmlns="http://www.w3.org/2000/svg" viewBox="0 0 121.54 67.45"><defs><style>.cls-1,.cls-2{fill:#fff;fill-rule:evenodd;}.cls-1,.cls-2,.cls-3{stroke:#9d9d9d;stroke-linecap:round;stroke-linejoin:round;}.cls-1{stroke-width:0.99px;}.cls-2,.cls-3{stroke-width:0.57px;}.cls-3{fill:none;}</style></defs><title>Channel_02</title><g id="Слой_2" data-name="Слой 2"><g id="Слой_1-2" data-name="Слой 1"><path class="cls-1" d="M60.77.5C94.06.5,121,7.79,121,16.79s-27,16.29-60.27,16.29S.5,25.78.5,16.79,27.48.5,60.77.5Zm0,1.82c27.23,0,49.31,5.3,49.31,11.84S88,26,60.77,26,11.46,20.7,11.46,14.16,33.54,2.32,60.77,2.32Z"/><path class="cls-1" d="M60.77,2.32c27.23,0,49.31,5.3,49.31,11.84,0,3-4.52,5.67-12,7.74-8.73-2.72-22.2-4.47-37.31-4.47S32.19,19.18,23.46,21.9c-7.48-2.07-12-4.78-12-7.74,0-6.54,22.08-11.84,49.31-11.84Z"/><path class="cls-1" d="M121,16.79v15h0c0,10.36-27,18.75-60.27,18.75S.5,42.15.5,31.79v-15c0,9,27,16.29,60.27,16.29S121,25.78,121,16.79Z"/><path class="cls-2" d="M56.32,32l4.45-3.53a248.84,248.84,0,0,1-35.59-2.88c-1.69-.24-1.73,1-.38,1.34a153.76,153.76,0,0,0,21.58,4.42l9.94.65Z"/><path class="cls-2" d="M65.22,32l-4.45-3.53a248.84,248.84,0,0,0,35.59-2.88c1.69-.24,1.73,1,.38,1.34a153.62,153.62,0,0,1-21.57,4.42l-10,.65Z"/><path class="cls-2" d="M44.22,42.34,43,38.54a2.66,2.66,0,0,0-2.18-1.62c-13.18-2.6-24.86-5.36-33-8.59-.79-.23-1.59.11-1.5.76,0,2.35,0,4.73,0,7,0,1,.33,1.32,1.12,1.6,10.34,4.66,21.61,6.8,33,8.64,1.26-1.6,2.46-2.44,3.73-4Z"/><path class="cls-2" d="M77.25,42.34c.39-1.27.79-2.53,1.18-3.8a2.68,2.68,0,0,1,2.18-1.62c13.18-2.6,24.86-5.36,33-8.59.8-.23,1.6.11,1.5.76,0,2.35,0,4.73,0,7,0,1-.32,1.32-1.12,1.6-10.34,4.66-21.61,6.8-33,8.64-1.27-1.6-2.47-2.44-3.73-4Z"/><polygon class="cls-2" points="10.25 29.74 11.33 30.15 12.4 30.56 13.07 31.64 13.73 32.71 13.73 34.04 13.73 35.37 13.07 36.45 12.4 37.52 11.33 37.94 10.25 38.35 9.18 37.94 8.1 37.52 7.43 36.45 6.77 35.37 6.77 34.04 6.77 32.71 7.43 31.64 8.1 30.56 9.18 30.15 10.25 29.74 10.25 29.74"/><polygon class="cls-2" points="111.21 29.74 110.14 30.15 109.06 30.56 108.39 31.64 107.73 32.71 107.73 34.04 107.73 35.37 108.39 36.45 109.06 37.52 110.14 37.94 111.21 38.35 112.29 37.94 113.36 37.52 114.03 36.45 114.69 35.37 114.69 34.04 114.69 32.71 114.03 31.64 113.36 30.56 112.29 30.15 111.21 29.74 111.21 29.74"/><polygon class="cls-2" points="16.39 31.8 17.5 32.22 18.6 32.64 19.29 33.75 19.97 34.86 19.97 36.23 19.97 37.6 19.29 38.7 18.6 39.81 17.5 40.23 16.39 40.66 15.28 40.23 14.17 39.81 13.49 38.7 12.8 37.6 12.8 36.23 12.8 34.86 13.49 33.75 14.17 32.64 15.28 32.22 16.39 31.8 16.39 31.8"/><polygon class="cls-2" points="105.08 31.8 103.97 32.22 102.86 32.64 102.17 33.75 101.49 34.86 101.49 36.23 101.49 37.6 102.17 38.7 102.86 39.81 103.97 40.23 105.08 40.66 106.18 40.23 107.29 39.81 107.97 38.7 108.66 37.6 108.66 36.23 108.66 34.86 107.97 33.75 107.29 32.64 106.18 32.22 105.08 31.8 105.08 31.8"/><polygon class="cls-2" points="23.06 33.21 24.32 33.66 25.59 34.1 26.37 35.28 27.15 36.45 27.15 37.9 27.15 39.34 26.37 40.52 25.59 41.69 24.32 42.14 23.06 42.58 21.8 42.14 20.53 41.69 19.75 40.52 18.97 39.34 18.97 37.9 18.97 36.45 19.75 35.28 20.53 34.1 21.8 33.66 23.06 33.21 23.06 33.21"/><polygon class="cls-2" points="98.4 33.21 97.14 33.66 95.88 34.1 95.09 35.28 94.31 36.45 94.31 37.9 94.31 39.34 95.09 40.52 95.88 41.69 97.14 42.14 98.4 42.58 99.67 42.14 100.93 41.69 101.72 40.52 102.5 39.34 102.5 37.9 102.5 36.45 101.72 35.28 100.93 34.1 99.67 33.66 98.4 33.21 98.4 33.21"/><polygon class="cls-2" points="30.41 34.81 31.68 35.27 32.96 35.72 33.75 36.9 34.53 38.08 34.53 39.54 34.53 41 33.75 42.18 32.96 43.36 31.68 43.81 30.41 44.26 29.14 43.81 27.86 43.36 27.07 42.18 26.29 41 26.29 39.54 26.29 38.08 27.07 36.9 27.86 35.72 29.14 35.27 30.41 34.81 30.41 34.81"/><polygon class="cls-2" points="91.05 34.81 89.78 35.27 88.5 35.72 87.72 36.9 86.93 38.08 86.93 39.54 86.93 41 87.72 42.18 88.5 43.36 89.78 43.81 91.05 44.26 92.33 43.81 93.6 43.36 94.39 42.18 95.18 41 95.18 39.54 95.18 38.08 94.39 36.9 93.6 35.72 92.33 35.27 91.05 34.81 91.05 34.81"/><polygon class="cls-2" points="38.18 36.42 39.45 36.87 40.73 37.32 41.52 38.5 42.3 39.68 42.3 41.14 42.3 42.6 41.52 43.78 40.73 44.97 39.45 45.42 38.18 45.87 36.9 45.42 35.63 44.97 34.84 43.78 34.05 42.6 34.05 41.14 34.05 39.68 34.84 38.5 35.63 37.32 36.9 36.87 38.18 36.42 38.18 36.42"/><polygon class="cls-2" points="83.28 36.42 82.01 36.87 80.74 37.32 79.95 38.5 79.16 39.68 79.16 41.14 79.16 42.6 79.95 43.78 80.74 44.97 82.01 45.42 83.28 45.87 84.56 45.42 85.83 44.97 86.62 43.78 87.41 42.6 87.41 41.14 87.41 39.68 86.62 38.5 85.83 37.32 84.56 36.87 83.28 36.42 83.28 36.42"/><path class="cls-1" d="M60.77,25.74A20.61,20.61,0,1,1,40.16,46.35,20.61,20.61,0,0,1,60.77,25.74Z"/><path class="cls-3" d="M40.16,46.35l6.09-6.09V31.74h8.57l6-6M40.16,46.35l6.09,6.09V61h8.57l6,6M81.38,46.35l-6.09-6.09V31.74H66.72l-6-6M81.38,46.35l-6.09,6.09V61H66.72l-6,6M52.93,27.29l1.89,4.45-2.06,6.51-3.44,8.1-3.07-6.09-4.49-1.88m11.17,27L54.82,61l-2.06-6.52-3.44-8.09-3.07,6.09-4.49,1.88m26.85-27-1.89,4.45,2.06,6.51,3.44,8.1,3.07-6.09,4.49-1.88m-11.17,27L66.72,61l2.06-6.52,3.44-8.09,3.07,6.09,4.49,1.88M46.25,40.26l6.51-2,8.09-3.43-6-3.08m-8.57,20.7,6.51,2,8.09,3.44-6,3.08m20.47-20.7-6.51-2-8.09-3.43,6-3.08m8.57,20.7-6.51,2-8.09,3.44,6,3.08"/><path class="cls-1" d="M46.89,31.13a19.46,19.46,0,0,1,5.47-3.6c-2.29-.52-5.68-.6-7.87,1.34-1.42,1.27-2.47,3-1.36,4.35a3.48,3.48,0,0,0,1.08.88,2.18,2.18,0,0,0,2.68-3Z"/><path class="cls-1" d="M75.07,31.51a20.64,20.64,0,0,0-4.42-3.25A10,10,0,0,1,76,28.09a7.54,7.54,0,0,1,2.78,2.17A1.89,1.89,0,0,1,79,32.68c-.4.6-.84,1.36-1.54,1.52-1.8.42-2.81-.71-2.35-2.69Z"/><path class="cls-1" d="M44.66,59.2a20.44,20.44,0,0,1-1.2-1.66A8.1,8.1,0,0,0,43,59.17c-.22,1.17-.44,2.55.51,3.42,1.29,1.18,2.61.31,3.48-.94.34-.49.39-1.17-.43-2.12a1.41,1.41,0,0,0-1.88-.33Z"/><path class="cls-1" d="M75.3,59.8c-.79.63-.79,1.18-.56,1.7a3.71,3.71,0,0,0,2.51,1.83c1,.19,2.08-.95,2-2a6.91,6.91,0,0,0-1.15-3.83,12.63,12.63,0,0,1-1.39,1.92,1.18,1.18,0,0,0-1.43.42Z"/></g></g></svg>