<svg xmlns="http://www.w3.org/2000/svg" viewBox="0 0 121.54 58.35"><defs><style>.cls-1,.cls-2{fill:#fff;fill-rule:evenodd;}.cls-1,.cls-2,.cls-3,.cls-4{stroke:#9d9d9d;stroke-linecap:round;stroke-linejoin:round;}.cls-1,.cls-3{stroke-width:0.99px;}.cls-2,.cls-4{stroke-width:0.57px;}.cls-3,.cls-4{fill:none;}</style></defs><title>Halo_02</title><g id="Слой_2" data-name="Слой 2"><g id="Слой_1-2" data-name="Слой 1"><path class="cls-1" d="M43.06,30.78l-6.48,1.38C33,33.05,4.64,28,2.41,24.36S-.83,13.11,3.69,10.61C12,6.05,39.83,4.76,50.45,4.41H60.77q-2,8.43-4.07,16.85L43.06,30.78Z"/><path class="cls-1" d="M78.48,30.78,85,32.16c3.61.89,31.94-4.17,34.17-7.8s3.24-11.25-1.28-13.75c-8.27-4.56-36.14-5.85-46.76-6.2H60.77q2,8.43,4.07,16.85l13.64,9.52Z"/><path class="cls-2" d="M92.85,21.13c-2,0-3.56,2-3.56,4.43S90.89,30,92.85,30s3.56-2,3.56-4.43-1.59-4.43-3.56-4.43Z"/><path class="cls-2" d="M20.21,20.34c1.62,0,2.94,1.83,2.94,4.09s-1.32,4.09-2.94,4.09-2.94-1.83-2.94-4.09,1.32-4.09,2.94-4.09Z"/><path class="cls-2" d="M101.33,20.34c-1.62,0-2.94,1.83-2.94,4.09s1.32,4.09,2.94,4.09,2.94-1.83,2.94-4.09-1.31-4.09-2.94-4.09Z"/><path class="cls-2" d="M13.31,19.37c1.29,0,2.33,1.74,2.33,3.89s-1,3.89-2.33,3.89S11,25.41,11,23.26s1-3.89,2.33-3.89Z"/><path class="cls-2" d="M108.23,19.37c-1.28,0-2.33,1.74-2.33,3.89s1,3.89,2.33,3.89,2.33-1.74,2.33-3.89-1-3.89-2.33-3.89Z"/><path class="cls-2" d="M7.9,17.76c1,0,1.83,1.7,1.83,3.8s-.82,3.8-1.84,3.8-1.83-1.7-1.83-3.8.82-3.8,1.84-3.8Z"/><path class="cls-2" d="M113.84,18.06c-1,0-1.87,1.7-1.93,3.8s.73,3.8,1.74,3.8,1.88-1.7,1.93-3.8-.73-3.8-1.74-3.8Z"/><path class="cls-2" d="M3.2,16.55c.76,0,1.47,1.36,1.6,3.05s-.4,3.06-1.16,3.06S2.17,21.29,2.05,19.6s.39-3.05,1.15-3.05Z"/><path class="cls-2" d="M118.39,16.56c-.76,0-1.45,1.37-1.54,3.06s.44,3.06,1.2,3.06,1.45-1.37,1.54-3.06-.44-3.06-1.2-3.06Z"/><path class="cls-3" d="M47.45,6.8a204,204,0,0,0-26.6,1.78c-13.66,2.18-9.88,5.77.85,7.56a133.43,133.43,0,0,0,15.57,1.43M74.09,6.8A204.18,204.18,0,0,1,100.7,8.58c13.65,2.18,9.87,5.77-.85,7.56a133.83,133.83,0,0,1-15.58,1.43M4.85,10.05c-6.71,4.83,11,8.18,13.67,8.56a173.09,173.09,0,0,0,19,1.45m79.2-10c6.7,4.83-11,8.18-13.68,8.56a172.91,172.91,0,0,1-19,1.45"/><path class="cls-1" d="M61.08.5A28.68,28.68,0,1,1,32.4,29.18,28.68,28.68,0,0,1,61.08.5Z"/><path class="cls-1" d="M61.08,9.42A19.76,19.76,0,1,1,41.32,29.18,19.76,19.76,0,0,1,61.08,9.42Z"/><path class="cls-2" d="M28.69,21.13c2,0,3.56,2,3.56,4.43S30.65,30,28.69,30s-3.56-2-3.56-4.43,1.59-4.43,3.56-4.43Z"/><path class="cls-2" d="M61.08,11A18.15,18.15,0,1,1,42.93,29.18,18.15,18.15,0,0,1,61.08,11Z"/><path class="cls-4" d="M42.93,29.18l5.36-5.36V16.31h7.55l5.26-5.26M42.93,29.18l5.36,5.36V42h7.55L61.1,47.3M79.23,29.18l-5.36-5.36V16.31H66.32l-5.26-5.26M79.23,29.18l-5.36,5.36V42H66.32L61.06,47.3M54.17,12.39l1.67,3.92L54,22.05l-3,7.12-2.71-5.35-3.95-1.67M54.17,46,55.84,42,54,36.3l-3-7.12-2.71,5.36L44.34,36.2M68,12.39l-1.66,3.92,1.81,5.74,3,7.12,2.71-5.35,3.95-1.67M68,46,66.32,42l1.81-5.74,3-7.12,2.71,5.36,3.95,1.66M48.29,23.82,54,22.05l7.13-3-5.31-2.71M48.29,34.54,54,36.3l7.13,3L55.84,42m18-18.22-5.74-1.77L61,19l5.31-2.71m7.55,18.23L68.13,36.3l-7.12,3L66.32,42"/><path class="cls-2" d="M61,1.85a3.38,3.38,0,1,1-3.38,3.38A3.38,3.38,0,0,1,61,1.85Z"/><path class="cls-2" d="M71.38,3.92A3.38,3.38,0,1,1,67,5.76a3.38,3.38,0,0,1,4.41-1.84Z"/><path class="cls-2" d="M80.47,10.05A3.38,3.38,0,1,1,75.69,10a3.36,3.36,0,0,1,4.78.05Z"/><path class="cls-2" d="M86.39,19.17A3.38,3.38,0,1,1,82,17.27a3.38,3.38,0,0,1,4.38,1.9Z"/><path class="cls-2" d="M88.3,29.59A3.38,3.38,0,1,1,85,26.16a3.39,3.39,0,0,1,3.33,3.43Z"/><path class="cls-2" d="M86.06,40.05a3.38,3.38,0,1,1-1.76-4.44,3.38,3.38,0,0,1,1.76,4.44Z"/><path class="cls-1" d="M73.5,45.78l3.64-3.64-2.27-2.27a2.58,2.58,0,0,0-3.64,0h0a2.57,2.57,0,0,0,0,3.64l2.27,2.27Z"/><path class="cls-2" d="M79.91,48.92A3.38,3.38,0,1,1,80,44.15a3.37,3.37,0,0,1-.09,4.77Z"/><path class="cls-2" d="M71.09,54.61A3.38,3.38,0,1,1,73,50.23a3.37,3.37,0,0,1-1.89,4.38Z"/><path class="cls-2" d="M61,49.81a3.38,3.38,0,1,1-3.38,3.38A3.37,3.37,0,0,1,61,49.81Z"/><path class="cls-2" d="M53.09,48.25a3.38,3.38,0,1,1-4.41,1.84,3.38,3.38,0,0,1,4.41-1.84Z"/><path class="cls-2" d="M46.24,43.64a3.38,3.38,0,1,1-4.77,0,3.38,3.38,0,0,1,4.77,0Z"/><path class="cls-2" d="M41.79,36.77a3.38,3.38,0,1,1-4.39-1.9,3.38,3.38,0,0,1,4.39,1.9Z"/><path class="cls-2" d="M40.35,28.93A3.38,3.38,0,1,1,37,25.5a3.39,3.39,0,0,1,3.33,3.43Z"/><path class="cls-2" d="M42,21.05a3.38,3.38,0,1,1-1.76-4.44A3.38,3.38,0,0,1,42,21.05Z"/><path class="cls-2" d="M46.66,14.36a3.37,3.37,0,1,1,.1-4.77,3.36,3.36,0,0,1-.1,4.77Z"/><path class="cls-2" d="M53.31,10.08a3.38,3.38,0,1,1,1.88-4.39,3.38,3.38,0,0,1-1.88,4.39Z"/><path class="cls-1" d="M63.63,9.54c-.63-.31-.71-.69-.53-1.15A8.26,8.26,0,0,1,64,7.05c.15-.2.3-.39.45-.56A5.92,5.92,0,0,1,64.86,6,1.16,1.16,0,0,1,65.55,6a1.07,1.07,0,0,1,.6.34,4.79,4.79,0,0,1,.21.57c.07.22.14.45.2.69a7.89,7.89,0,0,1,.32,1.58c0,.49-.23.82-.92.86a4.88,4.88,0,0,1-1.2-.08,4.7,4.7,0,0,1-1.13-.38Zm1.64-7.87c-1.34,0-1.06.82-.93,2a9.82,9.82,0,0,0,.33,1.7,1.5,1.5,0,0,0,1.9.37,9.16,9.16,0,0,0,1-1.43c.59-1.08,1.17-1.76-.08-2.25a6.22,6.22,0,0,0-2.18-.43Z"/><path class="cls-1" d="M73.77,12.91l3.65,3.64-2.27,2.27a2.6,2.6,0,0,1-3.65,0h0a2.58,2.58,0,0,1,0-3.64l2.27-2.27Z"/><path class="cls-1" d="M71,12.06c-.46-.53-.38-.91,0-1.26a8.31,8.31,0,0,1,1.35-.89c.22-.13.43-.24.63-.34s.37-.18.56-.26a1.12,1.12,0,0,1,.66.2,1.07,1.07,0,0,1,.42.54,4.19,4.19,0,0,1,0,.61c0,.23,0,.46-.09.71A8.12,8.12,0,0,1,74.18,13c-.19.46-.52.67-1.18.44a4.68,4.68,0,0,1-1.07-.54,4.9,4.9,0,0,1-.9-.79ZM75.6,5.44C74.37,4.9,74.3,5.79,74,7a8.75,8.75,0,0,0-.35,1.69,1.49,1.49,0,0,0,1.6,1.08,9.25,9.25,0,0,0,1.44-1c1-.76,1.76-1.16.8-2.1A6.55,6.55,0,0,0,75.6,5.44Z"/><path class="cls-1" d="M77,17.38c-.22-.67,0-1,.46-1.17A7.69,7.69,0,0,1,79,15.92l.71-.07h.61A1.14,1.14,0,0,1,81.06,17a5.56,5.56,0,0,1-.27.55,7,7,0,0,1-.36.62,7.52,7.52,0,0,1-.92,1.32c-.35.34-.74.4-1.25-.06a4.88,4.88,0,0,1-.77-.92A4.26,4.26,0,0,1,77,17.38Zm6.8-4.28c-.91-1-1.32-.19-2.12.75a9.11,9.11,0,0,0-1,1.41,1.48,1.48,0,0,0,1,1.63,9.78,9.78,0,0,0,1.7-.31c1.19-.32,2.08-.37,1.56-1.61a6.36,6.36,0,0,0-1.2-1.87Z"/><path class="cls-1" d="M80.29,24.41c.06-.69.38-.91.87-.9a8,8,0,0,1,1.58.35l.69.21a4.09,4.09,0,0,1,.56.23,1.06,1.06,0,0,1,.33.6,1.1,1.1,0,0,1-.1.69c-.14.14-.29.27-.45.41l-.58.43a7.61,7.61,0,0,1-1.36.87c-.45.17-.83.08-1.13-.55a4.72,4.72,0,0,1-.35-1.14,4.86,4.86,0,0,1-.06-1.2Zm7.93-1.32c-.46-1.26-1.15-.69-2.24-.13a8.82,8.82,0,0,0-1.46.93,1.49,1.49,0,0,0,.33,1.9,9,9,0,0,0,1.69.37c1.22.16,2.06.45,2.07-.89a6.51,6.51,0,0,0-.39-2.18Z"/><path class="cls-1" d="M80.64,32.15c.32-.62.71-.69,1.16-.49a7.8,7.8,0,0,1,1.32.92l.55.46a6,6,0,0,1,.44.43,1.06,1.06,0,0,1,.06.68,1.08,1.08,0,0,1-.35.6c-.18.07-.37.14-.58.2l-.69.18a7.63,7.63,0,0,1-1.59.28c-.49,0-.81-.25-.83-.94a4.55,4.55,0,0,1,.51-2.32ZM88.47,34c.06-1.34-.8-1.08-2-1a9.59,9.59,0,0,0-1.7.29,1.49,1.49,0,0,0-.42,1.89,9.17,9.17,0,0,0,1.41,1c1.07.61,1.73,1.21,2.25,0A6.4,6.4,0,0,0,88.47,34Z"/><path class="cls-1" d="M78,39.51c.53-.44.91-.36,1.25,0a8,8,0,0,1,.86,1.37c.12.22.23.43.33.64s.17.38.24.56a1,1,0,0,1-.21.66,1.07,1.07,0,0,1-.55.41,4.26,4.26,0,0,1-.61,0c-.23,0-.46-.06-.71-.1A7.79,7.79,0,0,1,77,42.64c-.45-.2-.65-.54-.41-1.19a5.14,5.14,0,0,1,.56-1.06,4.92,4.92,0,0,1,.82-.88Zm6.51,4.72C85,43,84.14,42.93,83,42.55a8.9,8.9,0,0,0-1.68-.39,1.48,1.48,0,0,0-1.12,1.57,8.77,8.77,0,0,0,.92,1.46c.74,1,1.12,1.79,2.08.85a6.49,6.49,0,0,0,1.29-1.81Z"/><path class="cls-1" d="M72.72,45.17c.66-.21,1,0,1.16.47a6.72,6.72,0,0,1,.27,1.59,6.3,6.3,0,0,1,.07.71c0,.22,0,.42,0,.62a1,1,0,0,1-.44.52,1.06,1.06,0,0,1-.67.18L72.56,49c-.19-.11-.4-.23-.61-.37a8.09,8.09,0,0,1-1.32-.93c-.34-.36-.39-.75.08-1.26a5.24,5.24,0,0,1,.92-.76,4.44,4.44,0,0,1,1.09-.5ZM76.94,52c1-.9.2-1.32-.74-2.12a8.68,8.68,0,0,0-1.4-1,1.49,1.49,0,0,0-1.64,1,9,9,0,0,0,.3,1.7c.31,1.19.35,2.08,1.6,1.58A6.51,6.51,0,0,0,76.94,52Z"/><path class="cls-1" d="M65.86,48.37c.7.06.91.38.91.87a8.18,8.18,0,0,1-.35,1.58,6,6,0,0,1-.21.68c-.07.2-.14.39-.22.57a1.05,1.05,0,0,1-.61.33,1.1,1.1,0,0,1-.69-.1c-.13-.13-.27-.29-.4-.45s-.29-.37-.44-.57A8,8,0,0,1,63,49.92c-.17-.46-.08-.84.54-1.13a4.53,4.53,0,0,1,1.15-.36,4.8,4.8,0,0,1,1.19-.06ZM67.2,56.3c1.26-.47.69-1.16.12-2.25a9.11,9.11,0,0,0-.92-1.45,1.49,1.49,0,0,0-1.91.34,8.83,8.83,0,0,0-.36,1.68c-.16,1.23-.45,2.07.89,2.07a6.46,6.46,0,0,0,2.18-.39Z"/><path class="cls-1" d="M58.36,48.77c.62.31.7.69.51,1.15A8.34,8.34,0,0,1,58,51.25c-.16.2-.3.39-.45.56a6,6,0,0,1-.42.44,1.1,1.1,0,0,1-.69.07,1,1,0,0,1-.6-.34q-.11-.27-.21-.57c-.06-.22-.13-.45-.19-.69a8.7,8.7,0,0,1-.3-1.59c0-.49.23-.81.93-.85a4.89,4.89,0,0,1,2.33.49Zm-1.72,7.85c1.34,0,1.07-.81,1-2a9.69,9.69,0,0,0-.32-1.69,1.5,1.5,0,0,0-1.89-.4,9.72,9.72,0,0,0-1,1.43c-.6,1.08-1.19,1.75.06,2.25a6.19,6.19,0,0,0,2.17.45Z"/><path class="cls-1" d="M48.09,45.48l-3.65-3.64,2.27-2.27a2.6,2.6,0,0,1,3.65,0h0a2.58,2.58,0,0,1,0,3.64l-2.27,2.27Z"/><path class="cls-1" d="M51,46.18c.45.53.37.91,0,1.25a7.7,7.7,0,0,1-1.35.88c-.22.13-.43.24-.63.34a4.7,4.7,0,0,1-.57.25,1.14,1.14,0,0,1-.66-.2,1.11,1.11,0,0,1-.42-.55c0-.19,0-.4,0-.61s.06-.46.1-.71a7.48,7.48,0,0,1,.34-1.58c.19-.45.52-.65,1.18-.42a4.45,4.45,0,0,1,1.06.55,4.6,4.6,0,0,1,.9.8Zm-4.63,6.57c1.22.56,1.3-.33,1.66-1.51a9.69,9.69,0,0,0,.37-1.68,1.49,1.49,0,0,0-1.59-1.1,8.18,8.18,0,0,0-1.45.94c-1,.76-1.77,1.15-.82,2.09a6.23,6.23,0,0,0,1.83,1.26Z"/><path class="cls-1" d="M45.14,40.9c.21.66,0,1-.47,1.16a7.87,7.87,0,0,1-1.59.28c-.25,0-.49.06-.71.07h-.62a1.11,1.11,0,0,1-.7-1.11,5.56,5.56,0,0,1,.27-.55,5.79,5.79,0,0,1,.36-.62,7.52,7.52,0,0,1,.92-1.32c.36-.34.75-.4,1.26.07a4.65,4.65,0,0,1,1.28,2Zm-6.83,4.25c.91,1,1.33.2,2.12-.75a9.44,9.44,0,0,0,1-1.41,1.49,1.49,0,0,0-1-1.63,9.78,9.78,0,0,0-1.7.31c-1.19.32-2.08.36-1.57,1.6a6.38,6.38,0,0,0,1.19,1.88Z"/><path class="cls-1" d="M41.87,33.94c-.06.7-.38.91-.87.91a8,8,0,0,1-1.58-.35l-.69-.21a4.84,4.84,0,0,1-.57-.23,1.07,1.07,0,0,1-.32-.6,1.17,1.17,0,0,1,.09-.69c.14-.14.29-.27.46-.41s.36-.28.57-.43a8,8,0,0,1,1.36-.87c.46-.18.84-.09,1.13.54a4.53,4.53,0,0,1,.36,1.15,4.78,4.78,0,0,1,.06,1.19Zm-7.93,1.34c.47,1.26,1.15.69,2.25.12a9.17,9.17,0,0,0,1.45-.93,1.48,1.48,0,0,0-.34-1.9,9.6,9.6,0,0,0-1.69-.37c-1.22-.15-2.06-.45-2.06.89a6.52,6.52,0,0,0,.39,2.19Z"/><path class="cls-1" d="M41.49,26.29c-.31.62-.7.69-1.15.5A7.08,7.08,0,0,1,39,25.87c-.2-.15-.39-.3-.56-.45A6,6,0,0,1,38,25a1.06,1.06,0,0,1-.07-.68,1.08,1.08,0,0,1,.35-.6c.18-.08.37-.14.57-.21l.7-.18A7.59,7.59,0,0,1,41.16,23c.49,0,.8.24.84.93a4.88,4.88,0,0,1-.11,1.2,4.34,4.34,0,0,1-.4,1.13Zm-7.84-1.78c0,1.34.81,1.07,2,1a8.91,8.91,0,0,0,1.7-.3,1.5,1.5,0,0,0,.41-1.89,10,10,0,0,0-1.42-1c-1.07-.61-1.74-1.2-2.25,0a6.49,6.49,0,0,0-.47,2.17Z"/><path class="cls-1" d="M48.43,12.61l-3.64,3.65,2.27,2.27a2.58,2.58,0,0,0,3.64,0h0a2.6,2.6,0,0,0,0-3.65l-2.27-2.27Z"/><path class="cls-1" d="M44.11,19c-.53.44-.92.37-1.26,0A7.82,7.82,0,0,1,42,17.64c-.12-.22-.24-.43-.34-.64s-.17-.37-.24-.56a1.12,1.12,0,0,1,.2-.66,1.15,1.15,0,0,1,.55-.42l.61,0a6.37,6.37,0,0,1,.71.1,7.48,7.48,0,0,1,1.58.34c.45.2.65.53.42,1.18a4.82,4.82,0,0,1-1.36,2Zm-6.56-4.66c-.56,1.21.33,1.3,1.51,1.67a9.69,9.69,0,0,0,1.68.37,1.49,1.49,0,0,0,1.11-1.59,9.71,9.71,0,0,0-.94-1.45c-.75-1-1.14-1.77-2.09-.83a6.46,6.46,0,0,0-1.27,1.83Z"/><path class="cls-1" d="M49.26,13.28c-.66.22-1,0-1.17-.46a7.75,7.75,0,0,1-.28-1.59,6.08,6.08,0,0,1-.07-.71c0-.21,0-.41,0-.61a1.09,1.09,0,0,1,.44-.53,1.06,1.06,0,0,1,.67-.18,5.4,5.4,0,0,1,.55.26l.62.36a8,8,0,0,1,1.33.92c.34.36.4.74-.07,1.26a4.69,4.69,0,0,1-2,1.28ZM45,6.48c-1,.91-.2,1.33.75,2.12a8.74,8.74,0,0,0,1.42,1,1.48,1.48,0,0,0,1.62-1,9.78,9.78,0,0,0-.31-1.7c-.33-1.19-.38-2.08-1.62-1.56A6.31,6.31,0,0,0,45,6.48Z"/><path class="cls-1" d="M56,10c-.69,0-.91-.37-.91-.86a7.32,7.32,0,0,1,.33-1.58c.06-.24.13-.47.2-.69s.14-.39.21-.57a1.14,1.14,0,0,1,1.29-.25l.42.45c.14.17.29.36.44.57a7.42,7.42,0,0,1,.89,1.35c.18.45.09.83-.53,1.13a4.77,4.77,0,0,1-1.14.38A4.41,4.41,0,0,1,56,10ZM54.59,2.11c-1.25.49-.67,1.16-.09,2.25a10,10,0,0,0,1,1.44,1.49,1.49,0,0,0,1.9-.36,9,9,0,0,0,.34-1.69c.14-1.23.42-2.07-.92-2.06a6.54,6.54,0,0,0-2.18.42Z"/></g></g></svg>