<svg xmlns="http://www.w3.org/2000/svg" viewBox="0 0 142.72 57.85"><defs><style>.cls-1,.cls-2,.cls-3{fill:#fff;fill-rule:evenodd;}.cls-1,.cls-2,.cls-4,.cls-5{stroke:#9d9d9d;stroke-linecap:round;stroke-linejoin:round;}.cls-1,.cls-4{stroke-width:0.99px;}.cls-2,.cls-3,.cls-5{stroke-width:0.57px;}.cls-3{stroke:#201600;stroke-miterlimit:22.93;}.cls-4,.cls-5{fill:none;}</style></defs><title>Matching_sets_02</title><g id="Слой_2" data-name="Слой 2"><g id="Слой_1-2" data-name="Слой 1"><path class="cls-1" d="M79,24.34c-20.64-7.85-46.22-7.85-66.86,0a74.34,74.34,0,0,0,19.53,3q-1.36,6-2.72,12c-8.34-1.18-16.24-2.58-21.8-5.18C3.08,32.23.5,30.63.5,26.08v-3.7c0-4.27,3.42-5.79,7-7.7,21.39-7.55,54.72-7.55,76.11,0,3.63,1.91,7,3.43,7,7.7v3.7c0,4.55-2.58,6.15-6.69,8.08-5.55,2.6-13.46,4-21.79,5.18q-1.36-6-2.72-12a74.34,74.34,0,0,0,19.53-3Z"/><path class="cls-2" d="M1.72,22.31c.4,0,.72,1.57.72,3.5s-.32,3.49-.72,3.49S1,27.74,1,25.81s.33-3.5.72-3.5Z"/><path class="cls-3" d="M89.47,22.9c-.4,0-.72,1.47-.72,3.29s.32,3.28.72,3.28.72-1.47.72-3.28-.32-3.29-.72-3.29Z"/><path class="cls-2" d="M4.32,23.91c.7,0,1.26,1.85,1.26,4.13S5,32.17,4.32,32.17,3.07,30.32,3.07,28s.56-4.13,1.25-4.13Z"/><path class="cls-2" d="M86.87,24.4c-.69,0-1.25,1.74-1.25,3.88s.56,3.89,1.25,3.89,1.25-1.74,1.25-3.89-.56-3.88-1.25-3.88Z"/><path class="cls-2" d="M8.93,25.78c1,0,1.78,1.88,1.78,4.2s-.8,4.19-1.78,4.19S7.14,32.29,7.14,30s.8-4.2,1.79-4.2Z"/><path class="cls-2" d="M82.27,25.78c-1,0-1.79,1.88-1.79,4.2s.8,4.19,1.79,4.19,1.78-1.88,1.78-4.19-.8-4.2-1.78-4.2Z"/><path class="cls-2" d="M15.25,27.28c1.44,0,2.6,2,2.6,4.54s-1.16,4.54-2.6,4.54-2.6-2-2.6-4.54,1.17-4.54,2.6-4.54Z"/><path class="cls-2" d="M75.94,27.28c-1.43,0-2.6,2-2.6,4.54s1.17,4.54,2.6,4.54,2.6-2,2.6-4.54-1.16-4.54-2.6-4.54Z"/><path class="cls-2" d="M22.77,28.6c1.88,0,3.41,2.11,3.41,4.73s-1.53,4.73-3.41,4.73-3.41-2.12-3.41-4.73,1.52-4.73,3.41-4.73Z"/><path class="cls-2" d="M68.43,28.6c-1.89,0-3.42,2.11-3.42,4.73s1.53,4.73,3.42,4.73,3.41-2.12,3.41-4.73-1.53-4.73-3.41-4.73Z"/><path class="cls-2" d="M30.72,29.59c2,0,3.61,2.23,3.61,5s-1.62,5-3.61,5-3.6-2.24-3.6-5,1.62-5,3.6-5Z"/><path class="cls-2" d="M60.47,29.59c-2,0-3.6,2.23-3.6,5s1.61,5,3.6,5,3.6-2.24,3.6-5-1.61-5-3.6-5Z"/><path class="cls-4" d="M79,24.34c8.25-3,8.16-6.2-.9-9.6a118.69,118.69,0,0,0-65.06,0c-9.07,3.4-9.16,6.59-.9,9.6"/><path class="cls-1" d="M55.06,18.81c-3.61-2.9-6-4.83-5-9,.27-1.13.54-2.26.81-3.42C53.49-4.7,92.09,2.93,100.14,4.84s44.53,12,42,22.8c-.27,1.15-.54,2.29-.81,3.41-1,4.2-4,4.87-8.53,5.89-15.58,3.48-65.16-8-77.7-18.13Zm74.8,7.89c-19.15-12.12-45-18.15-67.61-15.77,12.94,8.29,52.23,17.46,67.61,15.77Z"/><path class="cls-2" d="M53.14,8c.41.1.41,1.53,0,3.21s-1,3-1.44,2.86-.41-1.52,0-3.2,1-3,1.44-2.87Z"/><path class="cls-2" d="M139.09,28.06c-.57-.11-1.48,1.41-2,3.4s-.55,3.69,0,3.8,1.48-1.41,2-3.4.56-3.68,0-3.8Z"/><path class="cls-2" d="M56.45,10.42c.7.17.89,1.9.42,3.88s-1.42,3.46-2.12,3.29-.89-1.9-.42-3.88,1.42-3.45,2.12-3.29Z"/><path class="cls-2" d="M134.28,28.86c-.74-.17-1.75,1.38-2.25,3.47s-.3,3.92.45,4.09S134.23,35,134.73,33s.3-3.92-.45-4.09Z"/><path class="cls-2" d="M61.52,13.5c1,.23,1.4,2.16.89,4.29s-1.73,3.69-2.72,3.46-1.4-2.16-.89-4.3,1.72-3.68,2.72-3.45Z"/><path class="cls-2" d="M128.93,29.44c-1.21-.24-2.68,1.31-3.29,3.45s-.14,4.06,1.07,4.29,2.68-1.31,3.29-3.45.14-4.06-1.07-4.29Z"/><path class="cls-2" d="M67.37,16.05c1.51.32,2.42,2.35,2,4.54S67.46,24.3,66,24s-2.42-2.36-2-4.55,1.94-3.71,3.44-3.38Z"/><path class="cls-2" d="M121.89,29.11c-1.54-.33-3.26,1.2-3.84,3.4s.19,4.24,1.73,4.56,3.26-1.2,3.84-3.4-.19-4.24-1.73-4.56Z"/><path class="cls-2" d="M75.47,18.79c1.91.45,3.06,2.76,2.55,5.17s-2.48,4-4.4,3.56-3.06-2.76-2.55-5.17,2.48-4,4.4-3.56Z"/><path class="cls-2" d="M113.21,28.34c-1.89-.41-3.95,1.06-4.61,3.27s.35,4.34,2.24,4.75,4-1,4.61-3.27-.35-4.34-2.24-4.75Z"/><path class="cls-2" d="M85.15,22A3.85,3.85,0,0,1,87.9,26.9,4.44,4.44,0,0,1,83,30.3a3.83,3.83,0,0,1-2.75-4.94A4.44,4.44,0,0,1,85.15,22Z"/><path class="cls-2" d="M94.28,24.26a4.29,4.29,0,0,1,3.2,5,4.08,4.08,0,0,1-4.71,3.48,4.3,4.3,0,0,1-3.21-5.05,4.09,4.09,0,0,1,4.72-3.48Z"/><path class="cls-2" d="M104.2,26.62a4.54,4.54,0,0,0-5,3.43,3.81,3.81,0,0,0,2.7,5,4.53,4.53,0,0,0,5-3.42,3.82,3.82,0,0,0-2.7-5Z"/><path class="cls-4" d="M129.86,26.7c4.73-.44,7.14-1.46,7.15-3.1.05-6.8-32-15.84-38-17.28C92.69,4.83,60.88-1.11,57.3,4.87c-.89,1.49.8,3.51,5,6.06"/><path class="cls-1" d="M45.22,24A16.66,16.66,0,1,1,28.57,40.7,16.66,16.66,0,0,1,45.22,24Z"/><path class="cls-5" d="M28.57,40.7l4.92-4.92V28.89h6.92l4.83-4.83M28.57,40.7l4.92,4.92v6.89h6.92l4.83,4.83M61.88,40.7,57,35.78V28.89H50L45.2,24.06M61.88,40.7,57,45.62v6.89H50L45.2,57.34M38.88,25.29l1.53,3.6-1.66,5.27L36,40.7l-2.48-4.92-3.63-1.52m9,21.85,1.53-3.6-1.66-5.27L36,40.7l-2.48,4.92-3.63,1.52m21.7-21.85L50,28.89l1.67,5.27,2.78,6.54L57,35.78l3.63-1.52m-9,21.85L50,52.51l1.67-5.27,2.78-6.54L57,45.62l3.63,1.52M33.49,35.78l5.26-1.62,6.54-2.78-4.88-2.49M33.49,45.62l5.26,1.62L45.29,50l-4.88,2.49M57,35.78,51.7,34.16l-6.54-2.78L50,28.89M57,45.62,51.7,47.24,45.16,50,50,52.51"/><path class="cls-1" d="M34,28.4a15.73,15.73,0,0,1,4.41-2.91c-1.84-.42-4.59-.49-6.36,1.09-1.14,1-2,2.38-1.1,3.51a2.89,2.89,0,0,0,.87.71A1.77,1.77,0,0,0,34,28.4Z"/><path class="cls-1" d="M56.78,28.71a16.55,16.55,0,0,0-3.57-2.63,8.15,8.15,0,0,1,4.32-.14,6.08,6.08,0,0,1,2.24,1.76,1.52,1.52,0,0,1,.15,1.95c-.32.49-.67,1.11-1.24,1.24-1.45.33-2.27-.58-1.9-2.18Z"/><path class="cls-1" d="M32.2,51.09c-.35-.44-.67-.89-1-1.34a6.6,6.6,0,0,0-.39,1.32c-.18.94-.35,2,.42,2.76,1,1,2.1.24,2.81-.76.27-.39.31-1-.35-1.72a1.15,1.15,0,0,0-1.52-.26Z"/><path class="cls-1" d="M57,51.57c-.63.51-.63,1-.45,1.37a3,3,0,0,0,2,1.48c.78.16,1.68-.76,1.64-1.64a5.71,5.71,0,0,0-.93-3.1,10.39,10.39,0,0,1-1.13,1.55,1,1,0,0,0-1.16.34Z"/></g></g></svg>