<svg xmlns="http://www.w3.org/2000/svg" viewBox="0 0 121.12 56.69"><defs><style>.cls-1,.cls-2{fill:#fff;fill-rule:evenodd;}.cls-1,.cls-2,.cls-3,.cls-4{stroke:#9d9d9d;}.cls-1,.cls-3,.cls-4{stroke-linecap:round;stroke-linejoin:round;}.cls-1,.cls-3{stroke-width:0.99px;}.cls-2{stroke-miterlimit:22.93;}.cls-2,.cls-4{stroke-width:0.57px;}.cls-3,.cls-4{fill:none;}</style></defs><title>Pave_02</title><g id="Слой_2" data-name="Слой 2"><g id="Слой_1-2" data-name="Слой 1"><path class="cls-1" d="M60.56.5C75,.8,115.8,1,120,18.37a12.16,12.16,0,0,1-.7,7.62c-4.65,10.85-30.91,15-41.62,16.15L65,27c4.1-.35,8.21-.42,12.31-.92C93,24.7,99.66,23.09,104.06,20.62c-10.94-4.79-26.67-6.4-43.5-6.59-16.83.19-32.56,1.8-43.51,6.59,4.4,2.47,11,4.08,26.79,5.41,4.1.5,8.22.57,12.31.92L43.4,42.14C32.69,41,6.43,36.84,1.78,26a12.16,12.16,0,0,1-.7-7.62C5.32,1,46.16.8,60.56.5Z"/><path class="cls-2" d="M82.67,26.42c1.53,0,2.9,1.51,3,3.37s-1,3.37-2.5,3.37-2.9-1.51-3-3.37,1-3.37,2.5-3.37Z"/><path class="cls-2" d="M38.45,26.42c-1.53,0-2.9,1.51-3.05,3.37s1,3.37,2.5,3.37,2.9-1.51,3.05-3.37-1-3.37-2.5-3.37Z"/><path class="cls-2" d="M81.82,41.58a4,4,0,0,0,4.17-1c.9-1.07.49-2.35-.92-2.86a4,4,0,0,0-4.17,1,1.71,1.71,0,0,0,.92,2.86Z"/><path class="cls-2" d="M39.3,41.58a4,4,0,0,1-4.17-1A1.71,1.71,0,0,1,36,37.67a4,4,0,0,1,4.17,1,1.71,1.71,0,0,1-.91,2.86Z"/><path class="cls-2" d="M90.64,40.26a3.83,3.83,0,0,0,4-1,1.63,1.63,0,0,0-.87-2.72,3.82,3.82,0,0,0-4,1,1.62,1.62,0,0,0,.87,2.72Z"/><path class="cls-2" d="M30.48,40.26a3.82,3.82,0,0,1-4-1,1.62,1.62,0,0,1,.87-2.72,3.83,3.83,0,0,1,4,1,1.63,1.63,0,0,1-.87,2.72Z"/><path class="cls-2" d="M98.62,38.25a4,4,0,0,0,3.63-1.09c.72-.88.26-1.81-1-2.08a4,4,0,0,0-3.63,1.09c-.72.87-.26,1.8,1,2.08Z"/><path class="cls-2" d="M22.5,38.25a4,4,0,0,1-3.63-1.09c-.72-.88-.27-1.81,1-2.08a4.05,4.05,0,0,1,3.63,1.09c.72.87.26,1.8-1,2.08Z"/><path class="cls-2" d="M105.15,36.36a3.89,3.89,0,0,0,3.24-1.19c.66-.82.3-1.61-.82-1.77a3.89,3.89,0,0,0-3.24,1.19c-.67.82-.3,1.61.82,1.77Z"/><path class="cls-2" d="M16,36.36a3.89,3.89,0,0,1-3.24-1.19c-.67-.82-.3-1.61.82-1.77a3.89,3.89,0,0,1,3.24,1.19c.66.82.3,1.61-.82,1.77Z"/><path class="cls-2" d="M111.13,33.9a3.23,3.23,0,0,0,2.45-1.58c.41-.82,0-1.43-1-1.38a3.26,3.26,0,0,0-2.46,1.58c-.4.82.05,1.43,1,1.38Z"/><path class="cls-2" d="M10,33.9a3.26,3.26,0,0,1-2.46-1.58c-.4-.82,0-1.43,1-1.38A3.23,3.23,0,0,1,11,32.52c.41.82,0,1.43-1,1.38Z"/><path class="cls-2" d="M116,30.59a2.71,2.71,0,0,0,2-1.56c.28-.74-.16-1.24-1-1.13a2.71,2.71,0,0,0-2,1.56c-.28.74.16,1.24,1,1.13Z"/><path class="cls-2" d="M5.17,30.59a2.75,2.75,0,0,1-2-1.56c-.27-.74.17-1.24,1-1.13a2.73,2.73,0,0,1,2,1.56c.28.74-.16,1.24-1,1.13Z"/><path class="cls-2" d="M90.4,25.18a3.31,3.31,0,0,1,2.94,3.24c.14,1.79-.93,3.24-2.41,3.24A3.31,3.31,0,0,1,88,28.42c-.15-1.79.93-3.24,2.4-3.24Z"/><path class="cls-2" d="M30.71,25.18a3.31,3.31,0,0,0-2.93,3.24c-.15,1.79.93,3.24,2.4,3.24a3.31,3.31,0,0,0,2.94-3.24c.15-1.79-.93-3.24-2.41-3.24Z"/><path class="cls-2" d="M97.62,24a3.06,3.06,0,0,1,2.69,2.92c.17,1.61-.78,2.92-2.11,2.92a3.06,3.06,0,0,1-2.7-2.92c-.16-1.61.79-2.92,2.12-2.92Z"/><path class="cls-2" d="M23.5,24a3.06,3.06,0,0,0-2.7,2.92c-.16,1.61.79,2.92,2.11,2.92a3.06,3.06,0,0,0,2.7-2.92c.17-1.61-.78-2.92-2.11-2.92Z"/><path class="cls-2" d="M103.43,22.41A3.05,3.05,0,0,1,106.07,25c.27,1.45-.48,2.63-1.68,2.63A3.06,3.06,0,0,1,101.74,25c-.26-1.45.49-2.63,1.69-2.63Z"/><path class="cls-2" d="M17.69,22.41A3.06,3.06,0,0,0,15,25c-.26,1.45.49,2.63,1.69,2.63A3.05,3.05,0,0,0,19.37,25c.27-1.45-.48-2.63-1.68-2.63Z"/><path class="cls-2" d="M108.22,20.73a2.76,2.76,0,0,1,2.39,2.37c.24,1.32-.44,2.38-1.52,2.38a2.76,2.76,0,0,1-2.39-2.38c-.24-1.31.44-2.37,1.52-2.37Z"/><path class="cls-2" d="M12.9,20.73a2.76,2.76,0,0,0-2.4,2.37c-.24,1.32.44,2.38,1.52,2.38a2.77,2.77,0,0,0,2.4-2.38c.24-1.31-.44-2.37-1.52-2.37Z"/><path class="cls-2" d="M112.24,19.05a3.19,3.19,0,0,1,2.47,2.25c.43,1.25,0,2.25-.91,2.25a3.16,3.16,0,0,1-2.47-2.25c-.43-1.24,0-2.25.91-2.25Z"/><path class="cls-2" d="M8.88,19.05A3.18,3.18,0,0,0,6.41,21.3c-.43,1.25,0,2.25.91,2.25A3.15,3.15,0,0,0,9.78,21.3c.44-1.24,0-2.25-.9-2.25Z"/><path class="cls-2" d="M115.35,17.11A3,3,0,0,1,117.59,19c.45,1.05.17,1.9-.61,1.9a3,3,0,0,1-2.24-1.9c-.45-1.05-.18-1.91.61-1.91Z"/><path class="cls-2" d="M5.77,17.11A3,3,0,0,0,3.53,19c-.45,1.05-.18,1.9.61,1.9A3,3,0,0,0,6.38,19c.45-1.05.17-1.91-.61-1.91Z"/><path class="cls-2" d="M117.44,15.44a3.31,3.31,0,0,1,1.87,1.67c.46.84.36,1.47-.22,1.4a3.31,3.31,0,0,1-1.87-1.67c-.46-.85-.36-1.47.22-1.4Z"/><path class="cls-2" d="M3.68,15.44a3.25,3.25,0,0,0-1.87,1.67c-.46.84-.37,1.47.21,1.4A3.29,3.29,0,0,0,3.9,16.84c.45-.85.36-1.47-.22-1.4Z"/><path class="cls-2" d="M117.44,15.44a3.31,3.31,0,0,1,1.87,1.67c.46.84.36,1.47-.22,1.4a3.31,3.31,0,0,1-1.87-1.67c-.46-.85-.36-1.47.22-1.4Z"/><path class="cls-2" d="M3.68,15.44a3.25,3.25,0,0,0-1.87,1.67c-.46.84-.37,1.47.21,1.4A3.29,3.29,0,0,0,3.9,16.84c.45-.85.36-1.47-.22-1.4Z"/><path class="cls-2" d="M78.53,32a3.31,3.31,0,1,1-3.25,3.3A3.27,3.27,0,0,1,78.53,32Z"/><path class="cls-2" d="M42.58,32a3.31,3.31,0,1,0,3.25,3.3A3.28,3.28,0,0,0,42.58,32Z"/><path class="cls-2" d="M87.52,31.71a2.92,2.92,0,1,1-2.81,2.92,2.86,2.86,0,0,1,2.81-2.92Z"/><path class="cls-2" d="M33.6,31.71a2.92,2.92,0,1,0,2.8,2.92,2.87,2.87,0,0,0-2.8-2.92Z"/><path class="cls-2" d="M95.43,30.12a2.75,2.75,0,0,1,2.48,2.95,2.52,2.52,0,1,1-5,0,2.75,2.75,0,0,1,2.48-2.95Z"/><path class="cls-2" d="M25.68,30.12a2.75,2.75,0,0,0-2.48,2.95,2.75,2.75,0,0,0,2.48,3,2.75,2.75,0,0,0,2.48-3,2.75,2.75,0,0,0-2.48-2.95Z"/><path class="cls-2" d="M102.33,28.37c1.11,0,2,1.26,2,2.82s-.91,2.82-2,2.82-2-1.26-2-2.82.9-2.82,2-2.82Z"/><path class="cls-2" d="M18.78,28.37c-1.11,0-2,1.26-2,2.82s.9,2.82,2,2.82,2-1.26,2-2.82-.9-2.82-2-2.82Z"/><path class="cls-2" d="M108,26.87c1,0,1.79,1.18,1.79,2.63s-.8,2.63-1.79,2.63-1.79-1.18-1.79-2.63.8-2.63,1.79-2.63Z"/><path class="cls-2" d="M13.17,26.87c-1,0-1.79,1.18-1.79,2.63s.8,2.63,1.79,2.63S15,31,15,29.5s-.8-2.63-1.78-2.63Z"/><path class="cls-2" d="M112.57,25c1,0,1.71,1.12,1.71,2.51s-.76,2.5-1.71,2.5-1.71-1.12-1.71-2.5.77-2.51,1.71-2.51Z"/><path class="cls-2" d="M8.54,25c-.94,0-1.71,1.12-1.71,2.51S7.6,30,8.54,30s1.72-1.12,1.72-2.5S9.49,25,8.54,25Z"/><path class="cls-2" d="M116.57,22.26c.76,0,1.39,1.07,1.39,2.39S117.33,27,116.57,27s-1.39-1.07-1.39-2.39.62-2.39,1.39-2.39Z"/><path class="cls-2" d="M4.55,22.26c-.77,0-1.39,1.07-1.39,2.39S3.78,27,4.55,27,5.94,26,5.94,24.65s-.62-2.39-1.39-2.39Z"/><path class="cls-2" d="M119.69,19.73c.63,0,1.14,1,1.14,2.14S120.32,24,119.69,24s-1.14-.95-1.14-2.13.51-2.14,1.14-2.14Z"/><path class="cls-2" d="M1.42,19.73c-.63,0-1.14,1-1.14,2.14S.79,24,1.42,24s1.14-.95,1.14-2.13-.51-2.14-1.14-2.14Z"/><path class="cls-2" d="M117.06,12.86c1.17-.3,2.21,1.19,1.43,1.89a3.19,3.19,0,0,1-1.28-.63c-.62-.5-.77-1-.33-1.21l.18-.05Z"/><path class="cls-2" d="M4.05,12.86c-1.17-.3-2.2,1.19-1.42,1.89a3.19,3.19,0,0,0,1.28-.63c.62-.5.77-1,.33-1.21l-.19-.05Z"/><path class="cls-3" d="M104.06,20.62C119.18,12.86,105.84,7.67,89.73,5a184.49,184.49,0,0,0-58.16,0c-16.2,2.7-29.69,7.9-14.52,15.69"/><path class="cls-1" d="M60.56,22.55A16.83,16.83,0,1,1,43.74,39.38,16.82,16.82,0,0,1,60.56,22.55Z"/><path class="cls-4" d="M43.74,39.38l5-5v-7h7l4.88-4.88M43.74,39.38l5,5v7h7l4.88,4.88m16.8-16.8-5-5v-7h-7l-4.87-4.88M77.38,39.38l-5,5v7h-7l-4.87,4.88M54.16,23.81l1.54,3.64L54,32.77l-2.81,6.6-2.5-5L45,32.87m9.12,22.07L55.7,51.3,54,46l-2.81-6.6-2.5,5L45,45.88M67,23.81l-1.55,3.64,1.69,5.32,2.8,6.6,2.51-5,3.66-1.54M67,54.94,65.41,51.3,67.1,46l2.8-6.6,2.51,5,3.66,1.54M48.71,34.41,54,32.77,60.62,30,55.7,27.45m-7,16.89L54,46l6.6,2.81L55.7,51.3M72.41,34.41,67.1,32.77,60.49,30l4.92-2.51m7,16.89L67.1,46l-6.61,2.81,4.92,2.51"/><path class="cls-1" d="M49.23,27A15.93,15.93,0,0,1,53.69,24c-1.87-.42-4.64-.49-6.42,1.1-1.16,1-2,2.41-1.11,3.55a2.62,2.62,0,0,0,.88.72A1.79,1.79,0,0,0,49.23,27Z"/><path class="cls-1" d="M72.23,27.26a16.62,16.62,0,0,0-3.61-2.65A8.1,8.1,0,0,1,73,24.47a6.14,6.14,0,0,1,2.27,1.77,1.54,1.54,0,0,1,.15,2c-.32.49-.68,1.11-1.25,1.24-1.47.34-2.29-.58-1.92-2.2Z"/><path class="cls-1" d="M47.41,49.87c-.36-.45-.68-.9-1-1.36a7.16,7.16,0,0,0-.4,1.33c-.18,1-.36,2.08.42,2.8,1,1,2.13.24,2.84-.77.28-.4.32-1-.35-1.74a1.15,1.15,0,0,0-1.53-.26Z"/><path class="cls-1" d="M72.42,50.36c-.64.51-.65,1-.46,1.38A3,3,0,0,0,74,53.23c.78.16,1.7-.77,1.65-1.66a5.59,5.59,0,0,0-.94-3.12A10.35,10.35,0,0,1,73.58,50a1,1,0,0,0-1.16.35Z"/></g></g></svg>