<svg xmlns="http://www.w3.org/2000/svg" viewBox="0 0 121.12 57.59"><defs><style>.cls-1,.cls-2{fill:#fff;fill-rule:evenodd;}.cls-1,.cls-2,.cls-3,.cls-4{stroke:#9d9d9d;stroke-linecap:round;stroke-linejoin:round;}.cls-1,.cls-3{stroke-width:0.99px;}.cls-2,.cls-4{stroke-width:0.57px;}.cls-3,.cls-4{fill:none;}</style></defs><title>Side_Stones_02</title><g id="Слой_2" data-name="Слой 2"><g id="Слой_1-2" data-name="Слой 1"><path class="cls-1" d="M72.61,28.1,78,25.23a31.79,31.79,0,0,1,8.85.55c.13-2,3.29-2.77,10.94-1.55-.77-2.06,1.72-3,9.4-2-2.61-1.95-2.07-3.25,6.3-2.54-4.57-2.43-1.47-3,5.09-3-5.26-1.51-5.33-2.57,2-3C117.82-3.91,3.3-3.91.52,13.73c7.32.41,7.25,1.47,2,3,6.56,0,9.66.56,5.09,3,8.37-.71,8.91.59,6.3,2.54,7.68-1,10.17-.07,9.4,2C31,23,34.11,23.74,34.24,25.78a31.79,31.79,0,0,1,8.85-.55l5.42,2.87,5-4.75c-16.28-.93-29.56-2.76-37.15-6.3,19-8.15,69.48-8.15,88.46,0-7.59,3.54-20.87,5.37-37.15,6.3l5,4.75Z"/><path class="cls-1" d="M.52,13.73q0,4.31,0,8.6A1.64,1.64,0,0,0,2.13,24.1C2,27,3.33,27.32,5,27.22H6.8c-.07,2.24,1.06,3,2.83,2.91H12.4l1.06.07c0,2,1,2.7,2.76,2.55h6.45c.26,1.72,1.31,2.35,3,2.12l3.26-.56,4.68.7c.52,1.38,1.62,1.74,3.12,1.42l2.55-.35c1.84,2.1,3.61,2.58,5.31,1.2l8.92-10.41-2.34-1.28L48.51,28.1l-5.42-2.87a31.79,31.79,0,0,0-8.85.55c-.13-2-3.29-2.77-10.94-1.55.77-2.06-1.72-3-9.4-2C16.51,20.29,16,19,7.6,19.7c4.57-2.43,1.47-3-5.09-3,5.26-1.51,5.33-2.57-2-3Z"/><path class="cls-1" d="M120.6,13.73q0,4.31,0,8.6A1.64,1.64,0,0,1,119,24.1c.17,2.9-1.2,3.22-2.83,3.12h-1.84c.07,2.24-1.06,3-2.83,2.91h-2.77l-1.06.07c0,2-1,2.7-2.76,2.55H98.45c-.26,1.72-1.31,2.35-3,2.12l-3.26-.56-4.68.7c-.52,1.38-1.62,1.74-3.12,1.42l-2.55-.35c-1.84,2.1-3.61,2.58-5.31,1.2L67.64,26.87,70,25.59l2.63,2.51L78,25.23a31.79,31.79,0,0,1,8.85.55c.13-2,3.29-2.77,10.94-1.55-.77-2.06,1.72-3,9.4-2-2.61-1.95-2.07-3.25,6.3-2.54-4.57-2.43-1.47-3,5.09-3-5.26-1.51-5.33-2.57,2-3Z"/><polygon class="cls-2" points="39.93 25.3 41.25 25.87 42.57 26.43 43.39 27.91 44.21 29.39 44.21 31.21 44.21 33.04 43.39 34.51 42.57 35.99 41.25 36.55 39.93 37.12 38.61 36.55 37.28 35.99 36.47 34.51 35.65 33.04 35.65 31.21 35.65 29.39 36.47 27.91 37.28 26.43 38.61 25.87 39.93 25.3 39.93 25.3"/><polygon class="cls-2" points="81.19 25.3 79.87 25.87 78.55 26.43 77.73 27.91 76.92 29.39 76.92 31.21 76.92 33.04 77.73 34.51 78.55 35.99 79.87 36.55 81.19 37.12 82.51 36.55 83.84 35.99 84.65 34.51 85.47 33.04 85.47 31.21 85.47 29.39 84.65 27.91 83.84 26.43 82.51 25.87 81.19 25.3 81.19 25.3"/><path class="cls-2" d="M19.3,22.09l1.36.58,1.35.57.84,1.52.06.1a9.19,9.19,0,0,0-.27,3.4l0,3.61L22,33.05l-1.35.58-1.36.58L18,33.63l-1.36-.58-.84-1.52L14.92,30V26.27l.83-1.51.84-1.52L18,22.67l1.35-.58Z"/><path class="cls-2" d="M101.82,22.09l-1.36.58-1.35.57-.84,1.52-.06.1a9.19,9.19,0,0,1,.27,3.4l0,3.61.65,1.18,1.35.58,1.36.58,1.35-.58,1.36-.58.84-1.52.84-1.51V26.27l-.84-1.51-.84-1.52-1.36-.57-1.35-.58Z"/><path class="cls-2" d="M11.92,20l1.25.54,1.25.53.38.69-.9.48c-.68.27-.53,2.08-.5,3.07l.06,4.89,0,.34-.31.13-1.25.54-1.26-.54-1.25-.53-.77-1.4-.78-1.4V23.88l.78-1.41.77-1.4,1.25-.53L11.92,20Z"/><path class="cls-2" d="M109.2,20l-1.25.54-1.25.53-.38.69.9.48c.68.27.53,2.08.5,3.07l-.06,4.89,0,.34.31.13,1.25.54,1.26-.54,1.25-.53.78-1.4.77-1.4V23.88l-.77-1.41-.78-1.4-1.25-.53L109.2,20Z"/><path class="cls-2" d="M6.73,17.4l1.2.51,1.2.51.35.63L7.6,19.7c-.75.66-.61,1.52-.67,2.68L6.8,27.22l.06.85-.13.06-1.2-.51-1.2-.51-.75-1.35-.74-1.34V21.11l.74-1.35.75-1.34,1.2-.51,1.2-.51Z"/><path class="cls-2" d="M114.39,17.4l-1.2.51-1.2.51-.35.63,1.88.65c.75.66.61,1.52.67,2.68l.13,4.84-.06.85.13.06,1.2-.51,1.2-.51.75-1.35.74-1.34V21.11l-.74-1.35-.75-1.34-1.2-.51-1.2-.51Z"/><path class="cls-2" d="M2.92,14.27l.82.52.81.51.36,1-2.25.4-.15,0a1.69,1.69,0,0,0-.37,1.37V24.5h0L1.29,24l-.5-1.34L.29,21.3V18l.5-1.34.5-1.34.82-.51.81-.52Z"/><path class="cls-2" d="M118.2,14.27l-.82.52-.81.51-.36,1,2.25.4.15,0a1.69,1.69,0,0,1,.37,1.37V24.5h0l.82-.51.5-1.34.5-1.34V18l-.5-1.34-.5-1.34-.82-.51-.81-.52Z"/><path class="cls-2" d="M29.79,23.84l1.55.56L32.9,25l.91,1.4c-.32.5-.35.89-.33,2.12l.08,5-.66,1-1.56.57-1.55.56-1.55-.56-1.56-.57-1-1.47-1-1.48V27.92l1-1.48,1-1.47,1.56-.57,1.55-.56Z"/><path class="cls-2" d="M91.33,23.84l-1.55.56L88.23,25l-.92,1.4c.32.5.35.89.33,2.12l-.08,5,.67,1,1.55.57,1.55.56,1.56-.56,1.55-.57,1-1.47,1-1.48V27.92l-1-1.48-1-1.47-1.55-.57-1.56-.56Z"/><path class="cls-3" d="M16.33,17.05c-3.43-1.69-5-3.33-4.89-4.93.86-8.33,42.46-10,49.12-9.79,6.66-.2,48.26,1.46,49.12,9.79.16,1.6-1.46,3.24-4.89,4.93"/><path class="cls-1" d="M60.56,20.33A18.38,18.38,0,1,1,42.18,38.71,18.38,18.38,0,0,1,60.56,20.33Z"/><path class="cls-4" d="M42.18,38.71l5.43-5.43v-7.6h7.64l5.33-5.33M42.18,38.71l5.43,5.43v7.6h7.64l5.33,5.33M78.94,38.71l-5.43-5.43v-7.6H65.87l-5.33-5.33m18.4,18.36-5.43,5.43v7.6H65.87l-5.33,5.33m-7-35.36,1.68,4-1.83,5.81-3.07,7.22-2.74-5.43-4-1.68m10,24.11,1.68-4-1.83-5.81-3.07-7.22-2.74,5.43-4,1.68M67.55,21.71l-1.68,4,1.84,5.81,3.06,7.22,2.74-5.43,4-1.68m-10,24.11-1.68-4,1.84-5.81,3.06-7.22,2.74,5.43,4,1.68M47.61,33.28l5.81-1.79,7.21-3.06-5.38-2.75M47.61,44.14l5.81,1.79L60.63,49l-5.38,2.74M73.51,33.28l-5.8-1.79-7.22-3.06,5.38-2.75m7.64,18.46-5.8,1.79L60.49,49l5.38,2.74"/><path class="cls-1" d="M48.16,25.11a19.63,19.63,0,0,1,2-1.58,5.17,5.17,0,0,0-5.84.66A1.79,1.79,0,0,0,44,26.7a9.27,9.27,0,0,0,1.76,1.07,2,2,0,0,0,2.41-2.66Z"/><path class="cls-1" d="M73.34,25.45a19.23,19.23,0,0,0-3.07-2.4c.55-.37,3.69-.87,5.34.23a5.66,5.66,0,0,1,1,1,1.7,1.7,0,0,1,.18,2.17c-.36.53-.75,1.21-1.38,1.36-1.61.37-2.51-.64-2.1-2.41Z"/><path class="cls-1" d="M46.16,50.2c-.39-.49-.74-1-1.07-1.49a7.75,7.75,0,0,0-.43,1.46c-.2,1-.4,2.28.46,3.06,1.15,1.05,2.33.27,3.11-.84.3-.44.34-1-.39-1.9a1.26,1.26,0,0,0-1.68-.29Z"/><path class="cls-1" d="M73.54,50.74c-.7.56-.7,1-.49,1.51a3.3,3.3,0,0,0,2.24,1.64c.86.17,1.86-.85,1.81-1.82a6.27,6.27,0,0,0-1-3.43,11.94,11.94,0,0,1-1.25,1.72,1.06,1.06,0,0,0-1.28.38Z"/><path class="cls-3" d="M98.45,32.75l0-4.49c0-2.06.11-3.1-.66-4M87.54,35c0-2.17.07-4.35.1-6.52,0-1.64,0-1.78-.76-2.71m-64.21,7,0-4.49c0-2.06-.11-3.1.66-4M33.58,35c0-2.17-.07-4.35-.1-6.52,0-1.64,0-1.78.76-2.71M13.46,30.2l-.06-4.89c0-1-.18-2.8.5-3.07M7.6,19.7c-.75.66-.61,1.52-.67,2.68L6.8,27.22M2.51,16.71a1.69,1.69,0,0,0-.37,1.37v6m116.48-7.39a1.69,1.69,0,0,1,.37,1.37v6m-5.47-4.4c.75.66.61,1.52.67,2.68l.13,4.84m-6.66,3,.06-4.89c0-1,.18-2.8-.5-3.07"/></g></g></svg>