<svg xmlns="http://www.w3.org/2000/svg" viewBox="0 0 121.54 60.56"><defs><style>.cls-1,.cls-3{fill:#fff;fill-rule:evenodd;}.cls-1,.cls-2,.cls-3,.cls-4{stroke:#9d9d9d;stroke-linecap:round;stroke-linejoin:round;}.cls-1,.cls-2{stroke-width:0.99px;}.cls-2,.cls-4{fill:none;}.cls-3,.cls-4{stroke-width:0.57px;}</style></defs><title>Side_Stone_02</title><g id="Слой_2" data-name="Слой 2"><g id="Слой_1-2" data-name="Слой 1"><path class="cls-1" d="M40.1,21.7,19.43,31C14.09,30,9.37,28.5,5.86,26c-12.13-8.66-1.2-16,8.39-19.5C24.9,2.63,40.87.77,60.77.5c19.9.27,35.87,2.13,46.52,6,9.59,3.48,20.52,10.84,8.39,19.5-3.51,2.51-8.23,4-13.57,5L81.44,21.7l21.09-2.89C91.83,16,77.47,14.69,60.77,14.42,44.07,14.69,29.71,16,19,18.81L40.1,21.7Z"/><path class="cls-1" d="M21.17,24.88l-2.35-.56c-2.29,4.32-1.1,9.48.81,13.7l2.09-1.36q-.27-5.89-.55-11.78Z"/><path class="cls-1" d="M100.43,24.88l2.34-.56c2.29,4.32,1.1,9.48-.81,13.7l-2.09-1.36q.27-5.89.56-11.78Z"/><path class="cls-1" d="M86.72,21.79c-.25-.51-.53-.94-.77-1.44a13.74,13.74,0,0,1,7.41-2,17.57,17.57,0,0,1,7,1.56,8.19,8.19,0,0,1-1.47,2.57C96.14,20,91.66,20,88.61,21.79Z"/><path class="cls-1" d="M86.36,21.09l4.51-2.42c-1.68-1.64-6.05-2-8.26-.27-.14.37-.28.73-.43,1.1l4.18,1.59Z"/><path class="cls-1" d="M82,21l1.32,2.72L88.14,27a1,1,0,0,0,1-.07,5.12,5.12,0,0,0,2.21-2.21.73.73,0,0,0-.29-1.1c-3.25-2.18-5.39-4-9.4-4.67l-.91,1.1L82,21Z"/><path class="cls-1" d="M35.12,21.09l-4.51-2.42c1.68-1.64,6-2,8.26-.27.14.37.28.73.43,1.1l-4.18,1.59Z"/><path class="cls-1" d="M34.76,21.79c.25-.51.53-.94.77-1.44a13.74,13.74,0,0,0-7.41-2,17.57,17.57,0,0,0-7,1.56,8.19,8.19,0,0,0,1.47,2.57C25.34,20,29.82,20,32.87,21.79Z"/><path class="cls-1" d="M39.47,21c-.45.91-.89,1.81-1.33,2.72L33.34,27a1,1,0,0,1-1-.07,5.12,5.12,0,0,1-2.21-2.21.73.73,0,0,1,.29-1.1c3.25-2.18,5.39-4,9.4-4.67.31.37.61.74.92,1.1l-1.23,1Z"/><path class="cls-1" d="M100.32,19.87a27.16,27.16,0,0,0-6.4-1.56A39.56,39.56,0,0,1,99.48,18c2.3.1,3.72,1.06,3.77,3.36a11.94,11.94,0,0,1-1.58,4c-.5.54-1,.8-1.41.44l-1.93-2.07c-.19-.24,0-.65.51-1.26a10.36,10.36,0,0,0,1.48-2.59Z"/><path class="cls-1" d="M21.16,19.87a27.16,27.16,0,0,1,6.4-1.56A39.56,39.56,0,0,0,22,18c-2.3.1-3.72,1.06-3.77,3.36a11.94,11.94,0,0,0,1.58,4c.5.54,1,.8,1.41.44l1.93-2.07c.19-.24,0-.65-.51-1.26a10.36,10.36,0,0,1-1.48-2.59Z"/><path class="cls-1" d="M84.24,43.48c.29-1.12.57-2.25.86-3.37a8.32,8.32,0,0,0,2.21-1.33c.89-.78,1.45-1,1.69-.72l1.79,1.74c.36.64-.2,1.23-1,1.81a8.65,8.65,0,0,1-5.51,1.87Z"/><path class="cls-1" d="M37.24,43.48c-.29-1.12-.57-2.25-.86-3.37a8.48,8.48,0,0,1-2.21-1.33c-.89-.78-1.45-1-1.69-.72L30.69,39.8c-.36.64.2,1.23,1,1.81a8.65,8.65,0,0,0,5.51,1.87Z"/><path class="cls-1" d="M90.57,40.2l-2.9,2.46c3.09.73,6.72.21,11.14-2.18.22-.61.45-1.22.67-1.82L90.57,40.2Z"/><path class="cls-1" d="M30.91,40.2l2.9,2.46c-3.09.73-6.71.21-11.14-2.18-.22-.61-.45-1.22-.67-1.82l8.91,1.54Z"/><path class="cls-1" d="M102.71,39.48a1.75,1.75,0,0,0-1-2.2,1.86,1.86,0,0,0-3,1.12,4.86,4.86,0,0,1-.22,1.86,2.31,2.31,0,0,0,2.63,1,2.79,2.79,0,0,0,1.52-1.78Z"/><path class="cls-1" d="M18.77,39.48a1.75,1.75,0,0,1,1-2.2A2.72,2.72,0,0,1,21.49,37,2.74,2.74,0,0,1,22.7,38.4a4.86,4.86,0,0,0,.22,1.86,2.31,2.31,0,0,1-2.63,1,2.79,2.79,0,0,1-1.52-1.78Z"/><path class="cls-1" d="M94.34,21.78l2.61,1,2.52,1L101,26.24q.72,1.2,1.44,2.37c0,1,0,1.92-.08,2.88l-.09,2.89-1.59,2.39L99,39.21l-2.59,1-2.67,1.09-2.69-.77-2.77-.8-1.7-2.45-1.73-2.5q0-1.57.09-3.18c0-1,.06-2.11.1-3.17l1.87-2.54,1.85-2.48,2.82-.85,2.74-.83Z"/><path class="cls-1" d="M27.14,21.78l-2.61,1-2.52,1-1.48,2.41q-.72,1.2-1.44,2.37l.08,2.88.09,2.89,1.59,2.39,1.61,2.44,2.59,1,2.67,1.09,2.69-.77,2.77-.8c.57-.81,1.13-1.62,1.7-2.45s1.15-1.66,1.73-2.5q0-1.57-.09-3.18l-.09-3.17-1.88-2.54L32.7,23.46l-2.82-.85-2.74-.83Z"/><path class="cls-2" d="M19,18.81c-5.15-.93-7.54-3.21-7.84-5.17C9.64,3.45,54.7,2,60.88,2.1,67.05,2,112.12,3.45,110.6,13.64c-.29,2-2.68,4.24-7.84,5.17"/><path class="cls-1" d="M60.77,9A25.55,25.55,0,1,1,35.22,34.52,25.55,25.55,0,0,1,60.77,9Z"/><path class="cls-3" d="M60.77,11.93A22.59,22.59,0,1,1,38.19,34.52,22.59,22.59,0,0,1,60.77,11.93Z"/><path class="cls-4" d="M38.19,34.52l6.67-6.67V18.5h9.39L60.8,12M38.19,34.52l6.67,6.67v9.34h9.39l6.55,6.55M83.35,34.52l-6.67-6.67V18.5H67.29L60.74,12M83.35,34.52l-6.67,6.67v9.34H67.29l-6.55,6.55M52.18,13.63l2.07,4.87L52,25.65l-3.77,8.87-3.36-6.67-4.92-2.07M52.18,55.41l2.07-4.88L52,43.39l-3.77-8.87-3.36,6.67-4.92,2.07M69.36,13.63,67.29,18.5l2.26,7.15,3.77,8.87,3.36-6.67,4.92-2.07M69.36,55.41l-2.07-4.88,2.26-7.14,3.77-8.87,3.36,6.67,4.92,2.07M44.86,27.85,52,25.65l8.87-3.77L54.25,18.5M44.86,41.19,52,43.39l8.87,3.77-6.61,3.37M76.68,27.85l-7.13-2.2-8.87-3.77,6.61-3.38m9.39,22.69-7.13,2.2-8.87,3.77,6.61,3.37"/><path class="cls-1" d="M79.88,11.78c-1-.19-2.78.53-4.78,1.61l1.22.84c-.94,1.52-1.46,2.85-.93,3.73a6.64,6.64,0,0,0,3.46,3.12,3.26,3.26,0,0,0,3.21-.63A21.66,21.66,0,0,0,83.79,17a3.38,3.38,0,0,0-.69-3,6.14,6.14,0,0,0-3.22-2.14Z"/><path class="cls-1" d="M83.21,53.59c.19-1-.49-2.59-1.5-4.46l-.78,1.15c-1.42-.89-2.66-1.37-3.48-.88a6.17,6.17,0,0,0-2.91,3.23,3.07,3.07,0,0,0,.58,3,20.93,20.93,0,0,0,3.25,1.62,3.2,3.2,0,0,0,2.85-.65,5.71,5.71,0,0,0,2-3Z"/><path class="cls-1" d="M45.36,14.14l1.23-.87c-1.06-.57-1.69-.82-2.75-1.38a3,3,0,0,0-2.73.19l-2.56,2.37a2.2,2.2,0,0,0-.44,2.66,17,17,0,0,0,2.33,3.49A2.58,2.58,0,0,0,43,21a5.78,5.78,0,0,0,3.2-2.66,2.44,2.44,0,0,0,.32-2.71c-.31-.41-.86-1-1.17-1.46Z"/><path class="cls-1" d="M40.83,50.5c-.32-.41-.6-.79-.88-1.19-.54,1-1,1.89-1.51,2.89a2.9,2.9,0,0,0,.18,2.59l2.25,2.43a2.09,2.09,0,0,0,2.52.42,16.38,16.38,0,0,0,3.31-2.22A2.41,2.41,0,0,0,47.05,53a5.46,5.46,0,0,0-2.52-3,2.3,2.3,0,0,0-2.57-.3l-1.13.84Z"/></g></g></svg>