<svg xmlns="http://www.w3.org/2000/svg" viewBox="0 0 121.54 58.34"><defs><style>.cls-1{fill:#fff;fill-rule:evenodd;}.cls-1,.cls-2,.cls-3{stroke:#9d9d9d;stroke-linecap:round;stroke-linejoin:round;}.cls-1,.cls-2{stroke-width:0.99px;}.cls-2,.cls-3{fill:none;}.cls-3{stroke-width:0.57px;}</style></defs><title>Solitaire_02</title><g id="Слой_2" data-name="Слой 2"><g id="Слой_1-2" data-name="Слой 1"><path class="cls-1" d="M41.74,37.54c9.34,3.51,19,6.76,28.36,10.27,1.09,1.13,2,2.37,3.1,3.51,2.18,2.33,1.13,4.92-1.86,5.71-7.94,2.09-23.14-.12-30.52-3.42A163.09,163.09,0,0,1,4.56,31.48C2.22,29.57.82,26.61.5,22.6q0-3.74.1-7.47C1.45,9.06,7.84,5,20.8,3.18,34.41,1.28,48.22.93,62.1.5c27,.57,43.77,3.46,54.14,7.77,3.14,1.51,4.83,3.66,4.8,6.55q0,3.59-.1,7.17c0,4.39-3.7,5.25-8.49,4.4a73,73,0,0,1-13.51-4.1C89,18.47,79.42,15.5,70.49,14.41c-6.31,0-12.59.07-18.9,0-16.35.66-27.86,2.07-36.94,4.3C21.91,26,30.9,31.94,41.74,37.54Z"/><path class="cls-2" d="M73.08,14.78c-7.31-2.13-15-2-22.58-1.83-1.59.06-2.87-.22-3.49-1.22a2.6,2.6,0,0,1,.29-2.89C48.73,7,50.62,7.32,52.64,6.66c.7-.22,1.36-.58,2.31-1,1.88-.76,2.4-.56,5.82-.23,9,.88,18.34,3.2,27.06,4.87a85.26,85.26,0,0,0,19.41,2.26c3.46,0,7.05-1.43,3.13-2.87-11.22-4.13-29.45-6.2-54-6.53A265.18,265.18,0,0,0,18.21,7.56c-9.1,2.08-9.56,6-3.56,11.18M46.73,10.8c0-1.39.85-2.19,2.84-2.24a232.3,232.3,0,0,1,31.86,2.26c7.6,1.12,15.17,2.71,23.26,4.51,2.31.51,12,2,15-.22,1.26-.93,1.32-2.54-.89-5.22M74.32,53.4c-1.32-2.92-6.3-.59-9-.25a44.51,44.51,0,0,1-24.41-4.26c-10-4.66-34.24-21.43-38.32-32.6C1.41,12.76,2.28,9.7,6.42,7.41"/><path class="cls-1" d="M61.31,11.52A20.28,20.28,0,1,1,41,31.8,20.29,20.29,0,0,1,61.31,11.52Z"/><path class="cls-3" d="M41,31.8l6-6V17.42h8.44l5.88-5.88M41,31.8l6,6v8.39h8.44l5.88,5.88M81.6,31.8l-6-6V17.42H67.17l-5.88-5.88M81.6,31.8l-6,6v8.39H67.17l-5.88,5.88M53.6,13l1.86,4.38-2,6.41-3.38,8-3-6L42.61,24m11,26.61,1.86-4.38-2-6.41-3.38-8-3,6-4.41,1.86M69,13l-1.86,4.38,2,6.41,3.38,8,3-6L80,24M69,50.56l-1.86-4.38,2-6.41,3.38-8,3,6L80,39.65M47,25.81l6.41-2,8-3.38-5.93-3M47,37.79l6.41,2,8,3.38-5.93,3M75.6,25.81l-6.4-2-8-3.38,5.93-3M75.6,37.79l-6.4,2-8,3.38,5.93,3"/></g></g></svg>