<svg xmlns="http://www.w3.org/2000/svg" viewBox="0 0 121.54 71.79"><defs><style>.cls-1,.cls-4{fill:#fff;fill-rule:evenodd;}.cls-1,.cls-2,.cls-3,.cls-4{stroke:#9d9d9d;stroke-linecap:round;stroke-linejoin:round;}.cls-1,.cls-2{stroke-width:0.99px;}.cls-2,.cls-3{fill:none;}.cls-3,.cls-4{stroke-width:0.57px;}</style></defs><title>Solitaire_01</title><g id="Слой_2" data-name="Слой 2"><g id="Слой_1-2" data-name="Слой 1"><path class="cls-1" d="M71.7,37.49l8.79,10.93c4.86-4.34,14.52-5.71,21-7.45,6.22-1.67,12.8-3.93,16.23-8,2.27-2.7,3.28-6.15,3.31-11.1,0-5.63-2.25-10-8.45-13.36C101.09,3,83,.7,60.77.5,38.51.7,20.45,3,8.94,8.5,2.74,11.86.47,16.23.5,21.86c0,4.95,1,8.4,3.3,11.1C7.23,37,13.81,39.3,20,41c6.49,1.74,16.15,3.11,21,7.45l8.79-10.93-5.27-8.3c-2-2.6-5.16-3.43-9-3.7A44.38,44.38,0,0,1,27,24.07c-2.77-.77-5.32-1.24-7.42-1.9,9.86-3.4,24.49-4.66,41.19-5,16.71.32,31.33,1.58,41.19,5-2.1.66-4.65,1.13-7.42,1.9A44.38,44.38,0,0,1,86,25.49c-3.88.27-7.08,1.1-9,3.7q-2.62,4.15-5.27,8.3Z"/><path class="cls-2" d="M102,22.17c5.5-1.57,10.1-3.84,10.08-6.42,0-3.19-4.45-4.86-12.82-7.2A178,178,0,0,0,60.77,4,178,178,0,0,0,22.33,8.55c-8.38,2.34-12.8,4-12.83,7.2,0,2.58,4.58,4.85,10.08,6.42"/><path class="cls-3" d="M8.94,8.5C2.36,13,1.86,16.94,5.85,19.28,17.47,26.09,30.18,28.5,41.1,39.93M112.6,8.5c6.58,4.47,7.09,8.44,3.09,10.78-11.62,6.81-24.33,9.22-35.24,20.65"/><path class="cls-1" d="M61,25.81A22.74,22.74,0,1,1,38.24,48.55,22.75,22.75,0,0,1,61,25.81Z"/><path class="cls-4" d="M61,27.81A20.75,20.75,0,1,1,40.23,48.55,20.75,20.75,0,0,1,61,27.81Z"/><path class="cls-3" d="M40.23,48.55l6.13-6.13V33.84H55l6-6M40.23,48.55l6.13,6.13v8.59H55l6,6M81.72,48.55l-6.13-6.13V33.84H67l-6-6M81.72,48.55l-6.13,6.13v8.59H67l-6,6M53.08,29.36,55,33.84,52.91,40.4l-3.46,8.15-3.09-6.13-4.52-1.89M53.08,67.75,55,63.27,52.91,56.7l-3.46-8.14-3.09,6.12-4.52,1.9m27-27.22L67,33.84,69,40.4l3.46,8.15,3.09-6.13,4.52-1.89M68.87,67.75,67,63.27,69,56.7l3.46-8.14,3.09,6.12,4.52,1.9M46.36,42.42l6.55-2,8.14-3.46L55,33.84M46.36,54.68l6.55,2,8.14,3.46L55,63.27m20.6-20.85L69,40.4,60.9,36.94,67,33.84m8.62,20.84L69,56.7,60.9,60.16,67,63.27"/><path class="cls-1" d="M45.66,31.76a25.1,25.1,0,0,1,2.43-2,6.38,6.38,0,0,0-7.21.83,2.2,2.2,0,0,0-.37,3.09A11,11,0,0,0,42.7,35a2.41,2.41,0,0,0,3-3.28Z"/><path class="cls-1" d="M76.75,32.18a23.32,23.32,0,0,0-3.79-3c.68-.46,4.56-1.07,6.59.28a6.83,6.83,0,0,1,1.28,1.3A2.06,2.06,0,0,1,81,33.47c-.44.66-.91,1.51-1.69,1.68-2,.46-3.1-.78-2.6-3Z"/><path class="cls-1" d="M43.2,62.74a20.17,20.17,0,0,1-1.32-1.84,8.46,8.46,0,0,0-.54,1.81c-.24,1.28-.49,2.81.57,3.77,1.42,1.3,2.88.33,3.84-1,.37-.54.42-1.29-.48-2.34a1.55,1.55,0,0,0-2.07-.36Z"/><path class="cls-1" d="M77,63.4c-.86.69-.86,1.3-.61,1.87a4.07,4.07,0,0,0,2.77,2c1.06.21,2.29-1,2.23-2.25a7.67,7.67,0,0,0-1.27-4.23,13.45,13.45,0,0,1-1.54,2.12A1.31,1.31,0,0,0,77,63.4Z"/></g></g></svg>