<svg xmlns="http://www.w3.org/2000/svg" viewBox="0 0 121.12 68.97"><defs><style>.cls-1,.cls-4{fill:#fff;fill-rule:evenodd;}.cls-1,.cls-2,.cls-3,.cls-4,.cls-5{stroke:#9d9d9d;stroke-linecap:round;stroke-linejoin:round;}.cls-1,.cls-2{stroke-width:0.99px;}.cls-2,.cls-3,.cls-5{fill:none;}.cls-3{stroke-width:0.99px;}.cls-4,.cls-5{stroke-width:0.57px;}</style></defs><title>Vintage_02</title><g id="Слой_2" data-name="Слой 2"><g id="Слой_1-2" data-name="Слой 1"><path class="cls-1" d="M72.35,49.28l7.47,5.6,11.82-1.74v-5c12.8-2.34,23.91-5.58,28.38-12.32a87.74,87.74,0,0,0,0-19.91C117.2,6.81,95.9,1.27,60.56.5,25.22,1.27,3.92,6.81,1.1,15.93a87.17,87.17,0,0,0,0,19.91c4.46,6.74,15.58,10,28.37,12.32v5L41.3,54.88l7.46-5.6V31.74c0-2.67-.66-4.43-2.23-4.86-6.48-1.33-11.76-2.33-18.23-3.66a174.79,174.79,0,0,1,32.26-3.35,174.79,174.79,0,0,1,32.26,3.35c-6.47,1.33-11.76,2.33-18.23,3.66-1.58.43-2.26,2.19-2.24,4.86V49.28Z"/><path class="cls-2" d="M29.47,48.16V31.44L44.86,33c1.34-1.09,4-2.66,3.55-4.14"/><path class="cls-3" d="M91.64,48.16V31.44L76.26,33c-1.35-1.09-4-2.66-3.55-4.14"/><path class="cls-2" d="M29.47,31.44c.76-.8,1.51-1.61,2.26-2.41-6.5-1.06-27.59-4.61-30-11.56a4.13,4.13,0,0,1,.49-3.79M91.64,31.44,89.38,29c6.51-1.06,27.6-4.61,30-11.56a4.13,4.13,0,0,0-.49-3.79M28.3,23.22c-10.46-2.11-14.93-6-14.69-9.18,1.14-15.15,92.75-15.15,93.9,0,.24,3.22-4.23,7.07-14.69,9.18"/><path class="cls-4" d="M15.58,26.91c1.59,0,2.87,1.83,2.87,4.09s-1.28,4.08-2.87,4.08S12.71,33.25,12.71,31s1.29-4.09,2.87-4.09Z"/><path class="cls-4" d="M105.53,26.91c-1.58,0-2.87,1.83-2.87,4.09s1.29,4.08,2.87,4.08,2.87-1.83,2.87-4.08-1.28-4.09-2.87-4.09Z"/><path class="cls-4" d="M9.74,25c1.37,0,2.49,1.82,2.49,4.06s-1.12,4.06-2.49,4.06-2.49-1.82-2.49-4.06S8.36,25,9.74,25Z"/><path class="cls-4" d="M111.38,25c-1.38,0-2.49,1.82-2.49,4.06s1.11,4.06,2.49,4.06,2.49-1.82,2.49-4.06S112.75,25,111.38,25Z"/><path class="cls-4" d="M5.49,23c1.06,0,1.92,1.8,1.92,4s-.86,4-1.92,4-1.93-1.79-1.93-4,.87-4,1.93-4Z"/><path class="cls-4" d="M115.63,23c-1.06,0-1.92,1.8-1.92,4s.86,4,1.92,4,1.92-1.79,1.92-4-.86-4-1.92-4Z"/><path class="cls-4" d="M2,20.83c1,0,1.72,1.69,1.72,3.77S3,28.37,2,28.37.28,26.68.28,24.6,1.05,20.83,2,20.83Z"/><path class="cls-4" d="M119.11,20.83c-1,0-1.71,1.69-1.71,3.77s.76,3.77,1.71,3.77,1.72-1.69,1.72-3.77-.77-3.77-1.72-3.77Z"/><path class="cls-4" d="M22.16,28.75c1.72,0,3.11,1.88,3.11,4.19s-1.39,4.2-3.11,4.2-3.11-1.88-3.11-4.2,1.39-4.19,3.11-4.19Z"/><path class="cls-4" d="M99,28.75c-1.72,0-3.11,1.88-3.11,4.19s1.39,4.2,3.11,4.2,3.12-1.88,3.12-4.2-1.4-4.19-3.12-4.19Z"/><path class="cls-4" d="M29.39,29.89a2.54,2.54,0,0,1,1.24.32l-1.16,1.23v6.94h-.08c-1.8,0-3.25-1.9-3.25-4.25s1.45-4.24,3.25-4.24Z"/><path class="cls-4" d="M91.73,29.89a2.54,2.54,0,0,0-1.24.32l1.15,1.23v6.94h.09c1.79,0,3.25-1.9,3.25-4.25s-1.46-4.24-3.25-4.24Zm-2.67,1.82h0l2.58-.27-2.58.27Z"/><path class="cls-4" d="M15.58,35.41c1.59,0,2.87,1.89,2.87,4.22s-1.28,4.21-2.87,4.21S12.71,42,12.71,39.63s1.29-4.22,2.87-4.22Z"/><path class="cls-4" d="M105.53,35.41c-1.58,0-2.87,1.89-2.87,4.22s1.29,4.21,2.87,4.21,2.87-1.89,2.87-4.21-1.28-4.22-2.87-4.22Z"/><path class="cls-4" d="M9.74,33.42c1.37,0,2.49,1.86,2.49,4.15s-1.12,4.15-2.49,4.15-2.49-1.86-2.49-4.15,1.11-4.15,2.49-4.15Z"/><path class="cls-4" d="M111.38,33.42c-1.38,0-2.49,1.86-2.49,4.15s1.11,4.15,2.49,4.15,2.49-1.86,2.49-4.15-1.12-4.15-2.49-4.15Z"/><path class="cls-4" d="M5.49,31.33c1.06,0,1.92,1.7,1.92,3.8s-.86,3.8-1.92,3.8-1.93-1.7-1.93-3.8.87-3.8,1.93-3.8Z"/><path class="cls-4" d="M115.63,31.33c-1.06,0-1.92,1.7-1.92,3.8s.86,3.8,1.92,3.8,1.92-1.7,1.92-3.8-.86-3.8-1.92-3.8Z"/><path class="cls-4" d="M2.23,28.71c1,0,1.71,1.52,1.71,3.4s-.76,3.4-1.71,3.4S.51,34,.51,32.11s.77-3.4,1.72-3.4Z"/><path class="cls-4" d="M118.89,28.71c-1,0-1.72,1.52-1.72,3.4s.77,3.4,1.72,3.4,1.72-1.52,1.72-3.4-.77-3.4-1.72-3.4Z"/><path class="cls-4" d="M22.16,37.47c1.72,0,3.11,1.88,3.11,4.19s-1.39,4.2-3.11,4.2-3.11-1.88-3.11-4.2,1.39-4.19,3.11-4.19Z"/><path class="cls-4" d="M99,37.47c-1.72,0-3.11,1.88-3.11,4.19s1.39,4.2,3.11,4.2,3.12-1.88,3.12-4.2-1.4-4.19-3.12-4.19Z"/><path class="cls-4" d="M29.39,38.72h.08v8.49h-.08c-1.8,0-3.25-1.9-3.25-4.24s1.45-4.25,3.25-4.25Z"/><path class="cls-4" d="M91.73,38.72h-.09v8.49h.09c1.79,0,3.25-1.9,3.25-4.24s-1.46-4.25-3.25-4.25Z"/><path class="cls-4" d="M7.84,14.84c1.88,0,3.4.39,3.4.87s-1.52.86-3.4.86-3.41-.39-3.41-.86,1.52-.87,3.41-.87Z"/><path class="cls-4" d="M113.28,14.84c-1.88,0-3.41.39-3.41.87s1.53.86,3.41.86,3.41-.39,3.41-.86-1.53-.87-3.41-.87Z"/><path class="cls-4" d="M9,17.12c1.88,0,3.41.4,3.41.9s-1.53.91-3.41.91-3.41-.4-3.41-.91,1.53-.9,3.41-.9Z"/><path class="cls-4" d="M112.07,17.12c-1.88,0-3.4.4-3.4.9s1.52.91,3.4.91,3.41-.4,3.41-.91-1.52-.9-3.41-.9Z"/><path class="cls-4" d="M11.77,19.29c-2,0-3.59.52-3.59,1.18s1.61,1.18,3.59,1.18,3.59-.53,3.59-1.18-1.61-1.18-3.59-1.18Z"/><path class="cls-4" d="M109.35,19.29c2,0,3.59.52,3.59,1.18s-1.61,1.18-3.59,1.18-3.59-.53-3.59-1.18,1.61-1.18,3.59-1.18Z"/><path class="cls-4" d="M16.72,21.47c-2.21,0-4,.55-4,1.22s1.79,1.23,4,1.23,4-.55,4-1.23-1.79-1.22-4-1.22Z"/><path class="cls-4" d="M104.4,21.47c2.2,0,4,.55,4,1.22s-1.79,1.23-4,1.23-4-.55-4-1.23,1.79-1.22,4-1.22Z"/><path class="cls-4" d="M23.18,23.48c-2.48,0-4.5.63-4.5,1.41s2,1.41,4.5,1.41,4.5-.64,4.5-1.41-2-1.41-4.5-1.41Z"/><path class="cls-4" d="M97.93,23.48c2.49,0,4.5.63,4.5,1.41s-2,1.41-4.5,1.41-4.49-.64-4.49-1.41,2-1.41,4.49-1.41Z"/><path class="cls-4" d="M31.8,24.92c2.61,0,4.73.67,4.73,1.5s-2.12,1.5-4.73,1.5-4.72-.67-4.72-1.5,2.11-1.5,4.72-1.5Z"/><path class="cls-4" d="M89.31,24.92c-2.61,0-4.72.67-4.72,1.5s2.11,1.5,4.72,1.5S94,27.25,94,26.42s-2.12-1.5-4.73-1.5Z"/><path class="cls-4" d="M40.11,27c2.61,0,4.73.67,4.73,1.5S42.72,30,40.11,30s-4.72-.67-4.72-1.5S37.5,27,40.11,27Z"/><path class="cls-4" d="M80.94,27c-2.61,0-4.73.67-4.73,1.5S78.33,30,80.94,30s4.72-.67,4.72-1.5S83.55,27,80.94,27Z"/><path class="cls-4" d="M37.49,35.14a4,4,0,1,1-3.91,4,3.93,3.93,0,0,1,3.91-4Z"/><path class="cls-4" d="M83.63,35.14a4,4,0,1,0,3.9,4,3.93,3.93,0,0,0-3.9-4Z"/><path class="cls-4" d="M37.3,43.13a4,4,0,1,1-3.9,4,3.94,3.94,0,0,1,3.9-4Z"/><path class="cls-4" d="M83.82,43.13a4,4,0,1,0,3.9,4,3.93,3.93,0,0,0-3.9-4Z"/><path class="cls-5" d="M44.46,35.55l-13-1.38V51.28l9.8,1.16M76.65,35.55l13.06-1.38V51.28l-9.8,1.16"/><path class="cls-1" d="M60.56,28.81A19.84,19.84,0,1,1,40.72,48.64,19.83,19.83,0,0,1,60.56,28.81Z"/><path class="cls-5" d="M40.72,48.64l5.86-5.86v-8.2h8.25l5.75-5.75M40.72,48.64l5.86,5.86v8.21h8.25l5.75,5.74M80.39,48.64l-5.86-5.86v-8.2H66.28l-5.74-5.75M80.39,48.64,74.53,54.5v8.21H66.28l-5.74,5.74M53,30.3l1.82,4.28-2,6.27-3.31,7.79-3-5.86L42.26,41M53,67l1.82-4.28-2-6.28-3.31-7.78-3,5.85-4.32,1.82m25.84-26-1.82,4.28,2,6.27,3.31,7.79,3-5.86L78.85,41M68.1,67l-1.82-4.28,2-6.28,3.31-7.78,3,5.85,4.32,1.82M46.58,42.78l6.27-1.93,7.78-3.31-5.8-3M46.58,54.5l6.27,1.93,7.78,3.31-5.8,3m19.7-19.93-6.26-1.93-7.79-3.31,5.8-3M74.53,54.5l-6.26,1.93-7.79,3.31,5.8,3"/><path class="cls-1" d="M47.2,34a18.91,18.91,0,0,1,5.26-3.46C50.26,30,47,30,44.89,31.82,43.52,33,42.51,34.67,43.58,36a3.37,3.37,0,0,0,1,.85A2.11,2.11,0,0,0,47.2,34Z"/><path class="cls-1" d="M74.32,34.36a19.82,19.82,0,0,0-4.26-3.13,9.6,9.6,0,0,1,5.15-.16,7.23,7.23,0,0,1,2.67,2.09,1.82,1.82,0,0,1,.18,2.33c-.39.57-.8,1.31-1.48,1.47-1.73.39-2.7-.69-2.26-2.6Z"/><path class="cls-1" d="M45.05,61a18.9,18.9,0,0,1-1.15-1.6A8.09,8.09,0,0,0,43.43,61c-.21,1.12-.42,2.45.5,3.29,1.24,1.13,2.51.29,3.35-.91.32-.47.37-1.12-.42-2A1.36,1.36,0,0,0,45.05,61Z"/><path class="cls-1" d="M74.54,61.59c-.76.61-.76,1.13-.54,1.63A3.55,3.55,0,0,0,76.42,65c.92.19,2-.91,2-2a6.68,6.68,0,0,0-1.11-3.68,13.62,13.62,0,0,1-1.35,1.85,1.13,1.13,0,0,0-1.37.4Z"/></g></g></svg>