<svg xmlns="http://www.w3.org/2000/svg" viewBox="0 0 41.1 72.28"><defs><style>.cls-1{fill:none;stroke:#9d9d9d;stroke-linecap:round;stroke-linejoin:round;stroke-width:1.42px;}</style></defs><title>Cut_Oval</title><g id="Слой_2" data-name="Слой 2"><g id="Слой_1-2" data-name="Слой 1"><path class="cls-1" d="M20.55.71c11,0,19.84,15.86,19.84,35.43S31.51,71.57,20.55,71.57.71,55.71.71,36.14,9.59.71,20.55.71ZM.71,36.14,6.57,25.67V11h8.25L20.57.75M.71,36.14,6.57,46.61V61.27h8.25l5.75,10.27M40.39,36.14,34.53,25.67V11H26.28L20.53.75M40.39,36.14,34.53,46.61V61.27H26.28L20.53,71.54M13,3.36,14.82,11l-2,11.21L9.53,36.14l-3-10.46L2.25,22.43M13,68.92l1.82-7.65-2-11.21L9.53,36.15l-3,10.46L2.25,49.85M28.1,3.36,26.28,11l2,11.21,3.31,13.91,3-10.46,4.32-3.24M28.1,68.92l-1.82-7.65,2-11.21,3.31-13.91,3,10.46,4.32,3.24M6.57,25.67l6.27-3.45,7.79-5.91L14.82,11M6.57,46.61l6.27,3.45L20.63,56l-5.8,5.3M34.53,25.67l-6.27-3.45-7.79-5.91,5.8-5.3m8.25,35.59-6.27,3.45L20.47,56l5.8,5.3"/></g></g></svg>