<svg xmlns="http://www.w3.org/2000/svg" viewBox="0 0 72.28 72.28"><defs><style>.cls-1{fill:none;stroke:#9d9d9d;stroke-linecap:round;stroke-linejoin:round;stroke-width:1.42px;}</style></defs><title>Cut_Princess</title><g id="Слой_2" data-name="Слой 2"><g id="Слой_1-2" data-name="Слой 1"><path class="cls-1" d="M.71.71H71.57V71.57H.71V.71ZM54.52,17.76,65.27,53.61l6.3,18L53.51,65.24,17.76,54.52,7.06,18.84.71.71,18.07,7,54.52,17.76Zm0,36.75L18.67,65.27l-18,6.3L7,53.51,17.76,17.76,53.44,7.06,71.57.71,65.26,18.07,54.52,54.52Zm-36.75,0L7,53.51V18.84l10.73-1.07.44-10.71H53.45l1.07,10.7,10.74.31V53.61l-10.74.91-.87,10.75h-35l-.91-10.75Z"/></g></g></svg>