<svg xmlns="http://www.w3.org/2000/svg" viewBox="0 0 51.77 72.28"><defs><style>.cls-1{fill:none;stroke:#9d9d9d;stroke-linecap:round;stroke-linejoin:round;stroke-width:1.42px;}</style></defs><title>Cut_Pear</title><g id="Слой_2" data-name="Слой 2"><g id="Слой_1-2" data-name="Слой 1"><path class="cls-1" d="M25.89.71c12.23,10,21.58,23.47,25.18,44-.9,18.56-9.57,27.16-25.18,26.86-15.61.3-24.28-8.3-25.18-26.86,3.6-20.53,12.95-34,25.18-44Zm0,70.86-9.23-7.67-5.4-18.82L7.9,36.8l.69-15.46,12.26-6,5-14.63m0,70.86,9.23-7.67,5.4-18.82,3.36-8.27-.69-15.46-12.26-6L25.89.71m-9.26,9,4.22,5.66-4.24,13.2L11.26,45.07l-5,9.2-.14,8.95,10.54.68L13,69.05M35.15,9.67l-4.22,5.66,4.24,13.2,5.35,16.54,5,9.2.14,8.95-10.54.68,3.66,5.16M20.85,15.34l5,4.87-9.28,8.32L7.9,36.8.73,45.12l5.53,9.15,8.36,2.5,11.28,2.46-9.23,4.67M30.92,15.34l-5,4.87,9.28,8.32,8.7,8.26L51,45.12l-5.52,9.15-8.36,2.5L25.89,59.23l9.23,4.67M2.86,35.41l5,1.39m41-1.39-5,1.39"/></g></g></svg>