<svg xmlns="http://www.w3.org/2000/svg" viewBox="0 0 50.75 72.28"><defs><style>.cls-1{fill:none;stroke:#9d9d9d;stroke-linecap:round;stroke-linejoin:round;stroke-width:1.42px;}</style></defs><title>Cut_Emerald</title><g id="Слой_2" data-name="Слой 2"><g id="Слой_1-2" data-name="Слой 1"><path class="cls-1" d="M8.89.71h33L50,8.89V63.4l-8.18,8.18h-33L.71,63.4V8.89L8.89.71Zm1.43,3.46L4.17,10.32V62l6.15,6.15h30.1L46.58,62V10.32L40.43,4.17Zm1.43,3.46L7.62,11.75V60.53l4.13,4.13H39l4.13-4.13V11.75L39,7.62Zm1.43,3.46-2.1,2.1V59.1l2.1,2.1H37.56l2.1-2.1V13.19l-2.1-2.1Zm0,0L8.89.71M.71,8.89l10.37,4.3M41.86.71l-4.3,10.37m2.1,2.1L50,8.89M.71,63.4l10.37-4.3m2.1,2.1L8.89,71.57M37.56,61.2l4.3,10.37M39.66,59.1,50,63.4"/></g></g></svg>