<svg xmlns="http://www.w3.org/2000/svg" viewBox="0 0 73.88 72.28"><defs><style>.cls-1{fill:none;stroke:#9d9d9d;stroke-linecap:round;stroke-linejoin:round;stroke-width:1.42px;}</style></defs><title>Cut_Heart</title><g id="Слой_2" data-name="Слой 2"><g id="Слой_1-2" data-name="Слой 1"><path class="cls-1" d="M36.94,8.77c19.52-18,42.86-4.17,34.47,24.67C64.07,49.19,52.46,61.81,36.94,71.57,21.41,61.81,9.8,49.19,2.46,33.44-5.92,4.59,17.41-9.22,36.94,8.77ZM23.43,61.47,29.69,55l7.25-5.68-8-5.9L17.38,37.85,2.46,33.44,11,17.24,21.5,19l15.44-3.84L21.7,10.81,10.26,2.91M50.45,61.47,44.19,55l-7.25-5.68,8-5.9L56.5,37.85l14.92-4.41-8.55-16.2L52.37,19,36.94,15.18l15.24-4.37,11.44-7.9m-33.74.76L21.7,10.81l-.48-10M44,3.67l8.17,7.13.48-10m-31,10L21.5,19l-.89,8.89-3.23,9.94V55.56L29.69,55M52.18,10.81l.2,8.21.89,8.89,3.23,9.94V55.56L44.19,55M37.63,71.4,29.69,55M36.25,71.4,44.19,55M10.26,2.91,11,17.24l9.6,10.67L28.9,43.47,29.69,55M63.61,2.91l-.75,14.33-9.6,10.67L45,43.47,44.19,55M2,13.31l9,3.94m60.83-3.94-9,3.94"/></g></g></svg>