<svg xmlns="http://www.w3.org/2000/svg" viewBox="0 0 59.43 72.28"><defs><style>.cls-1{fill:none;stroke:#9d9d9d;stroke-linecap:round;stroke-linejoin:round;stroke-width:1.42px;}</style></defs><title>Cut_Cushion</title><g id="Слой_2" data-name="Слой 2"><g id="Слой_1-2" data-name="Слой 1"><path class="cls-1" d="M34.52.71H24.91A24.28,24.28,0,0,0,.71,24.91V47.37a24.28,24.28,0,0,0,24.2,24.2h9.61a24.28,24.28,0,0,0,24.2-24.2V24.91A24.28,24.28,0,0,0,34.52.71Zm-4.8,0-11,8.9H6.19V22.44l5,13.71,7.58,26.37,11,9M6.2,62.68V50.25l5-14.1,5.37-16.3L18.74,9.61,16.87,2.09m1.86,7.52,11,4.78L16.53,19.86,6.19,22.44H.84m5.36,0L.71,36.14,6.2,50.25,15.72,52,30,57.83l-11.22,4.7-1.6,7.76m1.6-7.76L6.2,62.68M.87,50.16l5.33.09M29.72.71l11,8.9H53.24V22.44l-5,13.71L40.7,62.53l-11,9m23.52-8.9V50.25l-5-14.1L42.9,19.86,40.7,9.61l1.86-7.52M40.7,9.61l-11,4.78L42.9,19.86l10.34,2.59H58.6m-5.36,0,5.49,13.7L53.23,50.25,43.71,52,29.48,57.83l11.22,4.7,1.6,7.76m-1.6-7.76,12.54.15m5.33-12.52-5.33.09"/></g></g></svg>