<svg xmlns="http://www.w3.org/2000/svg" viewBox="0 0 37.09 72.28"><defs><style>.cls-1{fill:none;stroke:#9d9d9d;stroke-linecap:round;stroke-linejoin:round;stroke-width:1.42px;}</style></defs><title>Cut_Marquise</title><g id="Слой_2" data-name="Слой 2"><g id="Слой_1-2" data-name="Слой 1"><path class="cls-1" d="M36.39,36.14C36.37,29,32.69,11,18.55.71,4.41,11,.73,29,.71,36.14s3.7,25.11,17.84,35.43C32.69,61.25,36.37,43.31,36.39,36.14Zm-35.68,0,4.76-8.5,7-7.12,6-5.11L14.75,11,11,8M.71,36.14l4.76,8.5,7,7.12,6,5.11-3.8,4.41-3.77,3M36.39,36.14l-4.76-8.5-7-7.12-6-5.11L22.34,11l3.77-3M36.39,36.14l-4.76,8.5-7,7.12-6,5.11,3.8,4.41,3.77,3M18.55.71,14.75,11,5.32,17.31l.15,10.33,3.64,8.5m9.44,35.43-3.8-10.3L5.32,55l.15-10.33,3.64-8.5M18.55.71,22.34,11l9.43,6.31-.15,10.33L28,36.14M18.55,71.57l3.8-10.3L31.77,55l-.15-10.33L28,36.14M14.75,11l-2.24,9.52L9.1,36.14m5.65,25.13-2.24-9.52L9.1,36.14M22.34,11l2.24,9.52L28,36.14M22.34,61.28l2.24-9.52L28,36.14M2.08,26.54l3.39,1.1M2.08,45.74l3.39-1.1M35,26.54l-3.39,1.1M35,45.74l-3.39-1.1"/></g></g></svg>