<svg xmlns="http://www.w3.org/2000/svg" viewBox="0 0 50.76 72.28"><defs><style>.cls-1{fill:none;stroke:#9d9d9d;stroke-linecap:round;stroke-linejoin:round;stroke-width:1.42px;}</style></defs><title>Cut_Radiant</title><g id="Слой_2" data-name="Слой 2"><g id="Слой_1-2" data-name="Слой 1"><path class="cls-1" d="M8.89.71h33L50,8.89V63.4l-8.18,8.18h-33L.71,63.4V8.89L8.89.71Zm2.54,6.12-4.6,4.6V60.86l4.6,4.6h27.9l4.6-4.6V11.42l-4.6-4.6ZM8.89.71l2.53,6.12,2,7.51-1.33,22L6.83,60.86.71,63.4M41.87.71,39.34,6.83l-2,7.51,1.33,22,5.28,24.47,6.12,2.53M8.89,71.57l2.53-6.12,2.41-7.71L12.1,36.39l-5.28-25L.71,8.89M41.87,71.57l-2.53-6.12-2.41-7.71,1.72-21.36,5.28-25,6.12-2.53M13.83,57.75l-7,3.11m30.1-3.11,7,3.11M6.83,11.42l6.61,2.92m30.5-2.92-6.61,2.92M11.42,6.83l13.94,5.82-11.93,1.7m25.9-7.51L25.39,12.64l11.93,1.7M11.42,65.46l14-5.54L13.83,57.75m25.51,7.71-14-5.54,11.55-2.17"/></g></g></svg>