<svg xmlns="http://www.w3.org/2000/svg" viewBox="0 0 72.28 72.28"><defs><style>.cls-1{fill:none;stroke:#9d9d9d;stroke-linecap:round;stroke-linejoin:round;stroke-width:1.42px;}</style></defs><title>Cut_Round</title><g id="Слой_2" data-name="Слой 2"><g id="Слой_1-2" data-name="Слой 1"><path class="cls-1" d="M36.14.71A35.43,35.43,0,1,1,.71,36.14,35.43,35.43,0,0,1,36.14.71ZM.71,36.14,11.18,25.67V11H25.91L36.18.75M.71,36.14,11.18,46.61V61.27H25.91L36.18,71.54M71.57,36.14,61.11,25.67V11H46.37L36.1.75M71.57,36.14,61.11,46.61V61.27H46.37L36.1,71.54M22.66,3.36,25.91,11,22.37,22.22,16.45,36.14,11.18,25.67,3.46,22.43m19.2,46.49,3.25-7.65L22.37,50.06,16.45,36.15,11.18,46.61,3.46,49.85M49.62,3.36,46.37,11l3.55,11.21,5.91,13.91,5.28-10.46,7.72-3.24M49.62,68.92l-3.25-7.65,3.55-11.21,5.91-13.91,5.28,10.46,7.72,3.24M11.18,25.67l11.19-3.45,13.91-5.91L25.91,11M11.18,46.61l11.19,3.45L36.28,56l-10.37,5.3m35.2-35.59L49.92,22.22,36,16.31,46.37,11M61.11,46.61,49.92,50.06,36,56l10.37,5.3"/></g></g></svg>