<svg xmlns="http://www.w3.org/2000/svg" viewBox="0 0 101.82 88.6"><defs><style>.cls-1,.cls-3{fill:#fff;fill-rule:evenodd;}.cls-1,.cls-2,.cls-3{stroke:#9d9d9d;stroke-linecap:round;stroke-linejoin:round;}.cls-1{stroke-width:0.99px;}.cls-2{fill:none;}.cls-2,.cls-3{stroke-width:0.57px;}</style></defs><title>Bracelet</title><g id="Слой_2" data-name="Слой 2"><g id="Слой_1-2" data-name="Слой 1"><path class="cls-1" d="M30.52.5a3.83,3.83,0,1,1-3.83,3.83A3.83,3.83,0,0,1,30.52.5Z"/><path class="cls-1" d="M60.72,21.77c3.05,0,4.94.73,5.82,1.75l.4-.08v1.75c0,1.5-2.79,2.71-6.22,2.71s-6.22-1.21-6.22-2.71,3.17-3.42,6.22-3.42Z"/><path class="cls-1" d="M60.72,20.47c3.43,0,6.22,1.21,6.22,2.7s-2.79,2.71-6.22,2.71-6.22-1.21-6.22-2.71,2.78-2.7,6.22-2.7Z"/><path class="cls-1" d="M51.67,20.52a3.83,3.83,0,1,1-3.82,3.83,3.83,3.83,0,0,1,3.82-3.83Z"/><path class="cls-1" d="M44.39,19.49a3.83,3.83,0,1,1-3.83,3.83,3.83,3.83,0,0,1,3.83-3.83Z"/><path class="cls-1" d="M37.09,19.72a3.83,3.83,0,1,1-3.83,3.83,3.82,3.82,0,0,1,3.83-3.83Z"/><path class="cls-1" d="M30.36,20.48a3.83,3.83,0,1,1-3.82,3.83,3.82,3.82,0,0,1,3.82-3.83Z"/><path class="cls-1" d="M23.85,22.19A3.83,3.83,0,1,1,20,26a3.83,3.83,0,0,1,3.83-3.83Z"/><path class="cls-1" d="M17.83,24.54a3.92,3.92,0,1,1-3.92,3.92,3.93,3.93,0,0,1,3.92-3.92Z"/><path class="cls-1" d="M12.7,27.37a3.92,3.92,0,1,1-3.92,3.92,3.93,3.93,0,0,1,3.92-3.92Z"/><path class="cls-1" d="M8.92,31.09A3.92,3.92,0,1,1,5,35a3.92,3.92,0,0,1,3.92-3.92Z"/><path class="cls-1" d="M5.37,34.28A3.92,3.92,0,1,1,1.45,38.2a3.91,3.91,0,0,1,3.92-3.92Z"/><path class="cls-1" d="M4.42,38.72A3.92,3.92,0,1,1,.5,42.64a3.93,3.93,0,0,1,3.92-3.92Z"/><path class="cls-1" d="M4.6,43.37A3.92,3.92,0,1,1,.68,47.29,3.92,3.92,0,0,1,4.6,43.37Z"/><path class="cls-1" d="M6.45,48.09a4,4,0,1,1-4,4,4,4,0,0,1,4-4Z"/><path class="cls-1" d="M8.88,52.07a4,4,0,1,1-4,4,4,4,0,0,1,4-4Z"/><path class="cls-1" d="M13.26,55.92a4,4,0,1,1-4,4,4,4,0,0,1,4-4Z"/><path class="cls-1" d="M18,59.29a4,4,0,1,1-4,4,4,4,0,0,1,4-4Z"/><path class="cls-1" d="M23.66,62.46a4,4,0,1,1-4,4,4,4,0,0,1,4-4Z"/><path class="cls-1" d="M38.18.5A3.83,3.83,0,1,0,42,4.33,3.82,3.82,0,0,0,38.18.5Z"/><path class="cls-1" d="M45,1.13A3.83,3.83,0,1,0,48.82,5,3.84,3.84,0,0,0,45,1.13Z"/><path class="cls-1" d="M51.75,1.83a3.83,3.83,0,1,0,3.83,3.83,3.84,3.84,0,0,0-3.83-3.83Z"/><path class="cls-1" d="M58.52,3.37A3.83,3.83,0,1,0,62.35,7.2a3.83,3.83,0,0,0-3.83-3.83Z"/><path class="cls-1" d="M64.71,5.51a3.83,3.83,0,1,0,3.83,3.83,3.82,3.82,0,0,0-3.83-3.83Z"/><path class="cls-1" d="M70.52,8a3.83,3.83,0,1,0,3.83,3.83A3.82,3.82,0,0,0,70.52,8Z"/><path class="cls-1" d="M75.69,10.81a3.83,3.83,0,1,0,3.83,3.83,3.82,3.82,0,0,0-3.83-3.83Z"/><path class="cls-1" d="M81.07,13.71a3.88,3.88,0,1,0,3.87,3.88,3.88,3.88,0,0,0-3.87-3.88Z"/><path class="cls-1" d="M85.72,16.88a3.88,3.88,0,1,0,3.88,3.88,3.88,3.88,0,0,0-3.88-3.88Z"/><path class="cls-1" d="M90,20.51a3.88,3.88,0,1,0,3.87,3.87A3.87,3.87,0,0,0,90,20.51Z"/><path class="cls-1" d="M92.91,24.51a3.88,3.88,0,1,0,3.88,3.88,3.88,3.88,0,0,0-3.88-3.88Z"/><path class="cls-1" d="M95.4,28.63a3.88,3.88,0,1,0,3.87,3.87,3.87,3.87,0,0,0-3.87-3.87Z"/><path class="cls-1" d="M96.61,32.84a3.88,3.88,0,1,0,3.88,3.88,3.88,3.88,0,0,0-3.88-3.88Z"/><path class="cls-1" d="M97.45,37.15A3.88,3.88,0,1,0,101.33,41a3.88,3.88,0,0,0-3.88-3.87Z"/><path class="cls-1" d="M97.09,41.51A3.88,3.88,0,1,0,101,45.39a3.88,3.88,0,0,0-3.88-3.88Z"/><path class="cls-1" d="M96.09,45.8a4,4,0,1,0,4,4,4,4,0,0,0-4-4Z"/><path class="cls-1" d="M93.44,49.92a4,4,0,1,0,4,4,4,4,0,0,0-4-4Z"/><path class="cls-1" d="M89.93,53.78a4,4,0,1,0,4,4,4,4,0,0,0-4-4Z"/><path class="cls-1" d="M85.68,57.42a4.06,4.06,0,1,0,4.06,4.06,4.05,4.05,0,0,0-4.06-4.06Z"/><path class="cls-1" d="M80.18,60.21a4.13,4.13,0,1,0,4.13,4.12,4.13,4.13,0,0,0-4.13-4.12Z"/><path class="cls-1" d="M74.51,63a4.12,4.12,0,1,0,4.12,4.12A4.12,4.12,0,0,0,74.51,63Z"/><path class="cls-1" d="M67.3,65.45a4.13,4.13,0,1,0,4.12,4.12,4.12,4.12,0,0,0-4.12-4.12Z"/><path class="cls-1" d="M60.13,66.56a4.12,4.12,0,1,0,4.12,4.12,4.12,4.12,0,0,0-4.12-4.12Z"/><path class="cls-1" d="M52.73,66.75a4.12,4.12,0,1,0,4.12,4.12,4.12,4.12,0,0,0-4.12-4.12Z"/><path class="cls-1" d="M45.13,66.75a4.12,4.12,0,1,0,4.12,4.12,4.12,4.12,0,0,0-4.12-4.12Z"/><path class="cls-1" d="M37.82,66a4.12,4.12,0,1,0,4.12,4.12A4.12,4.12,0,0,0,37.82,66Z"/><path class="cls-1" d="M30.47,64.59a4.12,4.12,0,1,0,4.12,4.12,4.12,4.12,0,0,0-4.12-4.12Z"/><path class="cls-1" d="M85.6,72.83c-4-3.84-11.77-1.87-9.95,2.68-1,.45-2.52,1.7-2.56,2.95v3c2,4.06,7.88,5.66,14.76,6.61A2,2,0,0,0,90,87.28c2.13-2.25,4-4.67,3.9-8.52-.11-3.64-3.11-5.47-8.3-5.93Zm-4.09,2a9.79,9.79,0,0,0-4.41,0c-1.21-2.57,4-3.94,6.7-1.65a3.93,3.93,0,0,0-2.29,1.64Z"/><path class="cls-2" d="M73.26,78.52c.1,5.65,8.77,7.3,15.06,8a1,1,0,0,0,1-.3c4.13-3.71,5.05-8.15,3.41-10.26"/><path class="cls-3" d="M87.27,73.83c-2.91.09-4.21,1.09-4.93,2.41a8.65,8.65,0,0,0-5.1-.1c-1.72.68-2.53,1.53-2.58,2.51-.15,2.69,4.37,4.7,6.43,5.44a25.24,25.24,0,0,0,7.38,1.36c2.25-1.92,3.94-4,4-6.85-.09-2.67-1.48-4.49-5.2-4.77Z"/><path class="cls-3" d="M78.92,72.39l-.8.22c.48,1.85,4,1.54,3.63-1.5-.19-1.48-.93-3-2.45-2.57a2.25,2.25,0,0,0-1.47,2.68c.17-.08.62-.19.71-.22s-.18-1.44.94-1.7,1.46.89,1.57,1.93c.24,2.2-2,2-2.13,1.16Z"/><path class="cls-3" d="M20.35,3.34c2.54,0,4.59,1.2,4.59,2.69s-2.05,2.68-4.59,2.68S15.76,7.51,15.76,6s2-2.69,4.59-2.69Zm0,1c1.66,0,3,.66,3,1.47s-1.35,1.47-3,1.47-3-.66-3-1.47,1.35-1.47,3-1.47Z"/><path class="cls-3" d="M20.35,5.45a3.82,3.82,0,0,1,2.79.91,3.82,3.82,0,0,1-2.79.92,3.82,3.82,0,0,1-2.79-.92,3.82,3.82,0,0,1,2.79-.91Z"/><path class="cls-3" d="M25.6,2.19a.94.94,0,1,1-.94.94.95.95,0,0,1,.94-.94Z"/><path class="cls-3" d="M23.84,3.85a2.91,2.91,0,1,1-2,5,8.07,8.07,0,0,0,1.05-.25,2,2,0,0,0,1,.25,2.08,2.08,0,1,0-2.07-2.08v.1A7,7,0,0,1,21,7a1.93,1.93,0,0,1,0-.24,2.9,2.9,0,0,1,2.9-2.9Z"/><path class="cls-3" d="M58.83,23.31c2.1,0,3.53,1.91,3.19,4.27a4.84,4.84,0,0,1-4.41,4.27c-2.1,0-3.53-1.91-3.19-4.27a4.84,4.84,0,0,1,4.41-4.27Zm-.12,1.3a2.33,2.33,0,0,1,2.15,2.88,3.27,3.27,0,0,1-3,2.87,2.32,2.32,0,0,1-2.15-2.87,3.27,3.27,0,0,1,3-2.88Z"/></g></g></svg>