<svg xmlns="http://www.w3.org/2000/svg" viewBox="0 0 121.54 85.92"><defs><style>.cls-1,.cls-3,.cls-4{fill:#fff;fill-rule:evenodd;}.cls-1,.cls-2,.cls-3{stroke:#9d9d9d;stroke-linecap:round;stroke-linejoin:round;}.cls-1{stroke-width:0.99px;}.cls-2{fill:none;}.cls-2,.cls-3{stroke-width:0.57px;}</style></defs><title>Carved</title><g id="Слой_2" data-name="Слой 2"><g id="Слой_1-2" data-name="Слой 1"><path class="cls-1" d="M60.77.5c32,0,57.87,12,57.87,26.9S92.73,54.3,60.77,54.3,2.9,42.25,2.9,27.4,28.81.5,60.77.5ZM98.12,40.55c-9.33,4.38-22.61,7.12-37.35,7.12s-28-2.74-37.34-7.12C32.58,35.94,45.92,33,60.77,33S89,35.94,98.12,40.55Z"/><path class="cls-1" d="M118.59,58.54C117.36,73.49,92,85.42,60.77,85.42S4.18,73.49,3,58.54c7.36,13.72,30.46,23.73,57.82,23.73s50.46-10,57.82-23.73Z"/><path class="cls-1" d="M119.49,41.67a19.11,19.11,0,0,1,1.55,7.5c0,18.28-27,33.1-60.27,33.1S.5,67.45.5,49.17a19.11,19.11,0,0,1,1.55-7.5C7.94,54.31,31.31,63.81,59.44,64.1h2.67c28.13-.29,51.49-9.79,57.38-22.43Z"/><polyline class="cls-2" points="16.01 66.7 16.28 63.41 12.85 60.11 9.69 59.49 7.97 61 8.41 65.58"/><path class="cls-3" d="M20.88,74a52.75,52.75,0,0,1-9.08-5.51L16,66.7l4.67,2.68,1.79,2.54L20.88,74Z"/><path class="cls-3" d="M29.27,77.39A69.57,69.57,0,0,1,20.88,74l1.59-2.06,8,1.17-1.23,4.3Z"/><path class="cls-3" d="M40.4,80.33a87.32,87.32,0,0,1-11.13-2.94l1.23-4.3,4.68-.82L41,75.77l-.62,4.56Z"/><path class="cls-3" d="M53,82A103.43,103.43,0,0,1,40.4,80.33L41,75.77l6.25-1.58L50,75l3.1,2.3L53,82Z"/><path class="cls-3" d="M119.71,56.13a23.47,23.47,0,0,1-2.78,5.08h0l-2.35-.86-1.87-5,2.85-2.64,1.73-.14,2.42,3.58Z"/><path class="cls-3" d="M96.58,75.8c-1.49.6-3,1.17-4.6,1.69l-1.66-3.17,2.5-3,3.67,1.11.09,3.42Z"/><path class="cls-3" d="M92,77.49c-1.53.51-3.11,1-4.73,1.42l-1.92-3.06L87,74l3.33.34L92,77.49Z"/><path class="cls-3" d="M87.25,78.91c-2.83.76-5.79,1.41-8.86,1.92l-.22-2.31,4.33-3.63,2.83,1,1.92,3.06Z"/><path class="cls-3" d="M121,48c0,.39,0,.79,0,1.18a19.17,19.17,0,0,1-1.33,7l-2.42-3.58,1.18-3.46L121,48Z"/><path class="cls-3" d="M119.49,41.67A19.42,19.42,0,0,1,121,48l-2.54,1.1-1-4.13a18.78,18.78,0,0,0,2-3.29Z"/><path class="cls-3" d="M114.38,48.45A25.82,25.82,0,0,0,117.51,45h0l1,4.13-1.18,3.46-1.73.14-1.18-4.24Z"/><path class="cls-3" d="M108.43,52.93a38.52,38.52,0,0,0,5.95-4.48l1.18,4.24-2.85,2.64-3.95.2-.33-2.6Z"/><path class="cls-3" d="M101.62,56.48a56.33,56.33,0,0,0,6.81-3.55h0l.33,2.6-3,4.17-4.29-1.37.13-1.85Z"/><path class="cls-3" d="M96.35,58.55c1.84-.64,3.6-1.34,5.27-2.07h0l-.13,1.85L100.05,61l-2.73.3-1-2.76Z"/><path class="cls-3" d="M91.75,60c1.58-.45,3.12-.94,4.6-1.46h0l1,2.76L95,62.9l-2.34-.5L91.75,60Z"/><path class="cls-3" d="M85.51,61.57q3.22-.69,6.24-1.56l.89,2.39L90.35,65l-4.27.5-.57-4Z"/><path class="cls-3" d="M78.77,62.8q3.47-.52,6.74-1.22h0l.57,4-4,2.24-2.84-1.5L79.46,64l-.69-1.15Z"/><path class="cls-3" d="M78.39,80.83q-4.08.69-8.39,1l-.3-2.26,3.88-3.5,4.59,2.4.22,2.31Z"/><path class="cls-3" d="M75.71,63.21c1-.12,2.05-.26,3.06-.41L79.46,64l-.25,2.33-1.82,2L73.68,66l2-2.74Z"/><path class="cls-3" d="M69.48,63.81c2.12-.15,4.19-.35,6.23-.6h0l-2,2.73-4.2-2.14Z"/><path class="cls-3" d="M51.6,63.77c2.56.19,5.18.3,7.84.33h.29l-4.12,3L52.1,65.23l-.5-1.46Z"/><path class="cls-3" d="M70,81.88c-2,.18-4.09.29-6.18.35l.59-4.7,2.44.17,2.85,1.92.3,2.26Z"/><path class="cls-4" d="M59.73,64.1h2.38q3.75,0,7.37-.29h0l-2.54,3-2.24.65-2.19-1.75L59.73,64.1Z"/><path class="cls-2" d="M59.73,64.1h2.38q3.75,0,7.37-.29h0l-2.54,3-2.24.65-2.19-1.75L59.73,64.1Zm0,0h0"/><path class="cls-3" d="M63.82,82.23c-1,0-2,0-3,0q-3.94,0-7.76-.27l.06-4.75,2.09-3.5,3.64-1.58,2.69.41,2.92,5-.59,4.7Z"/><path class="cls-1" d="M118.64,27.57a15.24,15.24,0,0,1,2.28,7.86c0,15.84-26.93,28.68-60.15,28.68S.62,51.27.62,35.43A15.24,15.24,0,0,1,2.9,27.57c.21,14.78,26,26.73,57.87,26.73s57.66-11.95,57.87-26.73Z"/><path class="cls-1" d="M118.57,26.07a15.78,15.78,0,0,1,1.14,5.85c0,16.44-26.39,29.76-58.94,29.76S1.83,48.36,1.83,31.92A15.78,15.78,0,0,1,3,26.07,11.73,11.73,0,0,0,2.9,27.4c0,14.85,25.91,26.9,57.87,26.9s57.87-12,57.87-26.9a11.73,11.73,0,0,0-.07-1.33Z"/><path class="cls-1" d="M60.77,2.88c28.2,0,51.06,10,51.06,22.4,0,7.21-7.78,13.63-19.86,17.72a58.36,58.36,0,0,0,6.15-2.45C89,35.94,75.62,33,60.77,33s-28.19,2.91-37.34,7.52A57.31,57.31,0,0,0,29.57,43C17.49,38.91,9.71,32.49,9.71,25.28c0-12.37,22.86-22.4,51.06-22.4ZM91.94,43l-1,.32,1-.32Zm-1.12.37-.82.26.82-.26Zm-1.11.35L88.9,44l.81-.24Zm-1,.28-.85.24.85-.24Zm-1.14.32-.76.2.76-.2Zm-1.09.29-.71.18.71-.18Zm-1.11.27-.7.17.7-.17Zm-48.61.16-.67-.16.67.16Zm-1.06-.25L35,44.62l.71.18Zm-1.06-.27-.74-.2.74.2Zm-1-.28L32.81,44l.83.23Zm-1-.29-.79-.23.79.23Zm-1.08-.32-.84-.27.84.27Zm-1-.31L29.62,43l.94.31Z"/><polygon class="cls-3" points="61.48 72.58 58.8 72.17 55.71 69 55.61 67.08 59.73 64.1 62.52 65.74 64.72 67.49 65.27 69.31 61.48 72.58 61.48 72.58"/><polygon class="cls-3" points="64.72 67.49 65.27 69.31 67.91 69.28 66.95 66.84 64.72 67.49 64.72 67.49"/><polygon class="cls-3" points="65.27 69.31 67.91 69.28 69.22 71.96 69.63 73.51 66.85 77.7 64.41 77.53 61.48 72.58 65.27 69.31 65.27 69.31"/><polygon class="cls-3" points="66.85 77.7 69.63 73.51 73.24 74.06 73.58 76.12 69.7 79.62 66.85 77.7 66.85 77.7"/><polygon class="cls-3" points="58.8 72.17 55.71 69 53.38 72.3 55.16 73.75 58.8 72.17 58.8 72.17"/><polygon class="cls-3" points="55.16 73.75 53.38 72.3 51.76 72.34 49.98 74.95 53.07 77.25 55.16 73.75 55.16 73.75"/><polygon class="cls-3" points="73.24 74.06 77.33 71.2 81.85 72.6 82.5 74.89 78.17 78.52 73.58 76.12 73.24 74.06 73.24 74.06"/><polygon class="cls-3" points="77.39 68.28 79.21 66.28 82.05 67.78 81.85 72.6 77.33 71.2 77.39 68.28 77.39 68.28"/><polygon class="cls-3" points="81.85 72.6 81.95 70.19 86.85 69.89 86.99 73.98 85.33 75.85 82.5 74.89 81.85 72.6 81.85 72.6"/><polygon class="cls-3" points="86.99 73.98 86.85 69.89 90.35 65.04 93.3 67.46 92.81 71.27 90.32 74.32 86.99 73.98 86.99 73.98"/><polygon class="cls-3" points="92.64 62.4 94.98 62.9 96.07 65.45 93.3 67.46 90.35 65.04 92.64 62.4 92.64 62.4"/><polygon class="cls-3" points="108.76 55.53 105.78 59.7 106.2 65.33 111.64 66.93 114.58 60.35 112.71 55.33 108.76 55.53 108.76 55.53"/><polygon class="cls-3" points="101.49 58.33 100.05 61.01 100.18 64.56 102.48 66.86 106.2 65.33 105.78 59.7 101.49 58.33 101.49 58.33"/><polygon class="cls-3" points="94.98 62.9 96.07 65.45 98.09 65.66 100.18 64.56 100.05 61.01 97.32 61.31 94.98 62.9 94.98 62.9"/><path class="cls-2" d="M98.09,65.66l1.12,3.09-2.72,3.63m6-5.52-.61,2.33-2.66-.44m2.66.44L104,72.26M8,61,5.7,57.09,2.89,56l-1,.38m1-.38.62-3.78-.9-3.71-2-1.2m2,1.2,2.51-2.17M3.51,52.21l2.74.48,2.41-2.92M6.25,52.69l1.17,1.92L5.7,57.09m4,2.4L7.42,54.61l3.46-3.16m3.12,2L12.57,57l.28,3.16m3.43,3.3.9-5.5,1.05-2.21m-1.05,2.21,2.13,2.47,3.91,2.2,3-.82,1.14-2.49m-4.1,3.31-2.54,6.8m5.5-7.62,3.23,2.81,4.8,2.68.89,5m-.89-5,4.4-2.47,1.13-2.48m-1.13,2.48L42.32,66h3.85l2,3.57,3.6,2.75M46.17,66l1.54-2.59m.45,6.16-.89,4.6"/></g></g></svg>