<svg xmlns="http://www.w3.org/2000/svg" viewBox="0 0 117.46 56.11"><defs><style>.cls-1,.cls-4{fill:#fff;fill-rule:evenodd;}.cls-1,.cls-2,.cls-3,.cls-4,.cls-5{stroke:#9d9d9d;stroke-linecap:round;stroke-linejoin:round;}.cls-1,.cls-2{stroke-width:0.99px;}.cls-2,.cls-3,.cls-5{fill:none;}.cls-3{stroke-width:0.99px;}.cls-4,.cls-5{stroke-width:0.57px;}</style></defs><title>Earrings</title><g id="Слой_2" data-name="Слой 2"><g id="Слой_1-2" data-name="Слой 1"><path class="cls-1" d="M75.71,38.19l-1.33,4.1c-2.47,0-4.23-1.09-6.64-4.23l-3.32-12,4.09-4.91c2.45-1.72,2.73-2.83,5.5-3.1l1.7,1.46L73.78,31.4l1.93,6.79Z"/><path class="cls-1" d="M87.22,49.36c.75,0,1.58,0,2.33,0,1.76-1.2,3.53-.65,4.19,1.21.65,4.06-4.17,5-7.17,4.76-2.75-.18-5.46-.41-8.12-.73-2.39-.3-4.74-.66-7-1.13a7.2,7.2,0,0,1-4-1.65c-.75-.82-.77-1.91.1-3.34.68-1.07.17-1.7-.22-2.75-.47-1.26-.89-2.53-1.27-3.81s-.78-2.85-1.1-4.3c-.45-2.08-.3-2.46-2.67-3.15a29.18,29.18,0,0,0-5.38-.54c-2.55-.09-2.1.37-2.1-2.28V23.29c0-.76.69-1.18,2.08-1.19,1.83-.08,4.87-.16,6.71-.23q.67-3,1.37-6a6.94,6.94,0,0,0,0-3.14c-.64-1.55-.46-2.89,1.85-3.69a21.68,21.68,0,0,1,6.61-.91q3.25-2.55,10-1.85A32.76,32.76,0,0,1,92.7,5.18L89.31,6.87,88.58,8a3.31,3.31,0,0,1,2.26,3.39c-.22,1.78-1.14,2.69-2.74,2.74L87,13.56l-4.19-.16a1.06,1.06,0,0,0-1.21.73l-1.45,3.46L78.44,28.36l.08,1.78c.89,4.94,1.28,7.1,2.16,12,.25.51.49,1,.73,1.53l5.81,5.65ZM74.15,15.62A2.61,2.61,0,0,0,72,14a3.38,3.38,0,0,0-3.68,2.69c-.39.94-.74,1.86-1.06,2.77a31.84,31.84,0,0,0-1.83,10.69,34.62,34.62,0,0,0,3.71,14.5c.7,1.5,1.75,3.9,3.73,3.82,2.28-.08,3.71-1.39,2.82-3.23a35.7,35.7,0,0,1-4-15,29.73,29.73,0,0,1,1.45-9.74c.47-1.5,1.58-3.36,1-4.84Z"/><path class="cls-1" d="M73.32,14.51A3.12,3.12,0,0,0,72,14a3.38,3.38,0,0,0-3.68,2.69c-.39.94-.74,1.86-1.06,2.77a31.84,31.84,0,0,0-1.83,10.69,34.62,34.62,0,0,0,3.71,14.5c.7,1.5,1.75,3.9,3.73,3.82a3.24,3.24,0,0,0,2.9-1.38c-1,1.42-3.36,1.24-4.53-1.81-2.12-6-4.16-11.07-4.16-14.95,0-3.27,1-6.9,2.85-13.89.87-1.87,2-2.42,3.36-1.91Z"/><path class="cls-2" d="M87.65,49.35,83,49c-.81-.12-1.6-.86-2.37-2.19A34.33,34.33,0,0,1,76,29.61c0-4.1,2-16.17,6-16.07M64.44,35.84a38.31,38.31,0,0,1-.92-14M73.35,8.16,88.58,8M83.35,6.31A5.59,5.59,0,0,0,81,8.08"/><path class="cls-1" d="M109.24,50.32l-2.15,1.47,5.55,0c4,.12,5.34-4.42,2.2-6.06a7.24,7.24,0,0,0-1.67-.4l-3.93,5Z"/><path class="cls-1" d="M112.79,12.36l2.66-3.58c.07-3.3-2.77-3.68-5.24-3.71a20.92,20.92,0,0,0-3.85.28l.12.09-1.37-1L99.9,3.36,92.25,5.18h.45L89.31,6.87,88.58,8a3.31,3.31,0,0,1,2.26,3.39c-.22,1.78-1.14,2.69-2.74,2.74L87,13.56l-4.19-.16a1.06,1.06,0,0,0-1.21.73l-1.45,3.46L78.44,28.36l.08,1.78,2.17,12,.72,1.53,5.81,5.65c.75,0,1.58,0,2.33,0,1.76-1.2,3.53-.65,4.19,1.21a3.4,3.4,0,0,1-1.64,3.67l5,1.24,5.46-1.09,6.72-3.87,3.7-4.7,3.62-11,.33-8.07-2.1-11.1-2.07-3.27Z"/><polyline class="cls-3" points="86.11 13.53 83.93 17.99 82.16 29.27 84.01 42.02 88.39 49.36"/><polygon class="cls-4" points="111.33 18.16 106.46 15.46 99.48 18.16 95.44 28.75 98.05 39.84 104.52 44.21 110.99 41.02 114.27 32.61 113.43 23.62 111.33 18.16 111.33 18.16"/><path class="cls-1" d="M110.41,8.24l-4-2.89a20.92,20.92,0,0,1,3.85-.28c2.47,0,5.31.41,5.24,3.71a4.37,4.37,0,0,1-2.66,3.58c-2-.27-3.41-2.21-2.38-4.12Z"/><polygon class="cls-4" points="99.48 18.16 100.02 9.16 106.46 15.46 99.48 18.16 99.48 18.16"/><polygon class="cls-4" points="95.44 28.75 99.48 18.16 90.18 20.24 95.44 28.75 95.44 28.75"/><polygon class="cls-4" points="111.33 18.16 106.46 15.46 111.27 11.78 111.33 18.16 111.33 18.16"/><polygon class="cls-4" points="98.05 39.84 95.44 28.75 90.52 36.45 98.05 39.84 98.05 39.84"/><polygon class="cls-4" points="104.52 44.21 98.05 39.84 97.46 48.43 104.52 44.21 104.52 44.21"/><polygon class="cls-4" points="104.52 44.21 110.99 41.02 108.18 47.85 104.52 44.21 104.52 44.21"/><polygon class="cls-4" points="114.27 32.61 113.43 23.62 116.88 26.29 114.27 32.61 114.27 32.61"/><polygon class="cls-4" points="110.99 41.02 114.27 32.61 115.67 37.72 110.99 41.02 110.99 41.02"/><polygon class="cls-4" points="113.43 23.62 111.33 18.16 115.53 19.19 113.43 23.62 113.43 23.62"/><path class="cls-5" d="M90.18,20.24l-8,9,8.36,7.18-3.1,11.28,10,.7,2.4,6.5,8.32-7.08,1.13,2.66m-20-43.64L100,9.16l5.09-4.71M90.18,20.24l-2.64-6.39"/><path class="cls-1" d="M48.93,52.9h0c-2.87.91-7.48,1.36-9.56-1.19l4-5.16,2.08,1.57a3.17,3.17,0,1,1,3.5,4.78Z"/><path class="cls-1" d="M7.17,52.9h0c2.87.91,7.48,1.36,9.56-1.19l-4-5.16-2.08,1.56a3.17,3.17,0,1,0-3.5,4.79Z"/><path class="cls-1" d="M28.05.5A27.56,27.56,0,1,1,.5,28.05,27.55,27.55,0,0,1,28.05.5Z"/><path class="cls-5" d="M.5,28.05l8.14-8.14V8.51H20.1l8-8M.5,28.05,8.64,36.2V47.6H20.1l8,8M55.61,28.05l-8.14-8.14V8.51H36l-8-8M55.61,28.05,47.47,36.2V47.6H36l-8,8m-10.45-53L20.1,8.51l-2.76,8.72-4.6,10.82-4.1-8.14-6-2.52M17.57,53.55,20.1,47.6l-2.76-8.72-4.6-10.82L8.64,36.2l-6,2.52M38.54,2.56,36,8.51l2.76,8.72,4.6,10.82,4.1-8.14,6-2.52M38.54,53.55,36,47.6l2.76-8.72,4.6-10.82,4.1,8.14,6,2.52M8.64,19.91l8.7-2.68,10.82-4.6L20.1,8.51M8.64,36.2l8.7,2.68,10.82,4.6L20.1,47.6M47.47,19.91l-8.7-2.68L28,12.63,36,8.51M47.47,36.2l-8.7,2.68L28,43.48,36,47.6"/><path class="cls-1" d="M8,3.57A3.18,3.18,0,1,1,4.84,6.75,3.18,3.18,0,0,1,8,3.57Z"/><path class="cls-1" d="M8,46.48a3.18,3.18,0,1,1-3.17,3.17A3.17,3.17,0,0,1,8,46.48Z"/><path class="cls-1" d="M48.1,3.57a3.18,3.18,0,1,1-3.17,3.18A3.18,3.18,0,0,1,48.1,3.57Z"/><path class="cls-1" d="M48.1,46.48a3.18,3.18,0,1,1-3.17,3.17,3.17,3.17,0,0,1,3.17-3.17Z"/></g></g></svg>