<svg xmlns="http://www.w3.org/2000/svg" viewBox="0 0 43.09 113.94"><defs><style>.cls-1,.cls-10,.cls-11,.cls-12,.cls-13,.cls-14,.cls-15,.cls-16,.cls-17,.cls-18,.cls-3,.cls-5,.cls-6,.cls-7,.cls-8,.cls-9{fill:#fff;fill-rule:evenodd;}.cls-1,.cls-10,.cls-11,.cls-12,.cls-13,.cls-14,.cls-15,.cls-16,.cls-17,.cls-18,.cls-2,.cls-3,.cls-4,.cls-5,.cls-6,.cls-7,.cls-8,.cls-9{stroke:#9d9d9d;stroke-linecap:round;stroke-linejoin:round;}.cls-1,.cls-4{stroke-width:0.99px;}.cls-2,.cls-4{fill:none;}.cls-2{stroke-width:0.57px;}.cls-3{stroke-width:0.57px;}.cls-5{stroke-width:0.57px;}.cls-6{stroke-width:0.57px;}.cls-7{stroke-width:0.57px;}.cls-8{stroke-width:0.57px;}.cls-9{stroke-width:0.57px;}.cls-10{stroke-width:0.57px;}.cls-11{stroke-width:0.57px;}.cls-12{stroke-width:0.57px;}.cls-13{stroke-width:0.57px;}.cls-14{stroke-width:0.57px;}.cls-15{stroke-width:0.57px;}.cls-16{stroke-width:0.57px;}.cls-17{stroke-width:0.57px;}.cls-18{stroke-width:0.57px;}</style></defs><title>Pendants</title><g id="Слой_2" data-name="Слой 2"><g id="Слой_1-2" data-name="Слой 1"><path class="cls-1" d="M7.12,91.94l2.34-2.83a5.13,5.13,0,0,0,3.44,3.36v1.9a4.57,4.57,0,0,0-4.06,2.87Q8,94.59,7.12,91.94Z"/><path class="cls-1" d="M33.49,91.94l-2.34-2.83a5.11,5.11,0,0,1-3.44,3.36v1.9a4.56,4.56,0,0,1,4.06,2.87q.87-2.65,1.72-5.3Z"/><path class="cls-1" d="M20.37,86.13A8.27,8.27,0,1,1,12.1,94.4a8.27,8.27,0,0,1,8.27-8.27Z"/><polyline class="cls-2" points="17.23 86.75 17.98 88.53 17.16 91.15 15.78 94.4 14.55 91.95 12.74 91.2"/><polyline class="cls-2" points="17.23 102.05 17.98 100.26 17.16 97.64 15.78 94.4 14.55 96.84 12.74 97.6"/><polyline class="cls-2" points="23.52 86.75 22.76 88.53 23.59 91.15 24.96 94.4 26.2 91.95 28 91.2"/><polyline class="cls-2" points="23.52 102.05 22.76 100.26 23.59 97.64 24.96 94.4 26.2 96.84 28 97.6"/><polyline class="cls-2" points="14.55 91.95 17.16 91.15 20.4 89.77 17.98 88.53"/><polyline class="cls-2" points="14.55 96.84 17.16 97.64 20.4 99.02 17.98 100.26"/><polyline class="cls-2" points="26.2 91.95 23.59 91.15 20.34 89.77 22.76 88.53"/><polyline class="cls-2" points="26.2 96.84 23.59 97.64 20.34 99.02 22.76 100.26"/><path class="cls-3" d="M14.8,88.29A7.76,7.76,0,0,1,17,86.85a3.64,3.64,0,0,0-3.16.54c-.57.5-1,1.18-.55,1.74a1.35,1.35,0,0,0,.43.35.88.88,0,0,0,1.08-1.19Z"/><path class="cls-3" d="M26.11,88.44a8.51,8.51,0,0,0-1.78-1.3,4,4,0,0,1,2.15-.07,3,3,0,0,1,1.11.87.76.76,0,0,1,.08,1c-.16.24-.34.55-.62.61-.72.17-1.13-.28-.94-1.08Z"/><path class="cls-3" d="M13.91,99.55a5.81,5.81,0,0,1-.48-.66,2.84,2.84,0,0,0-.2.65,1.41,1.41,0,0,0,.21,1.38c.52.47,1,.12,1.39-.38.14-.2.16-.47-.17-.86a.57.57,0,0,0-.75-.13Z"/><path class="cls-3" d="M26.2,99.8c-.32.25-.32.47-.22.68a1.49,1.49,0,0,0,1,.73c.39.08.84-.38.81-.82a2.67,2.67,0,0,0-.46-1.53,5.56,5.56,0,0,1-.56.77.47.47,0,0,0-.57.17Z"/><path class="cls-1" d="M8,15.18l.56,2.11.57,2.12a2.37,2.37,0,0,1-1.67,2.9l-.5.13a2.37,2.37,0,0,1-2.9-1.67L3.5,18.65l-.56-2.11a2.36,2.36,0,0,1,1.67-2.9l.5-.14A2.39,2.39,0,0,1,8,15.18Zm-.93,2.51-.4-1.5a1.12,1.12,0,0,0-1.26-.94l-.21.06a1.13,1.13,0,0,0-.62,1.44l.4,1.5.41,1.51a1.12,1.12,0,0,0,1.26.93l.2-.05a1.14,1.14,0,0,0,.63-1.44l-.41-1.51Z"/><path class="cls-1" d="M11.5,28.22l-.57-2.12L10.37,24a2.37,2.37,0,0,0-2.9-1.68l-.5.13a2.37,2.37,0,0,0-1.67,2.9l.56,2.12.57,2.12a2.37,2.37,0,0,0,2.9,1.67l.5-.13a2.38,2.38,0,0,0,1.67-2.9ZM9.44,26.5,9.85,28a1.14,1.14,0,0,1-.63,1.44L9,29.5a1.12,1.12,0,0,1-1.26-.93l-.41-1.51L7,25.56a1.14,1.14,0,0,1,.62-1.44l.21-.06A1.12,1.12,0,0,1,9,25l.4,1.5Z"/><path class="cls-1" d="M6.78,10.6,6.21,8.49,5.65,6.37A2.37,2.37,0,0,0,2.75,4.7l-.5.13A2.37,2.37,0,0,0,.58,7.73l.56,2.12L1.71,12a2.38,2.38,0,0,0,2.9,1.68l.5-.14a2.37,2.37,0,0,0,1.67-2.9ZM4.72,8.89l.41,1.5a1.13,1.13,0,0,1-.63,1.44l-.2.06A1.12,1.12,0,0,1,3,11l-.41-1.5-.4-1.51A1.13,1.13,0,0,1,2.85,6.5l.21,0a1.12,1.12,0,0,1,1.26.93l.4,1.51Z"/><path class="cls-1" d="M12.73,32.79l.56,2.12L13.86,37a2.37,2.37,0,0,1-1.67,2.9l-.5.13a2.38,2.38,0,0,1-2.9-1.67l-.57-2.12-.56-2.12a2.37,2.37,0,0,1,1.67-2.9l.5-.13a2.38,2.38,0,0,1,2.9,1.67Zm-.93,2.52-.4-1.51a1.12,1.12,0,0,0-1.26-.93l-.21.05a1.14,1.14,0,0,0-.62,1.44l.4,1.51.41,1.51a1.12,1.12,0,0,0,1.26.93l.2-.05a1.14,1.14,0,0,0,.63-1.44l-.41-1.51Z"/><path class="cls-1" d="M13.84,42.9l-1.71-6.37a1.09,1.09,0,0,0-1.32-.77h0A1.1,1.1,0,0,0,10,37.09l1.71,6.37a1.08,1.08,0,0,0,1.32.76h0a1.08,1.08,0,0,0,.77-1.32Z"/><path class="cls-1" d="M11.48,34.09,9.77,27.72A1.08,1.08,0,0,0,8.45,27h0a1.08,1.08,0,0,0-.77,1.32l1.71,6.37a1.08,1.08,0,0,0,1.32.77h0a1.1,1.1,0,0,0,.77-1.33Z"/><path class="cls-1" d="M9.12,25.28,7.41,18.91a1.08,1.08,0,0,0-1.32-.76h0a1.09,1.09,0,0,0-.77,1.33L7,25.84a1.08,1.08,0,0,0,1.32.77h0a1.09,1.09,0,0,0,.77-1.33Z"/><path class="cls-1" d="M6.76,16.47,5.05,10.11a1.08,1.08,0,0,0-1.32-.77h0A1.09,1.09,0,0,0,3,10.67L4.67,17A1.08,1.08,0,0,0,6,17.8H6a1.09,1.09,0,0,0,.77-1.33Z"/><path class="cls-1" d="M4.4,7.67,2.69,1.3A1.09,1.09,0,0,0,1.36.53h0A1.09,1.09,0,0,0,.6,1.86L2.31,8.23A1.08,1.08,0,0,0,3.63,9h0A1.08,1.08,0,0,0,4.4,7.67Z"/><path class="cls-1" d="M35.09,15.18l-.57,2.11L34,19.41a2.37,2.37,0,0,0,1.68,2.9l.49.13A2.36,2.36,0,0,0,39,20.77l.57-2.12.57-2.11a2.38,2.38,0,0,0-1.68-2.9L38,13.5a2.38,2.38,0,0,0-2.9,1.68ZM36,17.69l.4-1.5a1.13,1.13,0,0,1,1.26-.94l.21.06a1.12,1.12,0,0,1,.62,1.44l-.4,1.5-.4,1.51a1.14,1.14,0,0,1-1.27.93l-.2-.05a1.14,1.14,0,0,1-.63-1.44L36,17.69Z"/><path class="cls-1" d="M31.59,28.22l.57-2.12L32.73,24a2.37,2.37,0,0,1,2.9-1.68l.49.13a2.39,2.39,0,0,1,1.68,2.9l-.57,2.12-.57,2.12a2.37,2.37,0,0,1-2.9,1.67l-.49-.13a2.37,2.37,0,0,1-1.68-2.9Zm2.06-1.72L33.24,28a1.14,1.14,0,0,0,.63,1.44l.2.05a1.14,1.14,0,0,0,1.27-.93l.4-1.51.4-1.5a1.12,1.12,0,0,0-.62-1.44l-.21-.06a1.13,1.13,0,0,0-1.26.94l-.4,1.5Z"/><path class="cls-1" d="M36.31,10.6l.57-2.11.57-2.12a2.36,2.36,0,0,1,2.9-1.67l.49.13a2.38,2.38,0,0,1,1.68,2.9L42,9.85,41.38,12a2.38,2.38,0,0,1-2.9,1.68L38,13.5a2.37,2.37,0,0,1-1.68-2.9Zm2.06-1.71L38,10.39a1.13,1.13,0,0,0,.63,1.44l.2.06A1.14,1.14,0,0,0,40.06,11l.4-1.5.4-1.51a1.12,1.12,0,0,0-.62-1.44l-.21,0a1.13,1.13,0,0,0-1.26.93l-.4,1.51Z"/><path class="cls-1" d="M30.37,32.79l-.57,2.12L29.23,37a2.38,2.38,0,0,0,1.67,2.9l.5.13a2.38,2.38,0,0,0,2.9-1.67l.57-2.12.57-2.12a2.39,2.39,0,0,0-1.68-2.9l-.49-.13a2.37,2.37,0,0,0-2.9,1.67Zm.92,2.52.4-1.51A1.13,1.13,0,0,1,33,32.87l.21.05a1.12,1.12,0,0,1,.62,1.44l-.4,1.51L33,37.38a1.14,1.14,0,0,1-1.27.93l-.2-.05a1.14,1.14,0,0,1-.63-1.44l.41-1.51Z"/><path class="cls-1" d="M29.26,42.9,31,36.53a1.1,1.1,0,0,1,1.33-.77h0a1.09,1.09,0,0,1,.76,1.33l-1.7,6.37a1.09,1.09,0,0,1-1.33.76h0a1.08,1.08,0,0,1-.76-1.32Z"/><path class="cls-1" d="M31.61,34.09l1.71-6.37A1.09,1.09,0,0,1,34.65,27h0a1.08,1.08,0,0,1,.76,1.32l-1.7,6.37a1.09,1.09,0,0,1-1.33.77h0a1.1,1.1,0,0,1-.77-1.33Z"/><path class="cls-1" d="M34,25.28l1.7-6.37A1.09,1.09,0,0,1,37,18.15h0a1.08,1.08,0,0,1,.76,1.33l-1.7,6.36a1.09,1.09,0,0,1-1.33.77h0A1.09,1.09,0,0,1,34,25.28Z"/><path class="cls-1" d="M36.34,16.47,38,10.11a1.09,1.09,0,0,1,1.33-.77h0a1.08,1.08,0,0,1,.76,1.33L38.43,17a1.09,1.09,0,0,1-1.33.77h0a1.08,1.08,0,0,1-.76-1.33Z"/><path class="cls-1" d="M38.7,7.67,40.4,1.3A1.09,1.09,0,0,1,41.73.53h0a1.09,1.09,0,0,1,.76,1.33l-1.7,6.37A1.09,1.09,0,0,1,39.46,9h0a1.08,1.08,0,0,1-.76-1.32Z"/><path class="cls-1" d="M21.6,33.66c-3.24,0-6.58,1.89-8.62,6.09-3.37,6.93-1.46,15.8,1.89,22.36-5.39,8.73-13.26,19-13.8,29.44C.45,103.72,8,113.94,20.81,113.42c11.89-.48,19.58-10,18.85-21.73-.69-11-7.88-20.88-13.57-30a35.24,35.24,0,0,0,4.54-15.35c.33-5.85-2.23-12.59-9-12.67ZM19.14,45.25a22.9,22.9,0,0,0,2.45,9A15.05,15.05,0,0,0,24.28,45c-.15-3.59-1.56-4.93-2.64-4.86-1.3.07-2.55,2.24-2.5,5.13Zm8.48,34a95.74,95.74,0,0,0-6.3-10.13c-.63-.76-1.37-1-2-.14a69,69,0,0,0-6.78,11.16c-4.19,8.89-6.83,23.43,7,24.41,15.12.53,12.93-15.87,8.05-25.3Z"/><path class="cls-4" d="M21.08,68.9c-1-1.44-2-2.94-2.93-4.58-2.81-4.77-5-9.46-5.67-15-.92-7.19,1.31-12.37,7-15.4m2.16,20.33a80.81,80.81,0,0,0,4.5,7.42m-6-20.44c5.79-7.88,10.68.62,10.13,8.67"/><polygon class="cls-5" points="20.14 105.92 21.42 106.45 22.7 106.98 23.23 108.25 23.76 109.53 23.23 110.81 22.7 112.09 21.42 112.62 20.14 113.15 18.87 112.62 17.59 112.09 17.06 110.81 16.53 109.53 17.06 108.25 17.59 106.98 18.87 106.45 20.14 105.92 20.14 105.92"/><polygon class="cls-6" points="27.67 103.71 28.87 104.29 30.08 104.87 30.52 106.13 30.96 107.4 30.38 108.6 29.8 109.81 28.54 110.25 27.28 110.69 26.07 110.11 24.86 109.53 24.42 108.27 23.98 107.01 24.56 105.8 25.14 104.6 26.4 104.15 27.67 103.71 27.67 103.71"/><polygon class="cls-6" points="13.09 103.97 14.3 104.55 15.5 105.13 15.95 106.39 16.39 107.66 15.81 108.86 15.23 110.07 13.96 110.51 12.7 110.95 11.5 110.37 10.29 109.79 9.85 108.53 9.4 107.27 9.98 106.06 10.56 104.86 11.83 104.41 13.09 103.97 13.09 103.97"/><polygon class="cls-6" points="7.4 99.14 8.6 99.72 9.81 100.3 10.25 101.56 10.7 102.83 10.12 104.03 9.54 105.24 8.27 105.68 7.01 106.12 5.8 105.54 4.6 104.96 4.16 103.7 3.71 102.44 4.29 101.23 4.87 100.03 6.13 99.58 7.4 99.14 7.4 99.14"/><polygon class="cls-7" points="5.04 92.57 6.17 93.12 7.3 93.66 7.72 94.85 8.13 96.03 7.59 97.17 7.04 98.3 5.86 98.72 4.67 99.13 3.54 98.59 2.41 98.04 1.99 96.86 1.57 95.67 2.12 94.54 2.67 93.4 3.85 92.99 5.04 92.57 5.04 92.57"/><polygon class="cls-8" points="4.51 85.95 5.57 86.45 6.61 86.96 7 88.06 7.38 89.15 6.88 90.2 6.37 91.25 5.28 91.64 4.18 92.02 3.13 91.52 2.08 91.01 1.7 89.91 1.31 88.82 1.81 87.77 2.32 86.72 3.42 86.33 4.51 85.95 4.51 85.95"/><polygon class="cls-8" points="6.59 79.9 7.64 80.4 8.69 80.91 9.07 82 9.46 83.1 8.96 84.15 8.45 85.2 7.35 85.59 6.25 85.97 5.21 85.47 4.16 84.96 3.77 83.86 3.38 82.77 3.89 81.72 4.39 80.67 5.49 80.28 6.59 79.9 6.59 79.9"/><polygon class="cls-9" points="9.27 74.67 10.28 75.15 11.3 75.64 11.67 76.7 12.04 77.77 11.55 78.78 11.06 79.79 10 80.17 8.94 80.54 7.93 80.05 6.91 79.56 6.54 78.5 6.17 77.44 6.66 76.42 7.14 75.41 8.21 75.04 9.27 74.67 9.27 74.67"/><polygon class="cls-10" points="12.26 69.48 13.27 69.97 14.27 70.45 14.64 71.51 15.02 72.57 14.53 73.58 14.04 74.59 12.99 74.96 11.93 75.33 10.92 74.84 9.91 74.36 9.54 73.3 9.17 72.24 9.66 71.23 10.14 70.22 11.2 69.85 12.26 69.48 12.26 69.48"/><polygon class="cls-11" points="15.54 64.6 16.53 65.07 17.51 65.54 17.87 66.57 18.23 67.6 17.76 68.59 17.29 69.57 16.26 69.93 15.23 70.29 14.24 69.82 13.26 69.35 12.9 68.32 12.54 67.29 13.01 66.3 13.48 65.32 14.51 64.96 15.54 64.6 15.54 64.6"/><polygon class="cls-6" points="35.84 91.94 37.05 92.52 38.25 93.1 38.69 94.36 39.14 95.62 38.56 96.83 37.98 98.04 36.71 98.48 35.45 98.92 34.24 98.34 33.04 97.76 32.6 96.5 32.15 95.24 32.73 94.03 33.31 92.82 34.58 92.38 35.84 91.94 35.84 91.94"/><polygon class="cls-6" points="33.72 99.1 34.93 99.67 36.13 100.25 36.58 101.52 37.02 102.78 36.44 103.99 35.86 105.19 34.6 105.64 33.33 106.08 32.13 105.5 30.92 104.92 30.48 103.66 30.04 102.39 30.62 101.19 31.2 99.98 32.46 99.54 33.72 99.1 33.72 99.1"/><polygon class="cls-6" points="35.42 84.3 36.63 84.88 37.84 85.46 38.28 86.73 38.72 87.99 38.14 89.2 37.56 90.4 36.3 90.84 35.03 91.29 33.83 90.71 32.62 90.13 32.18 88.86 31.74 87.6 32.32 86.4 32.9 85.19 34.16 84.75 35.42 84.3 35.42 84.3"/><polygon class="cls-12" points="34.04 77.9 34.95 78.78 35.86 79.65 35.88 80.9 35.91 82.16 35.03 83.07 34.16 83.97 32.91 84 31.65 84.03 30.74 83.15 29.83 82.28 29.81 81.03 29.78 79.77 30.66 78.86 31.53 77.95 32.78 77.93 34.04 77.9 34.04 77.9"/><polygon class="cls-12" points="29.93 71.43 31.02 72.05 32.12 72.67 32.45 73.88 32.79 75.09 32.17 76.18 31.55 77.28 30.34 77.61 29.13 77.95 28.03 77.33 26.94 76.71 26.6 75.5 26.26 74.29 26.88 73.2 27.5 72.1 28.71 71.76 29.93 71.43 29.93 71.43"/><polygon class="cls-12" points="26.13 65.36 27.22 65.98 28.32 66.6 28.66 67.81 28.99 69.02 28.37 70.12 27.75 71.21 26.54 71.55 25.33 71.89 24.23 71.27 23.14 70.65 22.8 69.44 22.47 68.22 23.09 67.13 23.7 66.03 24.92 65.7 26.13 65.36 26.13 65.36"/><polygon class="cls-12" points="22.13 58.95 23.23 59.57 24.32 60.19 24.66 61.4 25 62.61 24.38 63.71 23.76 64.8 22.55 65.14 21.34 65.47 20.24 64.86 19.14 64.24 18.81 63.03 18.47 61.81 19.09 60.72 19.71 59.62 20.92 59.29 22.13 58.95 22.13 58.95"/><polygon class="cls-12" points="18.78 52.79 19.87 53.41 20.97 54.02 21.31 55.23 21.64 56.45 21.02 57.54 20.41 58.64 19.19 58.97 17.98 59.31 16.89 58.69 15.79 58.07 15.46 56.86 15.12 55.65 15.74 54.55 16.36 53.46 17.57 53.12 18.78 52.79 18.78 52.79"/><polygon class="cls-13" points="16.09 46.41 17.09 46.98 18.09 47.55 18.4 48.66 18.71 49.77 18.14 50.77 17.58 51.77 16.47 52.08 15.36 52.39 14.35 51.83 13.35 51.26 13.04 50.15 12.73 49.04 13.3 48.03 13.87 47.03 14.98 46.72 16.09 46.41 16.09 46.41"/><polygon class="cls-14" points="15.58 40.08 16.53 40.62 17.49 41.16 17.78 42.22 18.08 43.28 17.54 44.23 17 45.19 15.94 45.48 14.88 45.78 13.92 45.24 12.97 44.7 12.67 43.64 12.38 42.58 12.92 41.62 13.46 40.67 14.52 40.37 15.58 40.08 15.58 40.08"/><polygon class="cls-14" points="26 51.14 26.96 51.68 27.92 52.22 28.21 53.28 28.5 54.34 27.96 55.29 27.42 56.25 26.36 56.54 25.3 56.84 24.35 56.3 23.39 55.76 23.1 54.7 22.8 53.64 23.34 52.68 23.88 51.73 24.94 51.43 26 51.14 26 51.14"/><polygon class="cls-15" points="18.41 34.77 19.32 35.29 20.24 35.81 20.52 36.82 20.8 37.83 20.28 38.75 19.77 39.66 18.75 39.94 17.74 40.22 16.83 39.71 15.91 39.19 15.63 38.18 15.35 37.17 15.87 36.25 16.38 35.34 17.39 35.05 18.41 34.77 18.41 34.77"/><polygon class="cls-15" points="27.66 45.01 28.58 45.52 29.49 46.04 29.78 47.05 30.06 48.06 29.54 48.98 29.02 49.89 28.01 50.17 27 50.46 26.08 49.94 25.17 49.42 24.89 48.41 24.61 47.4 25.12 46.48 25.64 45.57 26.65 45.29 27.66 45.01 27.66 45.01"/><path class="cls-16" d="M17.09,104.5a1.17,1.17,0,1,1-1.17,1.17,1.17,1.17,0,0,1,1.17-1.17Z"/><path class="cls-16" d="M8.54,97a1.17,1.17,0,1,1-1.16,1.17A1.17,1.17,0,0,1,8.54,97Z"/><path class="cls-16" d="M3.4,98.82A1.17,1.17,0,1,1,2.23,100,1.17,1.17,0,0,1,3.4,98.82Z"/><path class="cls-16" d="M2.09,91.19A1.17,1.17,0,1,1,.92,92.36a1.17,1.17,0,0,1,1.17-1.17Z"/><path class="cls-16" d="M7,91a1.17,1.17,0,1,1-1.17,1.17A1.17,1.17,0,0,1,7,91Z"/><path class="cls-17" d="M3.11,84.12A1.11,1.11,0,1,1,2,85.23a1.12,1.12,0,0,1,1.11-1.11Z"/><path class="cls-17" d="M8,85.72a1.12,1.12,0,1,1-1.12,1.11A1.11,1.11,0,0,1,8,85.72Z"/><path class="cls-17" d="M10.06,80.33a1.12,1.12,0,1,1-1.12,1.11,1.11,1.11,0,0,1,1.12-1.11Z"/><path class="cls-17" d="M5.59,77.9A1.12,1.12,0,1,1,4.47,79,1.11,1.11,0,0,1,5.59,77.9Z"/><path class="cls-17" d="M12.88,75.26a1.12,1.12,0,1,1-1.11,1.11,1.12,1.12,0,0,1,1.11-1.11Z"/><path class="cls-17" d="M8.58,72.69A1.12,1.12,0,1,1,7.46,73.8a1.11,1.11,0,0,1,1.12-1.11Z"/><path class="cls-17" d="M11.63,67.34a1.12,1.12,0,1,1-1.11,1.11,1.12,1.12,0,0,1,1.11-1.11Z"/><path class="cls-17" d="M15.87,70.12a1.12,1.12,0,1,1-1.11,1.11,1.12,1.12,0,0,1,1.11-1.11Z"/><path class="cls-17" d="M15.32,62.41a1.11,1.11,0,1,1-1.12,1.11,1.11,1.11,0,0,1,1.12-1.11Z"/><path class="cls-17" d="M18.86,66.57a1.12,1.12,0,1,1-1.11,1.12,1.12,1.12,0,0,1,1.11-1.12Z"/><path class="cls-16" d="M11.74,101.9a1.17,1.17,0,1,1-1.17,1.17,1.17,1.17,0,0,1,1.17-1.17Z"/><path class="cls-16" d="M8.07,105.89a1.17,1.17,0,1,1-1.17,1.17,1.17,1.17,0,0,1,1.17-1.17Z"/><path class="cls-16" d="M15.73,110.15a1.17,1.17,0,0,1,0,2.34,1.17,1.17,0,1,1,0-2.34Z"/><path class="cls-16" d="M24.66,110a1.17,1.17,0,1,1-1.17,1.17A1.17,1.17,0,0,1,24.66,110Z"/><path class="cls-16" d="M23.12,104.59A1.17,1.17,0,1,1,22,105.76a1.17,1.17,0,0,1,1.16-1.17Z"/><path class="cls-16" d="M29,101.75a1.17,1.17,0,0,1,0,2.34,1.17,1.17,0,1,1,0-2.34Z"/><path class="cls-16" d="M31.84,97.09a1.17,1.17,0,1,1-1.17,1.17,1.17,1.17,0,0,1,1.17-1.17Z"/><path class="cls-16" d="M37.44,98.72a1.17,1.17,0,1,1-1.17,1.16,1.17,1.17,0,0,1,1.17-1.16Z"/><path class="cls-16" d="M38.33,90.29a1.17,1.17,0,1,1-1.17,1.17,1.17,1.17,0,0,1,1.17-1.17Z"/><path class="cls-16" d="M32.78,90.44a1.17,1.17,0,1,1,0,2.34,1.17,1.17,0,1,1,0-2.34Z"/><path class="cls-16" d="M31.42,84a1.17,1.17,0,1,1-1.17,1.17A1.17,1.17,0,0,1,31.42,84Z"/><path class="cls-16" d="M36.55,82.17a1.17,1.17,0,0,1,0,2.34,1.17,1.17,0,1,1,0-2.34Z"/><path class="cls-16" d="M28.8,77.83A1.17,1.17,0,1,1,27.63,79a1.17,1.17,0,0,1,1.17-1.17Z"/><path class="cls-16" d="M33.48,75.42a1.17,1.17,0,1,1-1.17,1.16,1.17,1.17,0,0,1,1.17-1.16Z"/><path class="cls-16" d="M29.81,69.07a1.17,1.17,0,1,1,0,2.34,1.17,1.17,0,1,1,0-2.34Z"/><path class="cls-16" d="M25.5,72a1.17,1.17,0,1,1-1.17,1.17A1.17,1.17,0,0,1,25.5,72Z"/><path class="cls-16" d="M21.61,65.67a1.17,1.17,0,1,1-1.17,1.17,1.17,1.17,0,0,1,1.17-1.17Z"/><path class="cls-16" d="M25.91,62.73a1.17,1.17,0,1,1-1.17,1.17,1.17,1.17,0,0,1,1.17-1.17Z"/><path class="cls-16" d="M22.33,56.61a1.17,1.17,0,0,1,0,2.34,1.17,1.17,0,1,1,0-2.34Z"/><path class="cls-16" d="M17.66,59.37a1.17,1.17,0,1,1-1.17,1.17,1.17,1.17,0,0,1,1.17-1.17Z"/><path class="cls-16" d="M14.85,52.4a1.17,1.17,0,1,1-1.16,1.16,1.16,1.16,0,0,1,1.16-1.16Z"/><path class="cls-16" d="M19.2,50.54A1.17,1.17,0,1,1,18,51.71a1.17,1.17,0,0,1,1.16-1.17Z"/><path class="cls-16" d="M13,45a1.17,1.17,0,1,1-1.17,1.17A1.17,1.17,0,0,1,13,45Z"/><path class="cls-16" d="M17.8,44.76a1.17,1.17,0,1,1-1.17,1.17,1.16,1.16,0,0,1,1.17-1.17Z"/><path class="cls-16" d="M14.63,38a1.17,1.17,0,1,1-1.17,1.17A1.17,1.17,0,0,1,14.63,38Z"/><path class="cls-16" d="M18.7,40a1.17,1.17,0,0,1,0,2.34,1.17,1.17,0,1,1,0-2.34Z"/><path class="cls-16" d="M22.12,36.06A1.17,1.17,0,1,1,21,37.23a1.17,1.17,0,0,1,1.17-1.17Z"/><path class="cls-16" d="M20.31,33.25a1.17,1.17,0,1,1-1.17,1.16,1.17,1.17,0,0,1,1.17-1.16Z"/><path class="cls-16" d="M22.72,33.65a1.17,1.17,0,1,1-1.17,1.17,1.17,1.17,0,0,1,1.17-1.17Z"/><path class="cls-16" d="M28.86,50a1.17,1.17,0,1,1-1.17,1.17A1.17,1.17,0,0,1,28.86,50Z"/><path class="cls-16" d="M24.68,49.13a1.17,1.17,0,1,1-1.16,1.17,1.17,1.17,0,0,1,1.16-1.17Z"/><path class="cls-16" d="M26.34,42.8A1.17,1.17,0,1,1,25.17,44a1.16,1.16,0,0,1,1.17-1.16Z"/><path class="cls-18" d="M25.34,40.58a.92.92,0,1,1-.92.92.92.92,0,0,1,.92-.92Z"/><path class="cls-16" d="M25.73,56.93a1.17,1.17,0,1,1-1.17,1.17,1.17,1.17,0,0,1,1.17-1.17Z"/><path class="cls-16" d="M32.29,106.1a1.17,1.17,0,1,1,0,2.34,1.17,1.17,0,1,1,0-2.34Z"/></g></g></svg>