<svg xmlns="http://www.w3.org/2000/svg" viewBox="0 0 138.89 140.14"><defs><style>.cls-1{fill:#fff;stroke-width:0.99px;fill-rule:evenodd;}.cls-1,.cls-2{stroke:#9d9d9d;stroke-linecap:round;stroke-linejoin:round;}.cls-2{fill:none;stroke-width:0.57px;}</style></defs><title>Pendant</title><g id="Слой_2" data-name="Слой 2"><g id="Слой_1-2" data-name="Слой 1"><path class="cls-1" d="M62.91,31.75h-12a4.68,4.68,0,0,0-4.66,4.66v1a4.68,4.68,0,0,0,4.66,4.66h12a4.68,4.68,0,0,0,4.66-4.66v-1a4.67,4.67,0,0,0-4.66-4.66Zm-1.24,3a2.22,2.22,0,0,1,2.42,1.92v.41A2.22,2.22,0,0,1,61.67,39H52.13a2.21,2.21,0,0,1-2.41-1.92v-.41a2.21,2.21,0,0,1,2.41-1.92Z"/><path class="cls-1" d="M88.25,31.75h-12a4.68,4.68,0,0,0-4.66,4.66v1a4.68,4.68,0,0,0,4.66,4.66h12a4.68,4.68,0,0,0,4.66-4.66v-1a4.68,4.68,0,0,0-4.66-4.66Zm-1.24,3a2.21,2.21,0,0,1,2.41,1.92v.41A2.21,2.21,0,0,1,87,39H77.47a2.22,2.22,0,0,1-2.42-1.92v-.41a2.22,2.22,0,0,1,2.42-1.92Z"/><path class="cls-1" d="M77.19,34.79H60.83a2.13,2.13,0,0,0-2.13,2.13h0A2.12,2.12,0,0,0,60.83,39H77.19a2.13,2.13,0,0,0,2.13-2.12h0a2.13,2.13,0,0,0-2.13-2.13Z"/><path class="cls-1" d="M22.86,24.57l9.73,7.07a4.67,4.67,0,0,0,6.5-1l.6-.82a4.67,4.67,0,0,0-1-6.5l-9.74-7.06a4.67,4.67,0,0,0-6.5,1l-.59.82a4.66,4.66,0,0,0,1,6.5Zm2.79-1.72a2.22,2.22,0,0,1-.83-3l.25-.34a2.22,2.22,0,0,1,3.08-.14L35.87,25a2.22,2.22,0,0,1,.83,3l-.25.34a2.22,2.22,0,0,1-3.08.13l-7.72-5.6Z"/><path class="cls-1" d="M116,24.57l-9.73,7.07a4.69,4.69,0,0,1-6.51-1l-.59-.82a4.67,4.67,0,0,1,1-6.5L110,16.22a4.68,4.68,0,0,1,6.51,1l.59.82a4.66,4.66,0,0,1-1,6.5Zm-2.79-1.72a2.22,2.22,0,0,0,.83-3l-.25-.34a2.22,2.22,0,0,0-3.08-.14L103,25a2.22,2.22,0,0,0-.83,3l.25.34a2.22,2.22,0,0,0,3.08.13l7.72-5.6Z"/><path class="cls-1" d="M2.41,9.73l9.73,7.07a4.69,4.69,0,0,0,6.51-1l.59-.82a4.67,4.67,0,0,0-1-6.5L8.48,1.38A4.68,4.68,0,0,0,2,2.41l-.59.82a4.67,4.67,0,0,0,1,6.5ZM5.2,8a2.22,2.22,0,0,1-.83-3l.25-.34A2.22,2.22,0,0,1,7.7,4.56l7.72,5.61a2.22,2.22,0,0,1,.83,3l-.25.34a2.22,2.22,0,0,1-3.08.13L5.2,8Z"/><path class="cls-1" d="M136.48,9.73l-9.73,7.07a4.68,4.68,0,0,1-6.51-1l-.59-.82a4.66,4.66,0,0,1,1-6.5l9.73-7.06a4.68,4.68,0,0,1,6.51,1l.59.82a4.67,4.67,0,0,1-1,6.5ZM133.69,8a2.23,2.23,0,0,0,.83-3l-.25-.34a2.22,2.22,0,0,0-3.08-.14l-7.72,5.61a2.21,2.21,0,0,0-.83,3l.25.34a2.22,2.22,0,0,0,3.08.13L133.69,8Z"/><path class="cls-1" d="M33.59,28.62l13.25,9.61a2.14,2.14,0,0,0,3-.47h0a2.14,2.14,0,0,0-.47-3L36.09,25.17a2.13,2.13,0,0,0-3,.47h0a2.15,2.15,0,0,0,.47,3Z"/><path class="cls-1" d="M105.3,28.62,92.05,38.23a2.13,2.13,0,0,1-3-.47h0a2.14,2.14,0,0,1,.47-3l13.24-9.61a2.14,2.14,0,0,1,3,.47h0a2.15,2.15,0,0,1-.47,3Z"/><path class="cls-1" d="M13.15,13.77l13.24,9.62a2.14,2.14,0,0,0,3-.47h0a2.14,2.14,0,0,0-.47-3L15.65,10.33a2.14,2.14,0,0,0-3,.47h0a2.13,2.13,0,0,0,.48,3Z"/><path class="cls-1" d="M125.74,13.77,112.5,23.39a2.16,2.16,0,0,1-3-.47h0a2.15,2.15,0,0,1,.48-3l13.24-9.61a2.14,2.14,0,0,1,3,.47h0a2.14,2.14,0,0,1-.48,3Z"/><path class="cls-1" d="M69.19,76.09l-5.93.22Q54.65,54.33,46,32.37c-.34-1.13-.21-1.75.22-2l5.92-2.58c.91-.44,1.65.2,2.26,1.72L69.19,66.08q7.36-18.31,14.75-36.62c.61-1.52,1.36-2.16,2.26-1.72l5.92,2.58c.44.3.56.92.22,2q-8.61,22-17.23,43.94l-5.92-.22Z"/><path class="cls-1" d="M69.8,75.21a32.22,32.22,0,1,1-32.22,32.21A32.21,32.21,0,0,1,69.8,75.21Z"/><path class="cls-2" d="M37.58,107.42l9.52-9.51V84.58H60.5l9.34-9.34M37.58,107.42l9.52,9.52v13.33H60.5l9.34,9.34M102,107.42,92.5,97.91V84.58H79.1l-9.33-9.34M102,107.42l-9.52,9.52v13.33H79.1l-9.33,9.34m-12.22-62,3,7L57.28,94.77,51.9,107.42l-4.8-9.51-7-3m17.47,42.27,3-7-3.22-10.19L51.9,107.43l-4.8,9.51-7,3m42-42.27-3,7,3.23,10.19,5.37,12.65,4.8-9.51,7-3M82.06,137.23l-3-7,3.23-10.19,5.37-12.65,4.8,9.51,7,3m-52.42-22,10.18-3.14,12.65-5.38L60.5,84.58M47.1,116.94l10.18,3.14,12.65,5.37-9.43,4.82m32-32.36L82.33,94.77,69.68,89.39l9.42-4.81m13.4,32.36-10.17,3.14-12.65,5.37,9.42,4.82"/><path class="cls-1" d="M42.89,83.5l3.59-3a2.12,2.12,0,0,1,3,.24l4.6,5.44a2.1,2.1,0,0,1-.24,3l-3.6,3.05a2.11,2.11,0,0,1-3-.25l-4.6-5.43a2.11,2.11,0,0,1,.25-3Z"/><path class="cls-1" d="M42.89,131.93l3.59,3a2.12,2.12,0,0,0,3-.24l4.6-5.44a2.12,2.12,0,0,0-.24-3l-3.6-3a2.12,2.12,0,0,0-3,.24L42.64,129a2.11,2.11,0,0,0,.25,3Z"/><path class="cls-1" d="M98,83.5l-3.59-3a2.12,2.12,0,0,0-3,.24l-4.6,5.44a2.1,2.1,0,0,0,.24,3l3.6,3.05a2.11,2.11,0,0,0,3-.25l4.6-5.43a2.11,2.11,0,0,0-.25-3Z"/><path class="cls-1" d="M98,131.93l-3.59,3a2.12,2.12,0,0,1-3-.24l-4.6-5.44a2.12,2.12,0,0,1,.24-3l3.6-3a2.12,2.12,0,0,1,3,.24l4.6,5.44a2.11,2.11,0,0,1-.25,3Z"/></g></g></svg>