<svg xmlns="http://www.w3.org/2000/svg" viewBox="0 0 113.49 54.08"><defs><style>.cls-1{fill:#fff;fill-rule:evenodd;}.cls-1,.cls-2,.cls-3{stroke:#9d9d9d;stroke-linecap:round;stroke-linejoin:round;}.cls-1,.cls-3{stroke-width:0.99px;}.cls-2,.cls-3{fill:none;}.cls-2{stroke-width:0.57px;}</style></defs><title>Rings</title><g id="Слой_2" data-name="Слой 2"><g id="Слой_1-2" data-name="Слой 1"><path class="cls-1" d="M56.75,13.26c-17.45,0-32.68,1.81-45,6.14,5.59,2.45,12.52,3.43,19.38,5,3.43.79,6.65,2.21,10.19,2.89a27.67,27.67,0,0,0,4.44.49l-6.5,9.6c-13,.48-23.53-1.42-30.73-5.19C-4.21,25.55-.77,11.46,11.66,6.87,23.1,2.66,38.41.87,56.75.5c18.33.37,33.64,2.16,45.08,6.37,12.44,4.59,15.88,18.68,3.12,25.35-7.2,3.77-17.71,5.67-30.73,5.19l-6.49-9.6a27.68,27.68,0,0,0,4.43-.49c3.54-.68,6.77-2.1,10.19-2.89,6.86-1.6,13.8-2.58,19.39-5-12.31-4.33-27.55-6.17-45-6.14Z"/><path class="cls-2" d="M43.06,31.81c-8.35-1.67-54.67-6.1-36.24-22.38M70.3,31.81c8.35-1.67,54.92-7.5,36.34-22.4"/><path class="cls-1" d="M56.77,17.21A18.19,18.19,0,1,1,38.58,35.4,18.2,18.2,0,0,1,56.77,17.21Z"/><path class="cls-2" d="M38.58,35.4,44,30V22.5h7.56l5.27-5.27M38.58,35.4,44,40.77V48.3h7.56l5.27,5.27M75,35.4,69.58,30V22.5H62l-5.27-5.27M75,35.4l-5.38,5.37V48.3H62l-5.27,5.27m-6.9-35,1.67,3.92L49.7,28.26l-3,7.14L44,30l-4-1.67m9.85,23.86,1.67-3.92L49.7,42.54l-3-7.14L44,40.77l-4,1.67M63.69,18.58,62,22.5l1.82,5.76,3,7.14L69.58,30l4-1.67M63.69,52.22,62,48.3l1.82-5.76,3-7.14,2.71,5.37,4,1.67M44,30l5.74-1.77,7.14-3L51.52,22.5M44,40.77l5.74,1.77,7.14,3L51.52,48.3M69.58,30l-5.74-1.77-7.14-3L62,22.5m7.56,18.27-5.74,1.77-7.14,3L62,48.3"/><path class="cls-1" d="M44.52,22a17.1,17.1,0,0,1,4.83-3.18c-2-.46-5-.53-7,1.19-1.25,1.12-2.18,2.6-1.2,3.84a3.15,3.15,0,0,0,.95.77A1.93,1.93,0,0,0,44.52,22Z"/><path class="cls-1" d="M69.39,22.3a18.29,18.29,0,0,0-3.9-2.86,8.78,8.78,0,0,1,4.71-.16,6.6,6.6,0,0,1,2.45,1.92,1.67,1.67,0,0,1,.17,2.14c-.35.53-.73,1.2-1.35,1.34-1.59.37-2.48-.63-2.08-2.38Z"/><path class="cls-1" d="M42.55,46.74a17.21,17.21,0,0,1-1-1.46,6.57,6.57,0,0,0-.43,1.44c-.2,1-.39,2.25.45,3,1.14,1,2.3.27,3.07-.83.3-.43.34-1-.38-1.88a1.26,1.26,0,0,0-1.66-.29Z"/><path class="cls-1" d="M69.59,47.27c-.69.56-.69,1-.49,1.5a3.27,3.27,0,0,0,2.21,1.61c.85.18,1.84-.83,1.79-1.79a6,6,0,0,0-1-3.38,10.85,10.85,0,0,1-1.23,1.69,1,1,0,0,0-1.26.37Z"/><path class="cls-3" d="M11.76,19.4c-18-7.31,11.08-15.52,44.28-16s62.05,7.82,45.7,16"/></g></g></svg>